<svg width="98" height="45" viewBox="0 0 98 45" fill="none" xmlns="http://www.w3.org/2000/svg">
<path fill-rule="evenodd" clip-rule="evenodd" d="M44.7938 3.64742C44.5374 3.3901 44.1217 3.3901 43.8653 3.64742L35.5092 12.034C35.2528 12.2913 35.2528 12.7085 35.5092 12.9658L43.8653 21.3524C44.1217 21.6097 44.5374 21.6097 44.7938 21.3524L53.1499 12.9658C53.4063 12.7085 53.4063 12.2913 53.1499 12.034L44.7938 3.64742ZM45.258 0.385981C44.7452 -0.12866 43.9139 -0.12866 43.4011 0.385981L32.2596 11.5681C31.7468 12.0827 31.7468 12.9171 32.2596 13.4317L43.4011 24.6138C43.9139 25.1285 44.7452 25.1285 45.258 24.6138L56.3995 13.4317C56.9123 12.9171 56.9123 12.0827 56.3995 11.5681L45.258 0.385981Z" fill="#220A33"/>
<mask id="mask0_3592_330919" style="mask-type:alpha" maskUnits="userSpaceOnUse" x="31" y="0" width="26" height="25">
<path fill-rule="evenodd" clip-rule="evenodd" d="M44.7938 3.64742C44.5374 3.3901 44.1217 3.3901 43.8653 3.64742L35.5092 12.034C35.2528 12.2913 35.2528 12.7085 35.5092 12.9658L43.8653 21.3524C44.1217 21.6097 44.5374 21.6097 44.7938 21.3524L53.1499 12.9658C53.4063 12.7085 53.4063 12.2913 53.1499 12.034L44.7938 3.64742ZM45.258 0.385981C44.7452 -0.12866 43.9139 -0.12866 43.4011 0.385981L32.2596 11.5681C31.7468 12.0827 31.7468 12.9171 32.2596 13.4317L43.4011 24.6138C43.9139 25.1285 44.7452 25.1285 45.258 24.6138L56.3995 13.4317C56.9123 12.9171 56.9123 12.0827 56.3995 11.5681L45.258 0.385981Z" fill="#220A33"/>
</mask>
<g mask="url(#mask0_3592_330919)">
<g filter="url(#filter0_d_3592_330919)">
<path d="M52.742 0.386225C53.2547 -0.128416 54.0861 -0.128416 54.5989 0.386225L65.7404 11.5683C66.2532 12.0829 66.2532 12.9173 65.7404 13.432L54.5989 24.6141C54.0861 25.1287 53.2547 25.1287 52.742 24.6141L41.6005 13.432C41.0877 12.9173 41.0877 12.0829 41.6005 11.5683L52.742 0.386225Z" fill="black"/>
</g>
</g>
<path d="M52.742 0.386225C53.2547 -0.128416 54.0861 -0.128416 54.5989 0.386225L65.7404 11.5683C66.2532 12.0829 66.2532 12.9173 65.7404 13.432L54.5989 24.6141C54.0861 25.1287 53.2547 25.1287 52.742 24.6141L41.6005 13.432C41.0877 12.9173 41.0877 12.0829 41.6005 11.5683L52.742 0.386225Z" fill="url(#paint0_linear_3592_330919)"/>
<path d="M97.7282 43.7344C97.7282 43.8851 97.606 44.0073 97.4553 44.0073H94.9948C94.8441 44.0073 94.7219 43.8851 94.7219 43.7344V29.7006C94.7219 29.5498 94.8441 29.4277 94.9948 29.4277H97.4553C97.606 29.4277 97.7282 29.5498 97.7282 29.7006V43.7344Z" fill="#220A33"/>
<path fill-rule="evenodd" clip-rule="evenodd" d="M86.6641 44.302C84.5616 44.302 83.3412 43.1624 83.3412 41.4333C83.3412 39.7041 84.5616 38.4466 87.5679 38.1322L89.5132 37.8964C89.9848 37.8571 90.2992 37.582 90.2992 37.1694C90.2992 36.3048 89.5525 35.735 88.4718 35.735C87.3705 35.735 86.5743 36.4416 86.359 37.3176C86.3216 37.4697 86.1801 37.5816 86.0253 37.5577L83.6345 37.1886C83.4927 37.1667 83.3909 37.0383 83.4133 36.8966C83.7206 34.9455 85.6232 33.554 88.3932 33.554C91.3406 33.554 93.2465 35.1063 93.2465 37.6213V43.7344C93.2465 43.8851 93.1243 44.0073 92.9736 44.0073H91.0359C90.9139 44.0073 90.8067 43.9263 90.7733 43.809L90.3415 42.2887C90.3397 42.2825 90.334 42.2782 90.3275 42.2782C90.3221 42.2782 90.3172 42.2811 90.3147 42.2858C89.6648 43.4803 88.3503 44.302 86.6641 44.302ZM87.8037 42.2389C89.2185 42.2389 90.2402 41.2564 90.2402 39.9006V39.7933C90.2402 39.6305 90.0986 39.5039 89.9369 39.5221L88.3146 39.7041C86.6444 39.9006 86.0746 40.4312 86.0746 41.0796C86.0746 41.7673 86.8016 42.2389 87.8037 42.2389Z" fill="#220A33"/>
<path d="M72.1052 38.9771C72.1052 42.1996 74.2862 44.4003 77.5283 44.4003C80.2996 44.4003 82.4108 42.75 82.7991 40.2997C82.8221 40.1545 82.7181 40.0219 82.5725 40.0014L80.3208 39.6843C80.1688 39.6629 80.0303 39.7715 79.9994 39.9219C79.7476 41.1456 78.7979 41.9638 77.6266 41.9638C76.1726 41.9638 75.1115 40.7652 75.0919 38.9771C75.0919 37.1891 76.0743 35.9905 77.4301 35.9905C78.3733 35.9905 79.1993 36.5933 79.4908 37.7216C79.5309 37.877 79.6862 37.9796 79.8415 37.9394L82.0353 37.3712C82.1748 37.3351 82.263 37.1963 82.228 37.0566C81.7021 34.9549 79.7906 33.554 77.3515 33.554C74.2273 33.554 72.1052 35.7547 72.1052 38.9771Z" fill="#220A33"/>
<path d="M70.885 43.7344C70.885 43.8851 70.7628 44.0073 70.6121 44.0073H68.1713C68.0205 44.0073 67.8984 43.8851 67.8984 43.7344V34.2199C67.8984 34.0691 68.0205 33.947 68.1713 33.947H70.6121C70.7628 33.947 70.885 34.0691 70.885 34.2199V43.7344Z" fill="#220A33"/>
<path d="M56.9408 41.1416C57.2174 43.2181 59.2423 44.361 61.8477 44.361C64.7362 44.361 66.7404 43.0248 66.7404 40.942C66.7404 39.2719 65.6597 38.368 63.1249 37.9161L61.6316 37.6606C60.433 37.4445 59.9221 37.1301 59.9221 36.6192C59.9418 36.0101 60.6492 35.5189 61.5923 35.5189C62.55 35.5189 63.2917 35.9509 63.5028 36.651C63.548 36.8009 63.6875 36.9146 63.8424 36.8919L65.842 36.5997C65.991 36.5779 66.0955 36.439 66.0603 36.2926C65.6711 34.672 63.9461 33.5933 61.6906 33.5933C59.1165 33.5933 57.3677 34.8508 57.3677 36.8943C57.3677 38.5448 58.3109 39.3898 60.5313 39.7434L62.0246 39.9792C63.4393 40.215 64.0484 40.5687 64.0484 41.1778C64.0484 41.8655 63.1446 42.3568 62.0246 42.3568C60.7875 42.3568 59.8122 41.7842 59.5762 40.863C59.5383 40.7148 59.4041 40.6025 59.252 40.6196L57.1735 40.854C57.0291 40.8703 56.9217 40.9976 56.9408 41.1416Z" fill="#220A33"/>
<path d="M42.687 43.7344C42.687 43.8851 42.5649 44.0073 42.4141 44.0073H39.9536C39.8029 44.0073 39.6807 43.8851 39.6807 43.7344V34.2199C39.6807 34.0691 39.8029 33.9469 39.9536 33.9469H41.8839C42.0094 33.9469 42.1187 34.0325 42.1489 34.1543L42.547 35.764C42.5484 35.7701 42.5539 35.7743 42.5601 35.7743C42.5656 35.7743 42.5705 35.771 42.5726 35.7659C43.1249 34.4349 44.4587 33.6522 46.0077 33.6522C47.5759 33.6522 48.616 34.4148 49.0502 35.8425C49.0521 35.8486 49.0577 35.8529 49.0641 35.8529C49.0696 35.8529 49.0746 35.8498 49.0771 35.845C49.8441 34.3571 51.1782 33.6522 52.7081 33.6522C54.6927 33.6522 55.8716 34.9884 55.8716 37.2677V43.7344C55.8716 43.8851 55.7494 44.0073 55.5987 44.0073H53.1382C52.9875 44.0073 52.8653 43.8851 52.8653 43.7344V37.9357C52.8653 36.8354 52.2562 36.1869 51.2541 36.1869C49.9965 36.1869 49.2695 37.1105 49.2695 38.4859V43.7344C49.2695 43.8851 49.1473 44.0073 48.9966 44.0073H46.5557C46.405 44.0073 46.2828 43.8851 46.2828 43.7344V37.9357C46.2828 36.8354 45.6737 36.1869 44.652 36.1869C43.4141 36.1869 42.687 37.1105 42.687 38.4859V43.7344Z" fill="#220A33"/>
<path d="M37.5807 44.0073C37.7314 44.0073 37.8536 43.8851 37.8536 43.7344V34.2199C37.8536 34.0691 37.7314 33.947 37.5807 33.947H35.1398C34.9891 33.947 34.8669 34.0691 34.8669 34.2199V43.7344C34.8669 43.8851 34.9891 44.0073 35.1398 44.0073H37.5807Z" fill="#220A33"/>
<path d="M26.2246 43.7344C26.2246 43.8851 26.1024 44.0073 25.9517 44.0073H23.4911C23.3404 44.0073 23.2182 43.8851 23.2182 43.7344V30.2245C23.2182 30.0738 23.3404 29.9516 23.4911 29.9516H25.9517C26.1024 29.9516 26.2246 30.0738 26.2246 30.2245V35.762C26.2246 35.7688 26.2301 35.7743 26.2369 35.7743C26.2414 35.7743 26.2456 35.7718 26.2477 35.7678C26.9752 34.4161 28.2117 33.6522 29.8007 33.6522C31.8639 33.6522 33.1214 34.9294 33.1214 37.0712V43.7344C33.1214 43.8851 32.9992 44.0073 32.8485 44.0073H30.388C30.2373 44.0073 30.1151 43.8851 30.1151 43.7344V37.9947C30.1151 36.855 29.4667 36.1477 28.4253 36.1477C27.1284 36.1477 26.2246 37.0712 26.2246 38.4466V43.7344Z" fill="#220A33"/>
<path d="M8.54851 44.0073C8.67387 44.0073 8.7831 43.9219 8.81335 43.8002L11.4294 33.2783C11.4322 33.2671 11.4422 33.2592 11.4538 33.2592C11.4653 33.2592 11.4754 33.2671 11.4781 33.2783L14.0555 43.7993C14.0854 43.9214 14.1948 44.0073 14.3206 44.0073H18.2432C18.365 44.0073 18.472 43.9266 18.5055 43.8096L22.3576 30.3652C22.4075 30.1908 22.2766 30.0171 22.0952 30.0171H19.2511C19.126 30.0171 19.017 30.1021 18.9864 30.2234L16.3119 40.8444C16.3091 40.8556 16.299 40.8634 16.2875 40.8634C16.2759 40.8634 16.2659 40.8556 16.263 40.8444L13.5885 30.2234C13.558 30.1021 13.449 30.0171 13.3239 30.0171H9.54515C9.41975 30.0171 9.31049 30.1026 9.28028 30.2243L6.64452 40.8443C6.64173 40.8555 6.63163 40.8634 6.62003 40.8634C6.60852 40.8634 6.59846 40.8556 6.59559 40.8445L3.86301 30.222C3.83198 30.1014 3.72324 30.0171 3.59871 30.0171H0.773071C0.591675 30.0171 0.46076 30.1908 0.510723 30.3652L4.36276 43.8096C4.3963 43.9266 4.50334 44.0073 4.62511 44.0073H8.54851Z" fill="#220A33"/>
<path d="M35.9696 28.6737C36.1828 28.4605 36.5284 28.4605 36.7415 28.6737L38.2853 30.2174C38.4984 30.4306 38.4984 30.7762 38.2853 30.9893L36.7415 32.5331C36.5284 32.7463 36.1828 32.7463 35.9696 32.5331L34.4258 30.9893C34.2127 30.7762 34.2127 30.4306 34.4258 30.2174L35.9696 28.6737Z" fill="#220A33"/>
<path d="M68.9523 28.6737C69.1654 28.4605 69.511 28.4605 69.7242 28.6737L71.2679 30.2174C71.4811 30.4306 71.4811 30.7762 71.2679 30.9893L69.7242 32.5331C69.511 32.7463 69.1654 32.7463 68.9523 32.5331L67.4085 30.9893C67.1953 30.7762 67.1953 30.4306 67.4085 30.2174L68.9523 28.6737Z" fill="#220A33"/>
<defs>
<filter id="filter0_d_3592_330919" x="37.4659" y="-3.74976" width="32.4091" height="32.4998" filterUnits="userSpaceOnUse" color-interpolation-filters="sRGB">
<feFlood flood-opacity="0" result="BackgroundImageFix"/>
<feColorMatrix in="SourceAlpha" type="matrix" values="0 0 0 0 0 0 0 0 0 0 0 0 0 0 0 0 0 0 127 0" result="hardAlpha"/>
<feOffset/>
<feGaussianBlur stdDeviation="1.875"/>
<feColorMatrix type="matrix" values="0 0 0 0 0 0 0 0 0 0 0 0 0 0 0 0 0 0 1 0"/>
<feBlend mode="normal" in2="BackgroundImageFix" result="effect1_dropShadow_3592_330919"/>
<feBlend mode="normal" in="SourceGraphic" in2="effect1_dropShadow_3592_330919" result="shape"/>
</filter>
<linearGradient id="paint0_linear_3592_330919" x1="41.25" y1="12.5001" x2="65.6429" y2="15.4516" gradientUnits="userSpaceOnUse">
<stop stop-color="#4433FF"/>
<stop offset="0.489583" stop-color="#AA33FF"/>
<stop offset="1" stop-color="#E36BFF"/>
<stop offset="1" stop-color="#FF33EE"/>
</linearGradient>
</defs>
</svg>
