<svg width="136" height="25" viewBox="0 0 136 25" fill="none" xmlns="http://www.w3.org/2000/svg">
<path fill-rule="evenodd" clip-rule="evenodd" d="M14.0438 3.64742C13.7874 3.3901 13.3717 3.3901 13.1153 3.64742L4.75919 12.034C4.5028 12.2913 4.5028 12.7085 4.75919 12.9658L13.1153 21.3524C13.3717 21.6097 13.7874 21.6097 14.0438 21.3524L22.3999 12.9658C22.6563 12.7085 22.6563 12.2913 22.3999 12.034L14.0438 3.64742ZM14.508 0.385981C13.9952 -0.12866 13.1639 -0.12866 12.6511 0.385981L1.50958 11.5681C0.996807 12.0827 0.996807 12.9171 1.50958 13.4317L12.6511 24.6138C13.1639 25.1285 13.9952 25.1285 14.508 24.6138L25.6495 13.4317C26.1623 12.9171 26.1623 12.0827 25.6495 11.5681L14.508 0.385981Z" fill="white"/>
<mask id="mask0_3592_330957" style="mask-type:alpha" maskUnits="userSpaceOnUse" x="1" y="0" width="26" height="25">
<path fill-rule="evenodd" clip-rule="evenodd" d="M14.0438 3.64742C13.7874 3.3901 13.3717 3.3901 13.1153 3.64742L4.75919 12.034C4.5028 12.2913 4.5028 12.7085 4.75919 12.9658L13.1153 21.3524C13.3717 21.6097 13.7874 21.6097 14.0438 21.3524L22.3999 12.9658C22.6563 12.7085 22.6563 12.2913 22.3999 12.034L14.0438 3.64742ZM14.508 0.385981C13.9952 -0.12866 13.1639 -0.12866 12.6511 0.385981L1.50958 11.5681C0.996807 12.0827 0.996807 12.9171 1.50958 13.4317L12.6511 24.6138C13.1639 25.1285 13.9952 25.1285 14.508 24.6138L25.6495 13.4317C26.1623 12.9171 26.1623 12.0827 25.6495 11.5681L14.508 0.385981Z" fill="#220A33"/>
</mask>
<g mask="url(#mask0_3592_330957)">
<g filter="url(#filter0_d_3592_330957)">
<path d="M21.992 0.386225C22.5047 -0.128416 23.3361 -0.128416 23.8489 0.386225L34.9904 11.5683C35.5032 12.083 35.5032 12.9173 34.9904 13.432L23.8489 24.6141C23.3361 25.1287 22.5047 25.1287 21.992 24.6141L10.8505 13.432C10.3377 12.9173 10.3377 12.083 10.8505 11.5683L21.992 0.386225Z" fill="black"/>
</g>
</g>
<path d="M21.992 0.386225C22.5047 -0.128416 23.3361 -0.128416 23.8489 0.386225L34.9904 11.5683C35.5032 12.0829 35.5032 12.9173 34.9904 13.432L23.8489 24.6141C23.3361 25.1287 22.5047 25.1287 21.992 24.6141L10.8505 13.432C10.3377 12.9173 10.3377 12.0829 10.8505 11.5683L21.992 0.386225Z" fill="white"/>
<path d="M135.478 19.2343C135.478 19.385 135.356 19.5072 135.205 19.5072H132.745C132.594 19.5072 132.472 19.385 132.472 19.2343V5.20044C132.472 5.04972 132.594 4.92753 132.745 4.92753H135.205C135.356 4.92753 135.478 5.04972 135.478 5.20044V19.2343Z" fill="white"/>
<path fill-rule="evenodd" clip-rule="evenodd" d="M124.414 19.8019C122.312 19.8019 121.091 18.6623 121.091 16.9331C121.091 15.204 122.312 13.9465 125.318 13.6321L127.263 13.3963C127.735 13.357 128.049 13.0819 128.049 12.6693C128.049 11.8047 127.302 11.2349 126.222 11.2349C125.12 11.2349 124.324 11.9415 124.109 12.8174C124.072 12.9696 123.93 13.0815 123.775 13.0576L121.385 12.6885C121.243 12.6666 121.141 12.5382 121.163 12.3965C121.471 10.4453 123.373 9.05385 126.143 9.05385C129.091 9.05385 130.997 10.6061 130.997 13.1212V19.2343C130.997 19.385 130.874 19.5072 130.724 19.5072H128.786C128.664 19.5072 128.557 19.4262 128.523 19.3089L128.091 17.7886C128.09 17.7824 128.084 17.7781 128.077 17.7781C128.072 17.7781 128.067 17.781 128.065 17.7857C127.415 18.9801 126.1 19.8019 124.414 19.8019ZM125.554 17.7388C126.968 17.7388 127.99 16.7563 127.99 15.4005V15.2931C127.99 15.1304 127.849 15.0038 127.687 15.0219L126.065 15.204C124.394 15.4005 123.825 15.931 123.825 16.5795C123.825 17.2672 124.552 17.7388 125.554 17.7388Z" fill="white"/>
<path d="M109.855 14.477C109.855 17.6995 112.036 19.9002 115.278 19.9002C118.05 19.9002 120.161 18.2499 120.549 15.7996C120.572 15.6543 120.468 15.5218 120.322 15.5013L118.071 15.1841C117.919 15.1627 117.78 15.2714 117.749 15.4218C117.498 16.6454 116.548 17.4637 115.377 17.4637C113.923 17.4637 112.862 16.2651 112.842 14.477C112.842 12.6889 113.824 11.4903 115.18 11.4903C116.123 11.4903 116.949 12.0932 117.241 13.2215C117.281 13.3769 117.436 13.4795 117.592 13.4393L119.785 12.8711C119.925 12.835 120.013 12.6962 119.978 12.5564C119.452 10.4548 117.541 9.05385 115.102 9.05385C111.977 9.05385 109.855 11.2545 109.855 14.477Z" fill="white"/>
<path d="M108.635 19.2343C108.635 19.385 108.513 19.5072 108.362 19.5072H105.921C105.771 19.5072 105.648 19.385 105.648 19.2343V9.71974C105.648 9.56902 105.771 9.44683 105.921 9.44683H108.362C108.513 9.44683 108.635 9.56902 108.635 9.71974V19.2343Z" fill="white"/>
<path d="M94.6908 16.6415C94.9674 18.718 96.9923 19.8609 99.5977 19.8609C102.486 19.8609 104.49 18.5247 104.49 16.4419C104.49 14.7717 103.41 13.8679 100.875 13.4159L99.3816 13.1605C98.183 12.9444 97.6721 12.63 97.6721 12.1191C97.6918 11.51 98.3992 11.0188 99.3423 11.0188C100.3 11.0188 101.042 11.4508 101.253 12.1509C101.298 12.3008 101.437 12.4145 101.592 12.3918L103.592 12.0996C103.741 12.0778 103.845 11.9389 103.81 11.7925C103.421 10.1719 101.696 9.09314 99.4406 9.09314C96.8665 9.09314 95.1177 10.3507 95.1177 12.3942C95.1177 14.0447 96.0609 14.8896 98.2813 15.2433L99.7746 15.4791C101.189 15.7149 101.798 16.0686 101.798 16.6777C101.798 17.3654 100.895 17.8566 99.7746 17.8566C98.5375 17.8566 97.5622 17.2841 97.3262 16.3629C97.2883 16.2147 97.1541 16.1023 97.002 16.1195L94.9235 16.3539C94.7791 16.3702 94.6717 16.4974 94.6908 16.6415Z" fill="white"/>
<path d="M80.437 19.2343C80.437 19.385 80.3149 19.5072 80.1641 19.5072H77.7036C77.5529 19.5072 77.4307 19.385 77.4307 19.2343V9.71973C77.4307 9.56901 77.5529 9.44683 77.7036 9.44683H79.6339C79.7594 9.44683 79.8687 9.5324 79.8989 9.65421L80.297 11.2639C80.2984 11.27 80.3039 11.2742 80.3101 11.2742C80.3156 11.2742 80.3205 11.2709 80.3226 11.2658C80.8749 9.93476 82.2087 9.15209 83.7577 9.15209C85.3259 9.15209 86.366 9.9147 86.8002 11.3424C86.8021 11.3485 86.8077 11.3528 86.8141 11.3528C86.8196 11.3528 86.8246 11.3497 86.8271 11.3448C87.5941 9.85695 88.9282 9.15209 90.4581 9.15209C92.4427 9.15209 93.6216 10.4882 93.6216 12.7675V19.2343C93.6216 19.385 93.4994 19.5072 93.3487 19.5072H90.8882C90.7375 19.5072 90.6153 19.385 90.6153 19.2343V13.4356C90.6153 12.3352 90.0062 11.6868 89.0041 11.6868C87.7465 11.6868 87.0195 12.6103 87.0195 13.9858V19.2343C87.0195 19.385 86.8973 19.5072 86.7466 19.5072H84.3057C84.155 19.5072 84.0328 19.385 84.0328 19.2343V13.4356C84.0328 12.3352 83.4237 11.6868 82.402 11.6868C81.1641 11.6868 80.437 12.6103 80.437 13.9858V19.2343Z" fill="white"/>
<path d="M75.3307 19.5072C75.4814 19.5072 75.6036 19.385 75.6036 19.2343V9.71974C75.6036 9.56902 75.4814 9.44683 75.3307 9.44683H72.8898C72.7391 9.44683 72.6169 9.56902 72.6169 9.71974V19.2343C72.6169 19.385 72.7391 19.5072 72.8898 19.5072H75.3307Z" fill="white"/>
<path d="M63.9746 19.2343C63.9746 19.385 63.8524 19.5072 63.7017 19.5072H61.2411C61.0904 19.5072 60.9682 19.385 60.9682 19.2343V5.72441C60.9682 5.57369 61.0904 5.4515 61.2411 5.4515H63.7017C63.8524 5.4515 63.9746 5.57369 63.9746 5.72441V11.2619C63.9746 11.2687 63.9801 11.2742 63.9869 11.2742C63.9914 11.2742 63.9956 11.2717 63.9977 11.2677C64.7252 9.91596 65.9617 9.1521 67.5507 9.1521C69.6139 9.1521 70.8714 10.4293 70.8714 12.571V19.2343C70.8714 19.385 70.7492 19.5072 70.5985 19.5072H68.138C67.9873 19.5072 67.8651 19.385 67.8651 19.2343V13.4945C67.8651 12.3549 67.2167 11.6475 66.1753 11.6475C64.8784 11.6475 63.9746 12.571 63.9746 13.9465V19.2343Z" fill="white"/>
<path d="M46.2985 19.5072C46.4239 19.5072 46.5331 19.4218 46.5634 19.3001L49.1794 8.77814C49.1822 8.76696 49.1922 8.75911 49.2038 8.75911C49.2153 8.75911 49.2254 8.767 49.2281 8.77822L51.8055 19.2992C51.8354 19.4213 51.9448 19.5072 52.0706 19.5072H55.9932C56.115 19.5072 56.222 19.4265 56.2555 19.3094L60.1076 5.86507C60.1575 5.69069 60.0266 5.517 59.8452 5.517H57.0011C56.876 5.517 56.767 5.60199 56.7364 5.72326L54.0619 16.3443C54.0591 16.3555 54.049 16.3633 54.0375 16.3633C54.0259 16.3633 54.0159 16.3555 54.013 16.3443L51.3385 5.72326C51.308 5.602 51.199 5.517 51.0739 5.517H47.2951C47.1697 5.517 47.0605 5.60246 47.0303 5.72417L44.3945 16.3442C44.3917 16.3554 44.3816 16.3633 44.37 16.3633C44.3585 16.3633 44.3485 16.3555 44.3456 16.3444L41.613 5.72191C41.582 5.60131 41.4732 5.517 41.3487 5.517H38.5231C38.3417 5.517 38.2108 5.69069 38.2607 5.86507L42.1128 19.3094C42.1463 19.4265 42.2533 19.5072 42.3751 19.5072H46.2985Z" fill="white"/>
<path d="M73.7196 4.17354C73.9328 3.96038 74.2784 3.96038 74.4915 4.17354L76.0353 5.71732C76.2484 5.93047 76.2484 6.27606 76.0353 6.48921L74.4915 8.03299C74.2784 8.24614 73.9328 8.24614 73.7196 8.03299L72.1758 6.48921C71.9627 6.27606 71.9627 5.93047 72.1758 5.71732L73.7196 4.17354Z" fill="white"/>
<path d="M106.702 4.17354C106.915 3.96039 107.261 3.96039 107.474 4.17354L109.018 5.71732C109.231 5.93047 109.231 6.27606 109.018 6.48921L107.474 8.03299C107.261 8.24614 106.915 8.24614 106.702 8.03299L105.158 6.48921C104.945 6.27606 104.945 5.93047 105.158 5.71732L106.702 4.17354Z" fill="white"/>
<defs>
<filter id="filter0_d_3592_330957" x="6.71588" y="-3.74976" width="32.4091" height="32.4998" filterUnits="userSpaceOnUse" color-interpolation-filters="sRGB">
<feFlood flood-opacity="0" result="BackgroundImageFix"/>
<feColorMatrix in="SourceAlpha" type="matrix" values="0 0 0 0 0 0 0 0 0 0 0 0 0 0 0 0 0 0 127 0" result="hardAlpha"/>
<feOffset/>
<feGaussianBlur stdDeviation="1.875"/>
<feColorMatrix type="matrix" values="0 0 0 0 0 0 0 0 0 0 0 0 0 0 0 0 0 0 0.3 0"/>
<feBlend mode="normal" in2="BackgroundImageFix" result="effect1_dropShadow_3592_330957"/>
<feBlend mode="normal" in="SourceGraphic" in2="effect1_dropShadow_3592_330957" result="shape"/>
</filter>
</defs>
</svg>
