<svg width="98" height="45" viewBox="0 0 98 45" fill="none" xmlns="http://www.w3.org/2000/svg">
<path fill-rule="evenodd" clip-rule="evenodd" d="M44.7938 3.64742C44.5374 3.3901 44.1217 3.3901 43.8653 3.64742L35.5092 12.034C35.2528 12.2913 35.2528 12.7085 35.5092 12.9658L43.8653 21.3524C44.1217 21.6097 44.5374 21.6097 44.7938 21.3524L53.1499 12.9658C53.4063 12.7085 53.4063 12.2913 53.1499 12.034L44.7938 3.64742ZM45.258 0.385981C44.7452 -0.12866 43.9139 -0.12866 43.4011 0.385981L32.2596 11.5681C31.7468 12.0827 31.7468 12.9171 32.2596 13.4317L43.4011 24.6138C43.9139 25.1285 44.7452 25.1285 45.258 24.6138L56.3995 13.4317C56.9123 12.9171 56.9123 12.0827 56.3995 11.5681L45.258 0.385981Z" fill="white"/>
<mask id="mask0_3592_330985" style="mask-type:alpha" maskUnits="userSpaceOnUse" x="31" y="0" width="26" height="25">
<path fill-rule="evenodd" clip-rule="evenodd" d="M44.7938 3.64742C44.5374 3.3901 44.1217 3.3901 43.8653 3.64742L35.5092 12.034C35.2528 12.2913 35.2528 12.7085 35.5092 12.9658L43.8653 21.3524C44.1217 21.6097 44.5374 21.6097 44.7938 21.3524L53.1499 12.9658C53.4063 12.7085 53.4063 12.2913 53.1499 12.034L44.7938 3.64742ZM45.258 0.385981C44.7452 -0.12866 43.9139 -0.12866 43.4011 0.385981L32.2596 11.5681C31.7468 12.0827 31.7468 12.9171 32.2596 13.4317L43.4011 24.6138C43.9139 25.1285 44.7452 25.1285 45.258 24.6138L56.3995 13.4317C56.9123 12.9171 56.9123 12.0827 56.3995 11.5681L45.258 0.385981Z" fill="#220A33"/>
</mask>
<g mask="url(#mask0_3592_330985)">
<g filter="url(#filter0_d_3592_330985)">
<path d="M52.742 0.386225C53.2547 -0.128416 54.0861 -0.128416 54.5989 0.386225L65.7404 11.5683C66.2532 12.083 66.2532 12.9173 65.7404 13.432L54.5989 24.6141C54.0861 25.1287 53.2547 25.1287 52.742 24.6141L41.6005 13.432C41.0877 12.9173 41.0877 12.083 41.6005 11.5683L52.742 0.386225Z" fill="black"/>
</g>
</g>
<path d="M52.742 0.386225C53.2547 -0.128416 54.0861 -0.128416 54.5989 0.386225L65.7404 11.5683C66.2532 12.0829 66.2532 12.9173 65.7404 13.432L54.5989 24.6141C54.0861 25.1287 53.2547 25.1287 52.742 24.6141L41.6005 13.432C41.0877 12.9173 41.0877 12.0829 41.6005 11.5683L52.742 0.386225Z" fill="white"/>
<path d="M97.7282 43.7343C97.7282 43.885 97.606 44.0072 97.4553 44.0072H94.9948C94.8441 44.0072 94.7219 43.885 94.7219 43.7343V29.7004C94.7219 29.5497 94.8441 29.4275 94.9948 29.4275H97.4553C97.606 29.4275 97.7282 29.5497 97.7282 29.7004V43.7343Z" fill="white"/>
<path fill-rule="evenodd" clip-rule="evenodd" d="M86.6641 44.3019C84.5616 44.3019 83.3412 43.1623 83.3412 41.4331C83.3412 39.704 84.5616 38.4465 87.5679 38.1321L89.5132 37.8963C89.9848 37.857 90.2992 37.5819 90.2992 37.1693C90.2992 36.3047 89.5525 35.7349 88.4718 35.7349C87.3705 35.7349 86.5743 36.4415 86.359 37.3174C86.3216 37.4696 86.1801 37.5815 86.0253 37.5576L83.6345 37.1885C83.4927 37.1666 83.3909 37.0382 83.4133 36.8965C83.7206 34.9453 85.6232 33.5538 88.3932 33.5538C91.3406 33.5538 93.2465 35.1061 93.2465 37.6212V43.7343C93.2465 43.885 93.1243 44.0072 92.9736 44.0072H91.0359C90.9139 44.0072 90.8067 43.9262 90.7733 43.8089L90.3415 42.2886C90.3397 42.2824 90.334 42.2781 90.3275 42.2781C90.3221 42.2781 90.3172 42.281 90.3147 42.2857C89.6648 43.4801 88.3503 44.3019 86.6641 44.3019ZM87.8037 42.2388C89.2185 42.2388 90.2402 41.2563 90.2402 39.9005V39.7931C90.2402 39.6304 90.0986 39.5038 89.9369 39.5219L88.3146 39.704C86.6444 39.9005 86.0746 40.431 86.0746 41.0795C86.0746 41.7672 86.8016 42.2388 87.8037 42.2388Z" fill="white"/>
<path d="M72.1052 38.977C72.1052 42.1995 74.2862 44.4002 77.5283 44.4002C80.2996 44.4002 82.4108 42.7499 82.7991 40.2996C82.8221 40.1543 82.7181 40.0218 82.5725 40.0013L80.3208 39.6841C80.1688 39.6627 80.0303 39.7714 79.9994 39.9218C79.7476 41.1454 78.7979 41.9637 77.6266 41.9637C76.1726 41.9637 75.1115 40.7651 75.0919 38.977C75.0919 37.1889 76.0743 35.9903 77.4301 35.9903C78.3733 35.9903 79.1993 36.5932 79.4908 37.7215C79.5309 37.8769 79.6862 37.9795 79.8415 37.9393L82.0353 37.3711C82.1748 37.335 82.263 37.1962 82.228 37.0564C81.7021 34.9548 79.7906 33.5538 77.3515 33.5538C74.2273 33.5538 72.1052 35.7545 72.1052 38.977Z" fill="white"/>
<path d="M70.885 43.7343C70.885 43.885 70.7628 44.0072 70.6121 44.0072H68.1713C68.0205 44.0072 67.8984 43.885 67.8984 43.7343V34.2197C67.8984 34.069 68.0205 33.9468 68.1713 33.9468H70.6121C70.7628 33.9468 70.885 34.069 70.885 34.2197V43.7343Z" fill="white"/>
<path d="M56.9408 41.1415C57.2174 43.218 59.2423 44.3609 61.8477 44.3609C64.7362 44.3609 66.7404 43.0247 66.7404 40.9419C66.7404 39.2717 65.6597 38.3679 63.1249 37.9159L61.6316 37.6605C60.433 37.4444 59.9221 37.13 59.9221 36.6191C59.9418 36.01 60.6492 35.5188 61.5923 35.5188C62.55 35.5188 63.2917 35.9508 63.5028 36.6509C63.548 36.8008 63.6875 36.9145 63.8424 36.8918L65.842 36.5996C65.991 36.5778 66.0955 36.4389 66.0603 36.2925C65.6711 34.6719 63.9461 33.5931 61.6906 33.5931C59.1165 33.5931 57.3677 34.8507 57.3677 36.8942C57.3677 38.5447 58.3109 39.3896 60.5313 39.7433L62.0246 39.9791C63.4393 40.2149 64.0484 40.5686 64.0484 41.1777C64.0484 41.8654 63.1446 42.3566 62.0246 42.3566C60.7875 42.3566 59.8122 41.7841 59.5762 40.8629C59.5383 40.7147 59.4041 40.6023 59.252 40.6195L57.1735 40.8539C57.0291 40.8702 56.9217 40.9974 56.9408 41.1415Z" fill="white"/>
<path d="M42.687 43.7343C42.687 43.885 42.5649 44.0072 42.4141 44.0072H39.9536C39.8029 44.0072 39.6807 43.885 39.6807 43.7343V34.2197C39.6807 34.069 39.8029 33.9468 39.9536 33.9468H41.8839C42.0094 33.9468 42.1187 34.0324 42.1489 34.1542L42.547 35.7639C42.5484 35.77 42.5539 35.7742 42.5601 35.7742C42.5656 35.7742 42.5705 35.7709 42.5726 35.7658C43.1249 34.4348 44.4587 33.6521 46.0077 33.6521C47.5759 33.6521 48.616 34.4147 49.0502 35.8424C49.0521 35.8485 49.0577 35.8528 49.0641 35.8528C49.0696 35.8528 49.0746 35.8497 49.0771 35.8448C49.8441 34.3569 51.1782 33.6521 52.7081 33.6521C54.6927 33.6521 55.8716 34.9882 55.8716 37.2675V43.7343C55.8716 43.885 55.7494 44.0072 55.5987 44.0072H53.1382C52.9875 44.0072 52.8653 43.885 52.8653 43.7343V37.9356C52.8653 36.8352 52.2562 36.1868 51.2541 36.1868C49.9965 36.1868 49.2695 37.1103 49.2695 38.4858V43.7343C49.2695 43.885 49.1473 44.0072 48.9966 44.0072H46.5557C46.405 44.0072 46.2828 43.885 46.2828 43.7343V37.9356C46.2828 36.8352 45.6737 36.1868 44.652 36.1868C43.4141 36.1868 42.687 37.1103 42.687 38.4858V43.7343Z" fill="white"/>
<path d="M37.5807 44.0072C37.7314 44.0072 37.8536 43.885 37.8536 43.7343V34.2197C37.8536 34.069 37.7314 33.9468 37.5807 33.9468H35.1398C34.9891 33.9468 34.8669 34.069 34.8669 34.2197V43.7343C34.8669 43.885 34.9891 44.0072 35.1398 44.0072H37.5807Z" fill="white"/>
<path d="M26.2246 43.7343C26.2246 43.885 26.1024 44.0072 25.9517 44.0072H23.4911C23.3404 44.0072 23.2182 43.885 23.2182 43.7343V30.2244C23.2182 30.0737 23.3404 29.9515 23.4911 29.9515H25.9517C26.1024 29.9515 26.2246 30.0737 26.2246 30.2244V35.7619C26.2246 35.7687 26.2301 35.7742 26.2369 35.7742C26.2414 35.7742 26.2456 35.7717 26.2477 35.7677C26.9752 34.416 28.2117 33.6521 29.8007 33.6521C31.8639 33.6521 33.1214 34.9293 33.1214 37.071V43.7343C33.1214 43.885 32.9992 44.0072 32.8485 44.0072H30.388C30.2373 44.0072 30.1151 43.885 30.1151 43.7343V37.9945C30.1151 36.8549 29.4667 36.1475 28.4253 36.1475C27.1284 36.1475 26.2246 37.071 26.2246 38.4465V43.7343Z" fill="white"/>
<path d="M8.54851 44.0072C8.67387 44.0072 8.7831 43.9218 8.81335 43.8001L11.4294 33.2781C11.4322 33.267 11.4422 33.2591 11.4538 33.2591C11.4653 33.2591 11.4754 33.267 11.4781 33.2782L14.0555 43.7992C14.0854 43.9213 14.1948 44.0072 14.3206 44.0072H18.2432C18.365 44.0072 18.472 43.9265 18.5055 43.8094L22.3576 30.3651C22.4075 30.1907 22.2766 30.017 22.0952 30.017H19.2511C19.126 30.017 19.017 30.102 18.9864 30.2233L16.3119 40.8443C16.3091 40.8555 16.299 40.8633 16.2875 40.8633C16.2759 40.8633 16.2659 40.8555 16.263 40.8443L13.5885 30.2233C13.558 30.102 13.449 30.017 13.3239 30.017H9.54515C9.41975 30.017 9.31049 30.1025 9.28028 30.2242L6.64452 40.8442C6.64173 40.8554 6.63163 40.8633 6.62003 40.8633C6.60852 40.8633 6.59846 40.8555 6.59559 40.8444L3.86301 30.2219C3.83198 30.1013 3.72324 30.017 3.59871 30.017H0.773071C0.591675 30.017 0.46076 30.1907 0.510723 30.3651L4.36276 43.8094C4.3963 43.9265 4.50334 44.0072 4.62511 44.0072H8.54851Z" fill="white"/>
<path d="M35.9696 28.6735C36.1828 28.4604 36.5284 28.4604 36.7415 28.6735L38.2853 30.2173C38.4984 30.4305 38.4984 30.7761 38.2853 30.9892L36.7415 32.533C36.5284 32.7461 36.1828 32.7461 35.9696 32.533L34.4258 30.9892C34.2127 30.7761 34.2127 30.4305 34.4258 30.2173L35.9696 28.6735Z" fill="white"/>
<path d="M68.9523 28.6735C69.1654 28.4604 69.511 28.4604 69.7242 28.6735L71.2679 30.2173C71.4811 30.4305 71.4811 30.7761 71.2679 30.9892L69.7242 32.533C69.511 32.7461 69.1654 32.7461 68.9523 32.533L67.4085 30.9892C67.1953 30.7761 67.1953 30.4305 67.4085 30.2173L68.9523 28.6735Z" fill="white"/>
<defs>
<filter id="filter0_d_3592_330985" x="37.4659" y="-3.74976" width="32.4091" height="32.4998" filterUnits="userSpaceOnUse" color-interpolation-filters="sRGB">
<feFlood flood-opacity="0" result="BackgroundImageFix"/>
<feColorMatrix in="SourceAlpha" type="matrix" values="0 0 0 0 0 0 0 0 0 0 0 0 0 0 0 0 0 0 127 0" result="hardAlpha"/>
<feOffset/>
<feGaussianBlur stdDeviation="1.875"/>
<feColorMatrix type="matrix" values="0 0 0 0 0 0 0 0 0 0 0 0 0 0 0 0 0 0 0.3 0"/>
<feBlend mode="normal" in2="BackgroundImageFix" result="effect1_dropShadow_3592_330985"/>
<feBlend mode="normal" in="SourceGraphic" in2="effect1_dropShadow_3592_330985" result="shape"/>
</filter>
</defs>
</svg>
