<svg width="498" height="100" viewBox="0 0 498 100" fill="none" xmlns="http://www.w3.org/2000/svg">
<path fill-rule="evenodd" clip-rule="evenodd" d="M53.1751 14.5897C52.1496 13.5604 50.4868 13.5604 49.4613 14.5897L16.0367 48.1359C15.0112 49.1652 15.0112 50.834 16.0367 51.8633L49.4613 85.4096C50.4868 86.4388 52.1496 86.4388 53.1751 85.4096L86.5996 51.8633C87.6252 50.834 87.6252 49.1652 86.5996 48.1359L53.1751 14.5897ZM55.032 1.54392C52.9809 -0.514642 49.6554 -0.514641 47.6043 1.54392L3.03832 46.2723C0.987227 48.3308 0.987226 51.6684 3.03832 53.727L47.6043 98.4553C49.6554 100.514 52.9809 100.514 55.032 98.4553L99.598 53.727C101.649 51.6684 101.649 48.3308 99.5981 46.2723L55.032 1.54392Z" fill="white"/>
<mask id="mask0_3309_46" style="mask-type:alpha" maskUnits="userSpaceOnUse" x="1" y="0" width="101" height="100">
<path fill-rule="evenodd" clip-rule="evenodd" d="M53.1751 14.5897C52.1496 13.5604 50.4868 13.5604 49.4613 14.5897L16.0367 48.1359C15.0112 49.1652 15.0112 50.834 16.0367 51.8633L49.4613 85.4096C50.4868 86.4388 52.1496 86.4388 53.1751 85.4096L86.5996 51.8633C87.6252 50.834 87.6252 49.1652 86.5996 48.1359L53.1751 14.5897ZM55.032 1.54392C52.9809 -0.514642 49.6554 -0.514641 47.6043 1.54392L3.03832 46.2723C0.987227 48.3308 0.987226 51.6684 3.03832 53.727L47.6043 98.4553C49.6554 100.514 52.9809 100.514 55.032 98.4553L99.598 53.727C101.649 51.6684 101.649 48.3308 99.5981 46.2723L55.032 1.54392Z" fill="#220A33"/>
</mask>
<g mask="url(#mask0_3309_46)">
<g filter="url(#filter0_d_3309_46)">
<path d="M84.9679 1.54468C87.019 -0.513885 90.3445 -0.513886 92.3956 1.54468L136.962 46.273C139.013 48.3316 139.013 51.6692 136.962 53.7277L92.3956 98.4561C90.3445 100.515 87.019 100.515 84.9679 98.4561L40.4019 53.7277C38.3508 51.6692 38.3508 48.3316 40.4019 46.273L84.9679 1.54468Z" fill="black"/>
</g>
</g>
<path d="M84.9679 1.54468C87.019 -0.513885 90.3445 -0.513886 92.3956 1.54468L136.962 46.273C139.013 48.3316 139.013 51.6692 136.962 53.7277L92.3956 98.4561C90.3445 100.515 87.019 100.515 84.9679 98.4561L40.4019 53.7277C38.3508 51.6692 38.3508 48.3316 40.4019 46.273L84.9679 1.54468Z" fill="white"/>
<path d="M497.244 74.0513C497.244 74.5896 496.807 75.026 496.269 75.026H487.481C486.943 75.026 486.507 74.5896 486.507 74.0513V23.9305C486.507 23.3922 486.943 22.9558 487.481 22.9558H496.269C496.807 22.9558 497.244 23.3922 497.244 23.9305V74.0513Z" fill="white"/>
<path fill-rule="evenodd" clip-rule="evenodd" d="M457.729 76.0786C450.22 76.0786 445.861 72.0084 445.861 65.833C445.861 59.6576 450.22 55.1663 460.957 54.0435L467.904 53.2014C469.589 53.0611 470.711 52.0786 470.711 50.6049C470.711 47.5172 468.045 45.4821 464.185 45.4821C460.252 45.4821 457.408 48.0055 456.639 51.1341C456.506 51.6774 456 52.077 455.448 51.9916L446.909 50.6736C446.403 50.5954 446.039 50.1367 446.119 49.6306C447.216 42.6623 454.011 37.6926 463.904 37.6926C474.431 37.6926 481.238 43.2365 481.238 52.219V74.0513C481.238 74.5896 480.801 75.026 480.263 75.026H473.342C472.907 75.026 472.524 74.7368 472.405 74.3177L470.862 68.8883C470.856 68.8659 470.836 68.8505 470.812 68.8505C470.793 68.8505 470.776 68.861 470.767 68.8777C468.446 73.1437 463.751 76.0786 457.729 76.0786ZM461.799 68.7102C466.852 68.7102 470.501 65.2014 470.501 60.3593V59.9758C470.501 59.3945 469.995 58.9424 469.417 59.0072L463.624 59.6575C457.659 60.3593 455.624 62.254 455.624 64.5698C455.624 67.026 458.22 68.7102 461.799 68.7102Z" fill="white"/>
<path d="M405.733 57.0611C405.733 68.5698 413.522 76.4295 425.101 76.4295C434.999 76.4295 442.539 70.5357 443.925 61.7847C444.008 61.2659 443.636 60.7924 443.116 60.7192L435.074 59.5866C434.532 59.5101 434.037 59.8982 433.926 60.4353C433.027 64.8055 429.635 67.7277 425.452 67.7277C420.259 67.7277 416.47 63.447 416.4 57.0611C416.4 50.6751 419.908 46.3944 424.75 46.3944C428.119 46.3944 431.069 48.5473 432.11 52.5771C432.253 53.132 432.808 53.4986 433.363 53.3549L441.198 51.3256C441.696 51.1966 442.011 50.7011 441.886 50.2019C440.007 42.6961 433.181 37.6926 424.47 37.6926C413.312 37.6926 405.733 45.5523 405.733 57.0611Z" fill="white"/>
<path d="M401.375 74.0513C401.375 74.5896 400.939 75.026 400.4 75.026H391.683C391.145 75.026 390.708 74.5896 390.708 74.0513V40.0708C390.708 39.5325 391.145 39.0962 391.683 39.0962H400.4C400.939 39.0962 401.375 39.5325 401.375 40.0708V74.0513Z" fill="white"/>
<path d="M351.575 64.7913C352.562 72.2075 359.794 76.2891 369.099 76.2891C379.415 76.2891 386.573 71.5172 386.573 64.0786C386.573 58.1137 382.713 54.8856 373.661 53.2716L368.327 52.3593C364.047 51.5874 362.222 50.4646 362.222 48.64C362.292 46.4646 364.818 44.7102 368.187 44.7102C371.607 44.7102 374.256 46.2533 375.01 48.7534C375.171 49.2887 375.67 49.6948 376.223 49.614L383.364 48.5702C383.896 48.4924 384.27 47.9963 384.144 47.4735C382.754 41.6856 376.593 37.833 368.538 37.833C359.345 37.833 353.099 42.3242 353.099 49.6225C353.099 55.5172 356.468 58.5347 364.397 59.7979L369.731 60.64C374.783 61.4821 376.959 62.7453 376.959 64.9207C376.959 67.3768 373.731 69.1312 369.731 69.1312C365.313 69.1312 361.829 67.0865 360.987 63.7965C360.851 63.267 360.372 62.8658 359.829 62.927L352.405 63.7643C351.89 63.8224 351.506 64.2769 351.575 64.7913Z" fill="white"/>
<path d="M300.668 74.0513C300.668 74.5896 300.232 75.026 299.693 75.026H290.906C290.368 75.026 289.931 74.5896 289.931 74.0513V40.0708C289.931 39.5325 290.368 39.0961 290.906 39.0961H297.8C298.248 39.0961 298.638 39.4018 298.746 39.8368L300.168 45.5857C300.173 45.6073 300.192 45.6225 300.215 45.6225C300.234 45.6225 300.252 45.6105 300.259 45.5924C302.232 40.8387 306.995 38.0435 312.528 38.0435C318.128 38.0435 321.843 40.7671 323.394 45.866C323.4 45.8878 323.421 45.9032 323.443 45.9032C323.463 45.9032 323.481 45.8921 323.49 45.8748C326.229 40.5609 330.994 38.0435 336.458 38.0435C343.545 38.0435 347.756 42.8154 347.756 50.9558V74.0513C347.756 74.5896 347.319 75.026 346.781 75.026H337.994C337.455 75.026 337.019 74.5896 337.019 74.0513V53.3418C337.019 49.4119 334.843 47.0961 331.265 47.0961C326.773 47.0961 324.177 50.3944 324.177 55.3067V74.0513C324.177 74.5896 323.74 75.026 323.202 75.026H314.485C313.947 75.026 313.51 74.5896 313.51 74.0513V53.3418C313.51 49.4119 311.335 47.0961 307.686 47.0961C303.265 47.0961 300.668 50.3944 300.668 55.3067V74.0513Z" fill="white"/>
<path d="M282.431 75.026C282.969 75.026 283.406 74.5896 283.406 74.0513V40.0708C283.406 39.5325 282.969 39.0962 282.431 39.0962H273.714C273.175 39.0962 272.739 39.5325 272.739 40.0708V74.0513C272.739 74.5896 273.175 75.026 273.714 75.026H282.431Z" fill="white"/>
<path d="M241.873 74.0513C241.873 74.5896 241.437 75.026 240.899 75.026H232.111C231.573 75.026 231.137 74.5896 231.137 74.0513V25.8018C231.137 25.2635 231.573 24.8271 232.111 24.8271H240.899C241.437 24.8271 241.873 25.2635 241.873 25.8018V45.5786C241.873 45.6028 241.893 45.6225 241.917 45.6225C241.934 45.6225 241.948 45.6135 241.956 45.5992C244.554 40.7716 248.97 38.0435 254.645 38.0435C262.014 38.0435 266.505 42.6049 266.505 50.2541V74.0513C266.505 74.5896 266.069 75.026 265.53 75.026H256.743C256.205 75.026 255.768 74.5896 255.768 74.0513V53.5523C255.768 49.4821 253.452 46.9558 249.733 46.9558C245.102 46.9558 241.873 50.254 241.873 55.1663V74.0513Z" fill="white"/>
<path d="M178.745 75.0259C179.192 75.0259 179.583 74.7209 179.691 74.2865L189.034 36.708C189.044 36.668 189.08 36.64 189.121 36.64C189.162 36.64 189.198 36.6682 189.208 36.7083L198.413 74.2832C198.519 74.7193 198.91 75.0259 199.359 75.0259H213.369C213.804 75.0259 214.186 74.7378 214.306 74.3197L228.063 26.3042C228.241 25.6814 227.774 25.061 227.126 25.061H216.968C216.522 25.061 216.132 25.3646 216.023 25.7977L206.471 63.7298C206.461 63.7698 206.425 63.7979 206.384 63.7979C206.343 63.7979 206.307 63.7698 206.297 63.7298L196.745 25.7977C196.636 25.3646 196.246 25.061 195.8 25.061H182.304C181.856 25.061 181.466 25.3662 181.358 25.8009L171.945 63.7295C171.935 63.7697 171.899 63.7979 171.857 63.7979C171.816 63.7979 171.78 63.77 171.77 63.7302L162.011 25.7929C161.9 25.3621 161.512 25.061 161.067 25.061H150.975C150.327 25.061 149.86 25.6814 150.038 26.3042L163.796 74.3197C163.915 74.7378 164.298 75.0259 164.733 75.0259H178.745Z" fill="white"/>
<path d="M276.677 21.263C277.439 20.5017 278.673 20.5017 279.434 21.263L284.948 26.7765C285.709 27.5377 285.709 28.772 284.948 29.5332L279.434 35.0467C278.673 35.808 277.439 35.808 276.677 35.0467L271.164 29.5332C270.403 28.772 270.403 27.5377 271.164 26.7765L276.677 21.263Z" fill="white"/>
<path d="M394.472 21.263C395.234 20.5017 396.468 20.5017 397.229 21.263L402.743 26.7765C403.504 27.5377 403.504 28.772 402.743 29.5332L397.229 35.0467C396.468 35.808 395.234 35.808 394.472 35.0467L388.959 29.5332C388.198 28.772 388.198 27.5377 388.959 26.7765L394.472 21.263Z" fill="white"/>
<defs>
<filter id="filter0_d_3309_46" x="23.8636" y="-14.9992" width="129.636" height="129.999" filterUnits="userSpaceOnUse" color-interpolation-filters="sRGB">
<feFlood flood-opacity="0" result="BackgroundImageFix"/>
<feColorMatrix in="SourceAlpha" type="matrix" values="0 0 0 0 0 0 0 0 0 0 0 0 0 0 0 0 0 0 127 0" result="hardAlpha"/>
<feOffset/>
<feGaussianBlur stdDeviation="7.5"/>
<feColorMatrix type="matrix" values="0 0 0 0 0 0 0 0 0 0 0 0 0 0 0 0 0 0 0.3 0"/>
<feBlend mode="normal" in2="BackgroundImageFix" result="effect1_dropShadow_3309_46"/>
<feBlend mode="normal" in="SourceGraphic" in2="effect1_dropShadow_3309_46" result="shape"/>
</filter>
</defs>
</svg>
