<svg width="130" height="24" viewBox="0 0 130 24" fill="none" xmlns="http://www.w3.org/2000/svg">
<path fill-rule="evenodd" clip-rule="evenodd" d="M13.2028 3.50152C12.9567 3.2545 12.5576 3.2545 12.3115 3.50153L4.2896 11.5526C4.04347 11.7997 4.04347 12.2002 4.2896 12.4472L12.3115 20.4983C12.5576 20.7453 12.9567 20.7453 13.2028 20.4983L21.2247 12.4472C21.4708 12.2002 21.4708 11.7997 21.2247 11.5526L13.2028 3.50152ZM13.6485 0.370542C13.1562 -0.123514 12.3581 -0.123514 11.8658 0.370542L1.16998 11.1053C0.677716 11.5994 0.677716 12.4004 1.16998 12.8945L11.8658 23.6293C12.3581 24.1233 13.1562 24.1233 13.6485 23.6293L24.3443 12.8945C24.8366 12.4004 24.8366 11.5994 24.3443 11.1053L13.6485 0.370542Z" fill="#220A33" style="fill:#220A33;fill:color(display-p3 0.1333 0.0392 0.2000);fill-opacity:1;"/>
<mask id="mask0_367_13589" style="mask-type:alpha" maskUnits="userSpaceOnUse" x="0" y="0" width="25" height="24">
<path fill-rule="evenodd" clip-rule="evenodd" d="M13.2018 3.50152C12.9557 3.2545 12.5566 3.2545 12.3105 3.50153L4.28862 11.5526C4.04249 11.7997 4.04249 12.2002 4.28862 12.4472L12.3105 20.4983C12.5566 20.7453 12.9557 20.7453 13.2018 20.4983L21.2237 12.4472C21.4698 12.2002 21.4698 11.7997 21.2237 11.5526L13.2018 3.50152ZM13.6475 0.370542C13.1552 -0.123514 12.3571 -0.123514 11.8648 0.370542L1.169 11.1053C0.676739 11.5994 0.676739 12.4004 1.169 12.8945L11.8648 23.6293C12.3571 24.1233 13.1552 24.1233 13.6475 23.6293L24.3433 12.8945C24.8356 12.4004 24.8356 11.5994 24.3433 11.1053L13.6475 0.370542Z" fill="#220A33" style="fill:#220A33;fill:color(display-p3 0.1333 0.0392 0.2000);fill-opacity:1;"/>
</mask>
<g mask="url(#mask0_367_13589)">
<g filter="url(#filter0_d_367_13589)">
<path d="M20.8316 0.370542C21.3239 -0.123514 22.122 -0.123514 22.6143 0.370542L33.3101 11.1053C33.8024 11.5994 33.8024 12.4004 33.3101 12.8945L22.6143 23.6293C22.122 24.1233 21.3239 24.1233 20.8316 23.6293L10.1358 12.8945C9.64354 12.4004 9.64354 11.5994 10.1358 11.1053L20.8316 0.370542Z" fill="black" style="fill:black;fill-opacity:1;"/>
</g>
</g>
<path d="M20.8326 0.370542C21.3249 -0.123514 22.123 -0.123514 22.6153 0.370542L33.3111 11.1053C33.8034 11.5994 33.8034 12.4004 33.3111 12.8945L22.6153 23.6293C22.123 24.1233 21.3249 24.1233 20.8326 23.6293L10.1368 12.8945C9.64451 12.4004 9.64451 11.5994 10.1368 11.1053L20.8326 0.370542Z" fill="#220A33" style="fill:#220A33;fill:color(display-p3 0.1333 0.0392 0.2000);fill-opacity:1;"/>
<path d="M129.78 18.4673C129.78 18.6119 129.662 18.7292 129.518 18.7292H127.155C127.011 18.7292 126.893 18.6119 126.893 18.4673V4.99476C126.893 4.85007 127.011 4.73278 127.155 4.73278H129.518C129.662 4.73278 129.78 4.85007 129.78 4.99476V18.4673Z" fill="#220A33" style="fill:#220A33;fill:color(display-p3 0.1333 0.0392 0.2000);fill-opacity:1;"/>
<path fill-rule="evenodd" clip-rule="evenodd" d="M119.158 19.0122C117.14 19.0122 115.968 17.9181 115.968 16.2582C115.968 14.5982 117.14 13.391 120.026 13.0892L121.893 12.8628C122.346 12.8251 122.648 12.561 122.648 12.1649C122.648 11.3349 121.931 10.7878 120.893 10.7878C119.836 10.7878 119.072 11.4661 118.865 12.3071C118.829 12.4531 118.693 12.5605 118.545 12.5376L116.25 12.1833C116.113 12.1623 116.016 12.039 116.037 11.903C116.332 10.0299 118.159 8.69404 120.818 8.69404C123.647 8.69404 125.477 10.1842 125.477 12.5987V18.4672C125.477 18.6119 125.36 18.7292 125.215 18.7292H123.355C123.238 18.7292 123.135 18.6515 123.103 18.5388L122.688 17.0794C122.687 17.0734 122.681 17.0693 122.675 17.0693C122.67 17.0693 122.665 17.0721 122.663 17.0766C122.039 18.2233 120.777 19.0122 119.158 19.0122ZM120.252 17.0316C121.61 17.0316 122.591 16.0884 122.591 14.7868V14.6838C122.591 14.5275 122.455 14.406 122.3 14.4234L120.742 14.5982C119.139 14.7868 118.592 15.2961 118.592 15.9186C118.592 16.5788 119.29 17.0316 120.252 17.0316Z" fill="#220A33" style="fill:#220A33;fill:color(display-p3 0.1333 0.0392 0.2000);fill-opacity:1;"/>
<path d="M105.181 13.9003C105.181 16.9938 107.275 19.1065 110.388 19.1065C113.048 19.1065 115.075 17.5223 115.448 15.17C115.47 15.0305 115.37 14.9033 115.23 14.8836L113.068 14.5791C112.922 14.5586 112.79 14.6629 112.76 14.8073C112.518 15.982 111.606 16.7675 110.482 16.7675C109.086 16.7675 108.067 15.6168 108.049 13.9003C108.049 12.1837 108.992 11.0331 110.293 11.0331C111.199 11.0331 111.992 11.6118 112.272 12.695C112.31 12.8441 112.459 12.9427 112.608 12.904L114.714 12.3586C114.848 12.3239 114.933 12.1907 114.899 12.0565C114.394 10.039 112.559 8.69404 110.218 8.69404C107.219 8.69404 105.181 10.8067 105.181 13.9003Z" fill="#220A33" style="fill:#220A33;fill:color(display-p3 0.1333 0.0392 0.2000);fill-opacity:1;"/>
<path d="M104.01 18.4673C104.01 18.6119 103.893 18.7292 103.748 18.7292H101.405C101.26 18.7292 101.143 18.6119 101.143 18.4673V9.33329C101.143 9.1886 101.26 9.0713 101.405 9.0713H103.748C103.893 9.0713 104.01 9.1886 104.01 9.33329V18.4673Z" fill="#220A33" style="fill:#220A33;fill:color(display-p3 0.1333 0.0392 0.2000);fill-opacity:1;"/>
<path d="M90.6236 15.9782C90.8892 17.9716 92.8331 19.0688 95.3343 19.0688C98.1072 19.0688 100.031 17.7861 100.031 15.7866C100.031 14.1832 98.9937 13.3155 96.5604 12.8817L95.1268 12.6364C93.9761 12.4289 93.4857 12.1271 93.4857 11.6367C93.5045 11.0519 94.1836 10.5804 95.089 10.5804C96.0084 10.5804 96.7204 10.9951 96.9231 11.6672C96.9665 11.8111 97.1004 11.9202 97.2491 11.8985L99.1688 11.6179C99.3118 11.597 99.4121 11.4637 99.3783 11.3231C99.0047 9.76734 97.3487 8.73176 95.1834 8.73176C92.7123 8.73176 91.0335 9.939 91.0335 11.9008C91.0335 13.4853 91.9389 14.2964 94.0704 14.6359L95.504 14.8623C96.8622 15.0886 97.4469 15.4282 97.4469 16.0129C97.4469 16.6731 96.5792 17.1447 95.504 17.1447C94.3165 17.1447 93.3802 16.5951 93.1536 15.7108C93.1172 15.5684 92.9884 15.4606 92.8424 15.477L90.847 15.7021C90.7084 15.7177 90.6052 15.8399 90.6236 15.9782Z" fill="#220A33" style="fill:#220A33;fill:color(display-p3 0.1333 0.0392 0.2000);fill-opacity:1;"/>
<path d="M76.94 18.4672C76.94 18.6119 76.8227 18.7292 76.678 18.7292H74.3159C74.1712 18.7292 74.0539 18.6119 74.0539 18.4672V9.33329C74.0539 9.18859 74.1712 9.0713 74.3159 9.0713H76.169C76.2895 9.0713 76.3944 9.15345 76.4233 9.27039L76.8055 10.8157C76.8069 10.8215 76.8121 10.8256 76.8181 10.8256C76.8234 10.8256 76.8281 10.8224 76.8302 10.8175C77.3604 9.53971 78.6408 8.78835 80.1279 8.78835C81.6333 8.78835 82.6318 9.52045 83.0486 10.891C83.0504 10.8969 83.0559 10.901 83.062 10.901C83.0672 10.901 83.072 10.898 83.0744 10.8934C83.8107 9.46502 85.0915 8.78835 86.5602 8.78835C88.4654 8.78835 89.5972 10.071 89.5972 12.2592V18.4672C89.5972 18.6119 89.4799 18.7292 89.3352 18.7292H86.9731C86.8284 18.7292 86.7111 18.6119 86.7111 18.4672V12.9005C86.7111 11.8442 86.1263 11.2217 85.1643 11.2217C83.9571 11.2217 83.2591 12.1083 83.2591 13.4287V18.4672C83.2591 18.6119 83.1419 18.7292 82.9972 18.7292H80.6539C80.5092 18.7292 80.392 18.6119 80.392 18.4672V12.9005C80.392 11.8442 79.8072 11.2217 78.8263 11.2217C77.6379 11.2217 76.94 12.1083 76.94 13.4287V18.4672Z" fill="#220A33" style="fill:#220A33;fill:color(display-p3 0.1333 0.0392 0.2000);fill-opacity:1;"/>
<path d="M72.0379 18.7292C72.1826 18.7292 72.2999 18.6119 72.2999 18.4673V9.33329C72.2999 9.1886 72.1826 9.0713 72.0379 9.0713H69.6947C69.55 9.0713 69.4327 9.1886 69.4327 9.33329V18.4673C69.4327 18.6119 69.55 18.7292 69.6947 18.7292H72.0379Z" fill="#220A33" style="fill:#220A33;fill:color(display-p3 0.1333 0.0392 0.2000);fill-opacity:1;"/>
<path d="M61.136 18.4673C61.136 18.6119 61.0187 18.7292 60.874 18.7292H58.5119C58.3672 18.7292 58.2499 18.6119 58.2499 18.4673V5.49778C58.2499 5.35308 58.3672 5.23579 58.5119 5.23579H60.874C61.0187 5.23579 61.136 5.35308 61.136 5.49778V10.8138C61.136 10.8203 61.1413 10.8256 61.1478 10.8256C61.1522 10.8256 61.1562 10.8232 61.1582 10.8193C61.8566 9.52166 63.0436 8.78836 64.5691 8.78836C66.5497 8.78836 67.757 10.0145 67.757 12.0705V18.4673C67.757 18.6119 67.6397 18.7292 67.495 18.7292H65.1329C64.9882 18.7292 64.8709 18.6119 64.8709 18.4673V12.9571C64.8709 11.863 64.2484 11.184 63.2487 11.184C62.0037 11.184 61.136 12.0705 61.136 13.391V18.4673Z" fill="#220A33" style="fill:#220A33;fill:color(display-p3 0.1333 0.0392 0.2000);fill-opacity:1;"/>
<path d="M44.167 18.7292C44.2873 18.7292 44.3922 18.6472 44.4212 18.5305L46.9327 8.42936C46.9353 8.41862 46.945 8.41109 46.956 8.41109C46.9671 8.41109 46.9768 8.41866 46.9794 8.42944L49.4537 18.5296C49.4824 18.6468 49.5875 18.7292 49.7082 18.7292H53.4739C53.5908 18.7292 53.6936 18.6518 53.7258 18.5394L57.4237 5.63281C57.4717 5.46541 57.346 5.29866 57.1719 5.29866H54.4415C54.3214 5.29866 54.2167 5.38026 54.1874 5.49668L51.6199 15.6928C51.6172 15.7036 51.6075 15.7111 51.5964 15.7111C51.5853 15.7111 51.5757 15.7036 51.5729 15.6928L49.0054 5.49668C48.9761 5.38026 48.8714 5.29866 48.7514 5.29866H45.1238C45.0034 5.29866 44.8985 5.3807 44.8695 5.49754L42.3392 15.6927C42.3365 15.7035 42.3268 15.7111 42.3157 15.7111C42.3046 15.7111 42.295 15.7036 42.2922 15.6929L39.6689 5.49538C39.6391 5.3796 39.5347 5.29866 39.4152 5.29866H36.7026C36.5284 5.29866 36.4028 5.46541 36.4507 5.63281L40.1487 18.5394C40.1809 18.6518 40.2836 18.7292 40.4005 18.7292H44.167Z" fill="#220A33" style="fill:#220A33;fill:color(display-p3 0.1333 0.0392 0.2000);fill-opacity:1;"/>
<path d="M70.4913 4.00894C70.6959 3.80431 71.0277 3.80431 71.2323 4.00894L72.7143 5.49097C72.9189 5.69559 72.9189 6.02736 72.7143 6.23198L71.2323 7.71401C71.0277 7.91864 70.6959 7.91864 70.4913 7.71401L69.0092 6.23198C68.8046 6.02736 68.8046 5.69559 69.0092 5.49097L70.4913 4.00894Z" fill="#220A33" style="fill:#220A33;fill:color(display-p3 0.1333 0.0392 0.2000);fill-opacity:1;"/>
<path d="M102.155 4.00894C102.359 3.80431 102.691 3.80431 102.896 4.00894L104.378 5.49097C104.582 5.69559 104.582 6.02736 104.378 6.23198L102.896 7.71401C102.691 7.91864 102.359 7.91864 102.155 7.71401L100.673 6.23198C100.468 6.02736 100.468 5.69559 100.673 5.49097L102.155 4.00894Z" fill="#220A33" style="fill:#220A33;fill:color(display-p3 0.1333 0.0392 0.2000);fill-opacity:1;"/>
<defs>
<filter id="filter0_d_367_13589" x="6.1666" y="-3.6" width="31.1131" height="31.2" filterUnits="userSpaceOnUse" color-interpolation-filters="sRGB">
<feFlood flood-opacity="0" result="BackgroundImageFix"/>
<feColorMatrix in="SourceAlpha" type="matrix" values="0 0 0 0 0 0 0 0 0 0 0 0 0 0 0 0 0 0 127 0" result="hardAlpha"/>
<feOffset/>
<feGaussianBlur stdDeviation="1.8"/>
<feColorMatrix type="matrix" values="0 0 0 0 0 0 0 0 0 0 0 0 0 0 0 0 0 0 1 0"/>
<feBlend mode="normal" in2="BackgroundImageFix" result="effect1_dropShadow_367_13589"/>
<feBlend mode="normal" in="SourceGraphic" in2="effect1_dropShadow_367_13589" result="shape"/>
</filter>
</defs>
</svg>
