<svg fill="none" height="30" viewBox="0 0 69 30" width="69" xmlns="http://www.w3.org/2000/svg"><g clip-rule="evenodd" fill="currentColor" fill-rule="evenodd"><path d="m42.6136 22.1291c-3.9917 2.9315-9.7774 4.4956-14.7588 4.4956-6.9847 0-13.2727-2.574-18.02986-6.8551-.37376-.3367-.03888-.7955.40966-.5333 5.1339 2.9762 11.4817 4.7667 18.0388 4.7667 4.4223 0 9.2871-.9116 13.7602-2.8034.6757-.286 1.2408.4409.58.9295z"/><path d="m44.2731 20.2373c-.5083-.6494-3.3727-.3068-4.6584-.1549-.3917.0477-.4515-.2919-.0987-.5362 2.2814-1.5999 6.0249-1.1381 6.4614-.6018.4366.5392-.1136 4.2781-2.2574 6.0626-.3289.2741-.6429.1281-.4964-.2353.4814-1.1977 1.5608-3.8819 1.0495-4.5344z"/><path d="m39.7047 8.25227v-1.55514c0-.23535.1794-.39325.3947-.39325h6.9877c.2242 0 .4036.16088.4036.39325v1.3317c-.003.22344-.1914.5154-.5262.97718l-3.621 5.15099c1.3455-.0327 2.7658.1669 3.9857.8521.2751.1549.3499.3813.3708.6048v1.6594c0 .2264-.2511.4915-.5143.3545-2.1498-1.1232-5.0053-1.2453-7.3824.0119-.2422.1311-.4963-.1311-.4963-.3575v-1.576c0-.2532.003-.6852.2571-1.0695l4.195-5.99415h-3.6508c-.2242 0-.4036-.1579-.4036-.39028z"/><path d="m14.2146 17.9555h-2.1259c-.2033-.0149-.3648-.1668-.3797-.3604v-10.87113c0-.21748.1824-.39028.4096-.39028h1.9824c.2063.00893.3708.16684.3857.36346v1.42108h.0389c.5173-1.37341 1.489-2.01394 2.7987-2.01394 1.3305 0 2.1618.64053 2.7598 2.01394.5142-1.37341 1.6834-2.01394 2.9362-2.01394.891 0 1.8658.36644 2.4608 1.1887.6727.91462.5352 2.24334.5352 3.40821l-.003 6.8611c0 .2175-.1824.3932-.4096.3932h-2.123c-.2122-.0149-.3827-.1847-.3827-.3932v-5.7618c0-.4588.0419-1.6028-.0598-2.03775-.1585-.7299-.6339-.93547-1.2498-.93547-.5143 0-1.0525.34261-1.2708.89078-.2183.54814-.1973 1.46574-.1973 2.08244v5.7618c0 .2175-.1824.3932-.4097.3932h-2.1229c-.2153-.0149-.3827-.1847-.3827-.3932l-.003-5.7618c0-1.2125.2003-2.99705-1.3096-2.99705-1.5279 0-1.4681 1.73985-1.4681 2.99705v5.7618c0 .2175-.1824.3932-.4097.3932z"/><path d="m53.5066 6.10429c3.1545 0 4.8618 2.69916 4.8618 6.13121 0 3.3158-1.8868 5.9465-4.8618 5.9465-3.0977 0-4.7841-2.6992-4.7841-6.0627 0-3.38438 1.7073-6.01501 4.7841-6.01501zm.0179 2.21951c-1.5668 0-1.6654 2.1271-1.6654 3.4529 0 1.3287-.021 4.1649 1.6475 4.1649 1.6475 0 1.7252-2.288 1.7252-3.6823 0-.9176-.0389-2.0139-.3169-2.88385-.2392-.75671-.7146-1.05165-1.3904-1.05165z"/><path d="m62.4588 17.9555h-2.1169c-.2123-.0149-.3828-.1847-.3828-.3932l-.0029-10.87408c.0179-.19961.1943-.35453.4096-.35453h1.9704c.1854.00893.3379.13407.3797.30388v1.66239h.0389c.595-1.48662 1.4293-2.19567 2.8974-2.19567.9538 0 1.8837.34261 2.4817 1.28106.5561.86992.5561 2.33271.5561 3.38435v6.8432c-.0239.1907-.2003.3426-.4096.3426h-2.1319c-.1944-.0149-.3558-.1579-.3767-.3426v-5.9047c0-1.1887.1375-2.92859-1.3306-2.92859-.5173 0-.9927.34559-1.2289.86993-.299.66436-.3379 1.32576-.3379 2.05866v5.8541c-.003.2175-.1884.3932-.4156.3932z"/><path d="m34.1343 12.7628c0 .8252.0209 1.5134-.3977 2.2463-.3379.5958-.8761.9623-1.4711.9623-.8163 0-1.2947-.6197-1.2947-1.5343 0-1.8054 1.6236-2.1331 3.1635-2.1331zm2.1438 5.1629c-.1405.1252-.3438.1341-.5023.0507-.7057-.5839-.8342-.8551-1.2199-1.4122-1.1662 1.1858-1.9944 1.5403-3.5044 1.5403-1.791 0-3.1814-1.0993-3.1814-3.301 0-1.719.9329-2.8898 2.2665-3.4618 1.1541-.5065 2.7658-.5958 3.9977-.7359v-.274c0-.50353.0388-1.09937-.2602-1.53433-.2571-.39028-.7535-.55115-1.193-.55115-.8103 0-1.5309.4141-1.7073 1.27211-.0359.19067-.1764.37836-.3708.3873l-2.0601-.22046c-.1734-.03873-.3678-.17875-.3169-.4439.4724-2.49061 2.7328-3.24137 4.7541-3.24137 1.0346 0 2.386.27409 3.2023 1.05464 1.0346.96228.9359 2.24631.9359 3.64356v3.3009c0 .9921.4126 1.4271.8013 1.9633.1346.1907.1645.4201-.0089.5631-.4336.3605-1.205 1.0308-1.6296 1.4062z"/><path d="m6.26411 12.7628c0 .8252.02093 1.5134-.39767 2.2463-.33788.5958-.87309.9623-1.4711.9623-.81628 0-1.29169-.6197-1.29169-1.5343 0-1.8054 1.62359-2.1331 3.16046-2.1331zm2.14385 5.1629c-.14053.1251-.34385.1341-.50232.0507-.70565-.584-.83123-.8551-1.21994-1.4122-1.16611 1.1858-1.99135 1.5403-3.50431 1.5403-1.78804 0-3.18139-1.0993-3.18139-3.301 0-1.719.935879-2.8898 2.26644-3.4618 1.15415-.5065 2.76578-.5958 3.99767-.7359v-.274c0-.50353.03887-1.09937-.25714-1.53433-.26013-.39028-.75648-.55116-1.19302-.55116-.8103 0-1.53389.41411-1.7103 1.27212-.03588.19067-.17641.37836-.36777.3873l-2.063123-.22046c-.173422-.03873-.364785-.17876-.316944-.4439.475415-2.49061 2.732887-3.24137 4.754147-3.24137 1.03455 0 2.38604.27409 3.20232 1.05464 1.03455.96228.93588 2.24631.93588 3.64356v3.3009c0 .9921.41263 1.4271.80134 1.9633.1375.1907.1674.4201-.006.5631-.43355.3605-1.20497 1.0308-1.62956 1.4062z"/></g></svg>