<svg fill="none" height="30" viewBox="0 0 93 30" width="93" xmlns="http://www.w3.org/2000/svg"><g fill="currentColor"><path d="m33.7304 20.9023v-4.7859h-4.2094v4.7859h-2.1433v-11.34856h2.1433v4.66806h4.2094v-4.66806h2.1432v11.34856zm10.0004 0h-1.7018l-.1543-.5615c-.7355.4779-1.5939.733-2.4711.733-1.5175 0-2.1647-1.0395-2.1647-2.4712 0-1.6868.733-2.334 2.4197-2.334h1.9932v-.8702c0-.9195-.255-1.2431-1.5838-1.2431-.7729.0053-1.5432.0879-2.2997.2465l-.2551-1.5839c.9272-.2565 1.8844-.3885 2.8463-.3922 2.6062 0 3.3734.9195 3.3734 3.0006zm-2.079-3.1356h-1.5324c-.6815 0-.868.1865-.868.8187 0 .5787.1865.8359.8359.8359.5499-.0086 1.0887-.1565 1.5667-.4287zm6.1019 3.3049c-.973-.0161-1.9379-.177-2.8634-.4779l.2893-1.5839c.8038.23 1.6353.3504 2.4712.3579.9195 0 1.0566-.2143 1.0566-.8359 0-.51-.1028-.7672-1.4488-1.0909-2.0275-.4951-2.2654-1.0052-2.2654-2.6062 0-1.6696.733-2.4026 3.1013-2.4026.838.0009 1.6728.098 2.4883.2894l-.2143 1.6524c-.7534-.1393-1.5166-.2186-2.2826-.2379-.9023 0-1.0566.2144-1.0566.7159 0 .6644.0514.7158 1.1766 1.0052 2.3233.6151 2.5462.9216 2.5462 2.6169 0 1.6096-.4951 2.5976-2.9984 2.5976zm9.1838-.1693v-5.7868c0-.4437-.1864-.6644-.6644-.6644-.5101 0-1.4145.3065-2.1647.6987v5.7525h-2.0789v-11.68933l2.0789-.28934v4.31007c.9409-.4831 1.9761-.7566 3.0328-.8016 1.3802 0 1.8732.9709 1.8732 2.4541v6.0161zm3.6114-9.4732v-2.4026h2.079v2.4026zm0 9.4732v-8.2987h2.079v8.2987zm3.5278-8.2301c0-2.079 1.2088-3.28777 4.0379-3.28777 1.0395 0 2.0751.12581 3.0842.37507l-.2358 1.8561c-.919-.1743-1.8511-.271-2.7862-.2894-1.4832 0-1.959.5123-1.959 1.7146v4.3616c0 1.2087.478 1.7146 1.959 1.7146.9351-.0185 1.8672-.1151 2.7862-.2894l.2379 1.8582c-1.009.2493-2.0446.3751-3.0841.3751-2.8291 0-4.0379-1.2088-4.0379-3.2878zm11.3872 8.3994c-2.8463 0-3.6114-1.5667-3.6114-3.2706v-2.0961c0-1.7039.7673-3.2706 3.6114-3.2706s3.6113 1.5667 3.6113 3.2706v2.0961c-.0064 1.7039-.7715 3.2706-3.6113 3.2706zm0-6.8584c-1.1081 0-1.5325.4951-1.5325 1.4317v2.2247c0 .9366.4287 1.4317 1.5325 1.4317 1.1037 0 1.5324-.4951 1.5324-1.4317v-2.2333c-.0043-.9366-.4308-1.4317-1.5324-1.4317zm9.126.1286c-.7631.3457-1.4982.7501-2.199 1.2088v5.3581h-2.079v-8.3051h1.7553l.1372.9195c.6762-.4578 1.4098-.8248 2.1818-1.091zm7.8828 3.8c0 1.841-.8187 2.9298-2.7433 2.9298-.7448-.008-1.487-.0883-2.2161-.24v3.4292l-2.079.2893v-11.9465h1.6524l.2144.6987c.7574-.5658 1.6781-.8702 2.6233-.868 1.6696 0 2.5548.988 2.5548 2.8805zm-4.9573.9366c.6048.1329 1.2217.2049 1.8411.2143.7501 0 1.0394-.3579 1.0394-1.1081v-2.9255c0-.6816-.255-1.0566-1.0223-1.0566-.688.0248-1.346.2902-1.8582.7501z"/><path d="m10.7177 2.5-9.8427 5.67845v13.63605l3.69808 2.1349v-13.6361l6.14462-3.54867"/><path d="m14.6451 2.5v10.8599h-3.9272v-4.05349l-3.69811 2.13489v13.9141l3.69811 2.1401v-10.829h3.9272v4.0252l3.6981-2.1324v-13.92441"/><path d="m14.645 27.5 9.8427-5.6785v-13.63597l-3.6981-2.13489v13.63606l-6.1446 3.5487"/></g></svg>