<svg fill="none" height="30" viewBox="0 0 104 30" width="104" xmlns="http://www.w3.org/2000/svg"><g fill="currentColor"><g clip-rule="evenodd" fill-rule="evenodd"><path d="m36.3769 18.8549c0 .445-.3261.8108-.7902.8108-.4515 0-.7777-.3666-.7777-.8108v-7.7308c0-.445.3262-.8108.7903-.8108.4515 0 .7776.3666.7776.8108z"/><path d="m46.5118 11.1241v7.0641c0 .955-.489 1.4917-1.2667 1.4917h-.0623c-.7399 0-1.0916-.445-1.4049-1.0992l-1.5806-3.205-1.4049-3.3092.0378 3.2051.0126 3.5708c0 .445-.3258.8108-.7902.8108-.4515 0-.7774-.3667-.7774-.8108v-7.0642c0-.8766.489-1.4916 1.3422-1.4916h.0627c.7903 0 1.1161.445 1.4301 1.0991l1.555 3.1792 1.3297 3.0875-.0375-2.9567-.0126-3.5708c0-.445.3259-.8108.7903-.8108.4505-.0009.7767.365.7767.81z"/><path d="m52.7966 18.8424c0 .445-.3259.8108-.7903.8108-.4512 0-.7774-.3666-.7774-.8108v-6.9983h-1.9442c-.4011 0-.727-.3142-.727-.7717 0-.445.3259-.7583.727-.7583h5.4561c.4011 0 .7273.3142.7273.7716 0 .4451-.3262.7584-.7273.7584h-1.9442z"/><path d="m57.5128 18.5808v-7.26c0-.68.3636-1.0591 1.0286-1.0333h4.5157c.4011 0 .7269.3266.7269.7717 0 .445-.3258.7583-.7269.7583h-3.9893v2.25h3.5248c.3892 0 .7025.3008.7025.7325 0 .4316-.3133.7325-.7025.7325h-3.5248v2.59h3.9893c.4011 0 .7269.3267.7269.7716 0 .445-.3258.7584-.7269.7584h-4.5535c-.652.0008-1.0153-.3784-.9908-1.0717z"/><path d="m72.327 19.6924c.4389-.2358.5772-.7199.3637-1.0991l-1.568-2.9033c1.2922-.2617 2.045-1.2559 2.045-2.6034 0-1.4124-.8526-2.7991-2.8976-2.7991h-2.9726c-.6646-.0258-1.0283.3533-1.0283 1.0333v7.535c0 .4442.3259.8108.7774.8108.4644 0 .7903-.3658.7903-.8108l-.0126-2.8517h1.6555l1.7437 3.3617c.2124.3791.6769.5492 1.1035.3266zm-2.0202-5.1674h-2.4836v-2.7083h2.471c.8278 0 1.2922.5491 1.2922 1.3475 0 .7983-.4389 1.3608-1.2796 1.3608z"/><path d="m76.4031 18.9599c-.9404-.8767-1.3671-2.25-1.3671-3.9766 0-1.74.4141-3.1 1.3426-3.9634.5768-.5233 1.3541-.8766 2.4836-.8766.9909 0 1.7563.2358 2.3331.7458.5019.4183.8655 1.0075 1.0787 1.8317.1127.4316-.1757.8633-.6521.9549-.4515.0784-.8148-.2224-.953-.6541-.1505-.4183-.3518-.7192-.5898-.9292-.3262-.3008-.7272-.4316-1.2547-.4316-.5642 0-1.0538.17-1.4175.5491-.5267.5492-.7528 1.5309-.7528 2.7734 0 1.2299.2135 2.2108.7654 2.76.3637.3791.8407.5491 1.3923.5491.5768 0 1.0157-.1567 1.38-.51.1876-.1833.3514-.4183.4641-.6933.1631-.4059.5019-.7067.9405-.6017.4389.105.7154.5492.5771.9809-.2261.7191-.6146 1.295-1.1413 1.6874-.5768.4317-1.2919.6542-2.1949.6542-1.1539 0-1.8819-.3533-2.4342-.85z"/><path d="m87.9186 10.1433c-2.7223 0-3.8762 1.91-3.8762 4.84 0 3.0216 1.142 4.8399 3.8762 4.8399 2.6841 0 3.8636-1.8183 3.8636-4.8399 0-2.9825-1.1665-4.84-3.8636-4.84zm-.0126 1.5308c1.4927 0 2.2701 1.085 2.2701 3.3092 0 2.2233-.7903 3.3091-2.2701 3.3091-1.4928 0-2.2456-1.085-2.2456-3.3091 0-2.2234.7777-3.3092 2.2456-3.3092z"/><path d="m103.95 18.8423c0 .4451-.327.8109-.791.8109-.451 0-.777-.3667-.777-.8109v-3.5057l.037-3.4142-1.091 3.4667-1.104 3.4141c-.187.6017-.5767.8375-1.066.8375-.5145 0-.8907-.2483-1.0913-.85l-1.1291-3.4008-1.0412-3.4142.0374 3.3617v3.5058c0 .445-.3262.8108-.7903.8108-.4515 0-.7773-.3666-.7773-.8108v-6.9983c0-.9683.5015-1.5308 1.3797-1.5308.8281 0 1.2922.4575 1.555 1.295l1.154 3.5708.7024 2.4333.7151-2.4333 1.1536-3.5708c.264-.8375.716-1.295 1.543-1.295.879 0 1.368.5491 1.368 1.5308z"/></g><path d="m22.1487 16.3198c0 .234-.0896.4584-.2491.6239-.1596.1654-.376.2584-.6016.2584-.2257 0-.4421-.093-.6017-.2584-.1595-.1655-.2492-.3899-.2492-.6239v-7.88225c0-.23401.0897-.45843.2492-.62388.1596-.16547.376-.25843.6017-.25843.2256 0 .442.09296.6016.25843.1595.16545.2491.38987.2491.62388zm-.2953 5.4614c-.1125.1167-3.2766 2.8511-9.0774 2.8511-5.80092 0-8.9439-2.7198-9.0775-2.8365-.08421-.0736-.15354-.1637-.20408-.2652s-.08124-.2123-.09041-.3261c-.00913-.1138.00347-.2284.0371-.3371.03364-.1087.08764-.2095.15894-.2966.14686-.1762.3549-.285.57882-.3028.22393-.0178.44555.057.61649.208.04925.0365 2.87583 2.4135 7.97354 2.4135 5.0977 0 7.9454-2.3916 7.9736-2.4135.1728-.1496.3952-.2234.6197-.2057s.4336.1255.5826.3005c.1435.1736.2151.3988.1993.6269-.0158.228-.1177.4403-.2836.5908zm-18.45726-13.34365c.0127-.23475.11452-.45472.28318-.61187.16863-.15711.39043-.23863.61684-.22669.20989.01235.40796.10489.55597.25973.14802.15484.23552.36102.24559.57883v7.86765c0 .234-.08963.4584-.24919.6239-.15953.1655-.37594.2584-.60158.2584s-.44205-.0929-.60161-.2584c-.15957-.1655-.2492-.3899-.2492-.6239zm4.26802-1.75c.01274-.23474.11452-.45471.28318-.61186.16863-.15712.39042-.23863.61684-.2267.20989.01236.40796.1049.55597.25974s.23551.36102.24559.57882v11.66665c0 .2339-.08963.4584-.24916.6238-.15956.1655-.37597.2584-.60161.2584-.22565 0-.44205-.0929-.60161-.2584-.15957-.1654-.2492-.3899-.2492-.6238zm4.28914-.43749c0-.23401.0896-.45843.2492-.62388.1595-.16548.3759-.25844.6016-.25844.2256 0 .442.09296.6016.25844.1595.16545.2492.38987.2492.62388v12.68744c0 .234-.0897.4584-.2492.6238-.1596.1655-.376.2585-.6016.2585-.2257 0-.4421-.093-.6016-.2585-.1596-.1654-.2492-.3898-.2492-.6238zm4.2188.43749c0-.234.0896-.45842.2492-.62387.1596-.16548.376-.25844.6016-.25844s.4421.09296.6016.25844c.1595.16545.2492.38987.2492.62387v11.66665c0 .2339-.0897.4584-.2492.6238-.1595.1655-.376.2584-.6016.2584s-.442-.0929-.6016-.2584c-.1596-.1654-.2492-.3899-.2492-.6238zm6.2087-4.81248h-19.18154c-.41796-.0029-.83236.07973-1.21946.24318-.38713.16342-.73934.40443-1.036519.70921-.297184.30481-.533468.66737-.695307 1.067-.1618744.39959-.24611901.82841-.247974 1.26185v19.68739c.00185499.4334.0860996.8623.247974 1.2618.161839.3997.398123.7622.695307 1.0671.297179.3047.649389.5457 1.036519.7092.3871.1634.8015.2459 1.21946.2431h19.18154c.4174.0028.8312-.0795 1.2178-.2424.3867-.163.7386-.4034 1.0357-.7074s.5335-.6657.6958-1.0645c.1622-.3988.2472-.8268.2499-1.2596v-19.69469c-.0018-.43284-.0858-.86103-.2473-1.26017-.1614-.39914-.397-.76139-.6935-1.06609-.2964-.30468-.6478-.54583-1.0341-.7097s-.7999-.2472-1.2173-.24528"/></g></svg>