<svg width="138" height="30" viewBox="0 0 138 30" fill="none" xmlns="http://www.w3.org/2000/svg">
<path fill-rule="evenodd" clip-rule="evenodd" d="M15 0C6.73846 0 0 6.73846 0 15C0 23.2615 6.73846 30 15 30C23.2615 30 30 23.2615 30 15C30 6.73846 23.2615 0 15 0ZM15 0.692308C18.7385 0.692308 22.2 2.16923 24.7385 4.52308H5.26154C7.8 2.16923 11.2615 0.692308 15 0.692308ZM29.3077 15C29.3077 18.7846 27.8308 22.2 25.4769 24.7385V5.26154C27.8308 7.8 29.3077 11.2154 29.3077 15ZM15 29.3077C11.2615 29.3077 7.8 27.8308 5.26154 25.4769H24.7385C22.2 27.8308 18.7385 29.3077 15 29.3077ZM4.52308 5.26154V24.7385C2.12308 22.2 0.692308 18.7846 0.692308 15C0.692308 11.2154 2.16923 7.8 4.52308 5.26154ZM5.26154 24.7385H24.7385V5.26154H5.26154V24.7385Z" fill="currentColor" style="fill:currentColor;fill-opacity:1;"/>
<path d="M39.3281 9.46191V20.4927H40.1589V9.46191H39.3281Z" fill="currentColor" style="fill:currentColor;fill-opacity:1;"/>
<path d="M46.5234 20.4927V9.46191H47.4004L53.5388 17.6311C53.585 17.7235 53.6773 17.8158 53.7696 17.9542L53.8157 18.0004C53.9081 18.1388 54.0004 18.2311 54.0927 18.3696L54.185 18.4619L54.2311 18.5081C54.2773 18.6004 54.3696 18.6927 54.4157 18.7388H54.4619V9.46191H55.3388V20.4927H54.6465L48.4157 12.0927C48.3234 12.0004 48.2311 11.8158 48.0465 11.585C47.9081 11.4004 47.7696 11.1696 47.6311 10.985L47.5388 10.8927H47.4927V20.4465H46.5234V20.4927Z" fill="currentColor" style="fill:currentColor;fill-opacity:1;"/>
<path d="M60.2812 9.46191L64.5274 20.4927H65.6812L69.9274 9.46191H69.0043L65.9582 17.5388C65.8659 17.7235 65.8197 17.9542 65.6812 18.2311C65.5889 18.5081 65.4966 18.7388 65.4043 19.0158C65.312 19.2465 65.2197 19.4773 65.1736 19.6619H65.0812C65.0351 19.4773 64.9428 19.2465 64.8505 19.0158C64.7582 18.785 64.6659 18.5081 64.5736 18.2773C64.4812 18.0004 64.3889 17.7696 64.2966 17.585L61.2043 9.50807H60.2812V9.46191Z" fill="currentColor" style="fill:currentColor;fill-opacity:1;"/>
<path d="M74.8594 9.46191H75.7363V20.4927H74.8594V9.46191Z" fill="currentColor" style="fill:currentColor;fill-opacity:1;"/>
<path d="M84.4177 20.5379C84.9715 20.6302 85.5254 20.6764 86.1254 20.6764C87.0023 20.6764 87.7407 20.5841 88.3869 20.3533C89.0331 20.1225 89.5407 19.7994 89.91 19.2918C90.2792 18.8302 90.4638 18.2302 90.4638 17.4918C90.4638 16.9841 90.3715 16.5687 90.1407 16.1994C89.91 15.8764 89.6331 15.5533 89.2638 15.3225C88.8946 15.0918 88.4792 14.9071 88.0177 14.7687C87.5561 14.6302 87.0946 14.4918 86.5869 14.3533C86.0792 14.2148 85.6177 14.1225 85.1561 13.9841C84.6946 13.8456 84.2792 13.7071 83.91 13.5225C83.5407 13.3379 83.2638 13.1533 83.0331 12.8764C82.8023 12.5994 82.71 12.2764 82.71 11.861C82.71 11.5379 82.8484 11.2148 83.0792 10.9379C83.31 10.661 83.6792 10.4302 84.2331 10.2456C84.7407 10.061 85.4331 9.96867 86.2638 9.96867C86.8177 9.96867 87.3254 10.061 87.7869 10.2456C88.2484 10.4302 88.6177 10.661 88.8484 10.9841C89.1254 11.3071 89.2638 11.6764 89.2638 12.0918V12.461H90.1407V12.2764C90.1407 11.7687 90.0484 11.3071 89.8177 10.9379C89.6331 10.5687 89.31 10.2456 88.9869 10.0148C88.6177 9.78406 88.2023 9.59944 87.7408 9.46098C87.2792 9.32252 86.7254 9.27637 86.1715 9.27637C85.3869 9.27637 84.6946 9.36867 84.1407 9.50714C83.5869 9.6456 83.1254 9.83021 82.8023 10.1071C82.4792 10.3841 82.2484 10.661 82.0638 10.9841C81.9254 11.3071 81.8331 11.6764 81.8331 12.0918C81.8331 12.5533 81.9254 12.9687 82.1561 13.2918C82.3869 13.6148 82.6638 13.8918 83.0331 14.1225C83.4023 14.3533 83.8177 14.5379 84.2792 14.6764C84.7408 14.8148 85.2023 14.9533 85.71 15.0918C86.2177 15.2302 86.6792 15.3225 87.1407 15.461C87.6023 15.5994 88.0177 15.7379 88.3869 15.9225C88.7561 16.1071 89.0331 16.3379 89.2638 16.6148C89.4946 16.8918 89.5869 17.261 89.5869 17.6764C89.5869 18.0918 89.4946 18.461 89.31 18.7379C89.1254 19.0148 88.8484 19.2456 88.5715 19.3841C88.2484 19.5687 87.9254 19.661 87.6023 19.7533C87.2792 19.8456 86.9561 19.8918 86.6792 19.8918C86.4023 19.8918 86.1715 19.9379 86.0331 19.9379C85.3869 19.9379 84.7869 19.8456 84.2331 19.7071C83.6792 19.5687 83.2638 19.2918 82.9407 18.9225C82.6177 18.5533 82.4792 18.1379 82.4792 17.6302C82.4792 17.5841 82.4792 17.4918 82.4792 17.3994C82.4792 17.3071 82.4792 17.261 82.5254 17.2148H81.6484C81.6484 17.3071 81.6484 17.3533 81.6484 17.3994V17.5379C81.6484 18.1841 81.7869 18.6918 82.0177 19.1071C82.2484 19.5225 82.6177 19.8456 83.0331 20.0764C83.3561 20.3071 83.8638 20.4456 84.4177 20.5379Z" fill="currentColor" style="fill:currentColor;fill-opacity:1;"/>
<path d="M96.2812 9.46191H97.1582V20.4927H96.2812V9.46191Z" fill="currentColor" style="fill:currentColor;fill-opacity:1;"/>
<path fill-rule="evenodd" clip-rule="evenodd" d="M103.523 9.46145V20.4922H108.877C109.523 20.4922 110.123 20.3999 110.631 20.2153C111.139 20.0307 111.554 19.7076 111.831 19.2922C112.108 18.8768 112.247 18.2768 112.247 17.4922C112.247 16.8922 112.154 16.3845 111.97 16.0153C111.785 15.6461 111.554 15.3691 111.231 15.1384C110.908 14.9538 110.585 14.7691 110.216 14.723V14.6768C110.585 14.5384 110.862 14.3538 111.139 14.123C111.416 13.8922 111.6 13.5691 111.739 13.1999C111.877 12.8307 111.97 12.4614 111.97 12.0461C111.97 11.4922 111.831 11.0307 111.6 10.6153C111.37 10.1999 111 9.92299 110.585 9.69222C110.123 9.46145 109.57 9.36914 108.923 9.36914H103.523V9.46145ZM108.831 14.4461H104.4V10.2461H108.97C109.57 10.2461 110.077 10.4307 110.493 10.7538C110.862 11.0768 111.047 11.5845 111.047 12.2768C111.047 12.7384 110.954 13.1076 110.77 13.4307C110.585 13.7538 110.308 14.0307 109.985 14.1691C109.616 14.3538 109.247 14.4461 108.831 14.4461ZM109.108 19.7538H104.4V15.2307H109.016C109.523 15.2307 109.939 15.323 110.308 15.4614C110.677 15.5999 110.908 15.8768 111.093 16.1999C111.277 16.523 111.37 16.9845 111.37 17.4922C111.37 18.323 111.185 18.923 110.77 19.2461C110.308 19.5691 109.754 19.7538 109.108 19.7538Z" fill="currentColor" style="fill:currentColor;fill-opacity:1;"/>
<path d="M117.828 20.4927V9.46191H118.705V19.7081H124.151V20.4927H117.828Z" fill="currentColor" style="fill:currentColor;fill-opacity:1;"/>
<path d="M129 9.46191V20.4927H137.446V19.7081H129.831V15.2311H136.615V14.4465H129.831V10.2465H137.354V9.46191H129Z" fill="currentColor" style="fill:currentColor;fill-opacity:1;"/>
</svg>
