<svg width="113" height="30" viewBox="0 0 113 30" fill="none" xmlns="http://www.w3.org/2000/svg">
<path d="M26.4844 9.08229H28.9248L29.1487 10.1346H29.2607C29.2607 10.1346 30.2234 8.8584 32.2385 8.8584C34.6789 8.8584 36.4925 10.6496 36.4925 13.4035V19.8517H33.8281V13.6274C33.8281 12.2616 32.8654 11.2989 31.4996 11.2989C30.1339 11.2989 29.1711 12.2392 29.1711 13.6274V19.8517H26.5068L26.4844 9.08229Z" fill="currentColor" style="fill:currentColor;fill-opacity:1;"/>
<path d="M48.6715 16.6723C48.47 17.5231 47.0819 20.0532 43.6787 20.0532C40.4993 20.0532 38.1484 17.7247 38.1484 14.4558C38.1484 11.1869 40.477 8.8584 43.6787 8.8584C46.6565 8.8584 48.985 11.1869 48.985 14.2319C48.985 14.5901 48.9626 14.9484 48.873 15.2842H40.7904C41.0143 16.7619 42.1786 17.8142 43.6563 17.8142C44.9325 17.8142 45.6713 17.0754 45.8952 16.65L48.6715 16.6723ZM46.343 13.5154C46.1415 12.1497 45.1788 11.0974 43.6787 11.0974C42.089 11.0974 41.1262 12.1497 40.8128 13.5154H46.343Z" fill="currentColor" style="fill:currentColor;fill-opacity:1;"/>
<path d="M49.5469 9.08203H52.3008L54.1143 16.1571H54.2711L56.0846 9.08203H58.7938L60.6073 16.1571H60.764L62.5776 9.08203H65.3315L62.5776 19.8514H59.3535L57.5399 12.8883H57.3832L55.5921 19.8514H52.3456L49.5469 9.08203Z" fill="currentColor" style="fill:currentColor;fill-opacity:1;"/>
<path d="M70.5938 9.08203H72.8327L73.0342 10.0224H73.1462C73.3701 9.73133 73.6611 9.48504 73.997 9.32832C74.3328 9.17159 74.691 9.08203 75.0717 9.08203H76.93V11.612H75.2956C73.9074 11.612 73.2805 12.239 73.2805 13.6047V19.829H70.6161V9.08203H70.5938Z" fill="currentColor" style="fill:currentColor;fill-opacity:1;"/>
<path d="M87.7653 16.6723C87.5414 17.5231 86.1756 20.0532 82.7724 20.0532C79.5931 20.0532 77.2422 17.7247 77.2422 14.4558C77.2422 11.1869 79.5707 8.8584 82.7724 8.8584C85.7502 8.8584 88.0787 11.1869 88.0787 14.2319C88.0787 14.5901 88.0563 14.9484 87.9668 15.2842H79.8842C80.108 16.7619 81.2723 17.8142 82.75 17.8142C84.0262 17.8142 84.7651 17.0754 84.989 16.65L87.7653 16.6723ZM85.4368 13.5154C85.2353 12.1497 84.2725 11.0974 82.7724 11.0974C81.1827 11.0974 80.22 12.1497 79.9065 13.5154H85.4368Z" fill="currentColor" style="fill:currentColor;fill-opacity:1;"/>
<path d="M95.1094 5.07422H97.7737V7.42512H95.1094V5.07422ZM95.1094 9.08195H97.7737V19.8513H95.1094V9.08195Z" fill="currentColor" style="fill:currentColor;fill-opacity:1;"/>
<path d="M110.182 15.8439C109.868 17.5232 108.48 20.0532 105.077 20.0532C101.898 20.0532 99.5469 17.7247 99.5469 14.4558C99.5469 11.1869 101.875 8.8584 105.077 8.8584C108.48 8.8584 109.846 11.3884 110.182 12.9781H107.518C107.316 12.3512 106.667 11.2989 105.077 11.2989C103.487 11.2989 102.211 12.5751 102.211 14.4558C102.211 16.3365 103.487 17.6127 105.077 17.6127C106.667 17.6127 107.316 16.5604 107.518 15.8215H110.182V15.8439Z" fill="currentColor" style="fill:currentColor;fill-opacity:1;"/>
<path d="M88.5078 5.07422V7.42512H90.0079V19.8513H92.6723V5.07422H88.5078Z" fill="currentColor" style="fill:currentColor;fill-opacity:1;"/>
<path d="M110.602 18.8439C110.602 18.5977 110.669 18.3738 110.825 18.1946C110.96 17.9931 111.139 17.8588 111.363 17.7692C111.587 17.6797 111.833 17.6573 112.057 17.7021C112.281 17.7469 112.505 17.8588 112.661 18.0379C112.818 18.217 112.93 18.4185 112.975 18.6424C113.02 18.8663 112.997 19.1126 112.908 19.3365C112.818 19.5604 112.661 19.7395 112.46 19.8739C112.258 20.0082 112.034 20.0754 111.788 20.0754C111.631 20.0754 111.475 20.053 111.318 19.9858C111.161 19.9186 111.027 19.8291 110.915 19.7171C110.803 19.6052 110.714 19.4709 110.646 19.3141C110.624 19.1574 110.602 19.0007 110.602 18.8439ZM112.818 18.8439C112.818 18.6424 112.751 18.4409 112.639 18.2842C112.527 18.1275 112.37 17.9931 112.169 17.926C111.99 17.8588 111.788 17.8364 111.587 17.8812C111.385 17.926 111.206 18.0155 111.072 18.1723C110.937 18.3066 110.825 18.4857 110.803 18.6872C110.758 18.8887 110.781 19.0902 110.87 19.2693C110.937 19.4485 111.072 19.6052 111.251 19.7171C111.408 19.8291 111.609 19.8963 111.811 19.8963C111.945 19.8963 112.079 19.8739 112.214 19.8291C112.348 19.7843 112.46 19.6947 112.549 19.6052C112.639 19.5156 112.729 19.4037 112.773 19.2693C112.818 19.1126 112.841 18.9783 112.818 18.8439ZM111.318 18.1946H111.855C111.923 18.1946 111.967 18.1946 112.034 18.217C112.079 18.2394 112.146 18.2618 112.191 18.3066C112.236 18.3514 112.258 18.3962 112.281 18.4409C112.303 18.4857 112.326 18.5529 112.326 18.62C112.326 18.732 112.281 18.8216 112.214 18.9111C112.146 18.9783 112.034 19.0231 111.923 19.0231L112.37 19.4709H112.124L111.676 19.0231H111.52V19.4709H111.34L111.318 18.1946ZM111.878 18.8439C112.057 18.8439 112.146 18.7544 112.146 18.62C112.146 18.5753 112.146 18.5529 112.124 18.5305C112.102 18.5081 112.079 18.4633 112.057 18.4409C112.034 18.4185 111.99 18.3962 111.967 18.3962C111.945 18.3962 111.9 18.3738 111.855 18.3962H111.497V18.8439H111.878Z" fill="currentColor" style="fill:currentColor;fill-opacity:1;"/>
<path d="M15.1369 11.4329V18.0378L9.38281 21.3515V25.4935L18.764 20.12V9.37305L15.1369 11.4329Z" fill="currentColor" style="fill:currentColor;fill-opacity:1;"/>
<path d="M9.38122 8.14206L15.1577 11.4557L18.74 9.37349L9.38122 4L0 9.37349L3.60472 11.4333L9.38122 8.14206Z" fill="currentColor" style="fill:currentColor;fill-opacity:1;"/>
<path d="M5.7765 16.8064V23.4113L9.38122 25.4935V14.7465L0 9.37305V13.5151L5.7765 16.8064Z" fill="currentColor" style="fill:currentColor;fill-opacity:1;"/>
</svg>
