<svg width="147" height="30" viewBox="0 0 147 30" fill="none" xmlns="http://www.w3.org/2000/svg">
<g clip-path="url(#clip0_275_60331)">
<path d="M11.3477 15.722C10.4373 15.722 9.72196 16.4373 9.72196 17.3477C9.72196 18.2581 10.4373 18.9735 11.3477 18.9735C12.2581 18.9735 12.9735 18.2581 12.9735 17.3477C12.9409 16.4373 12.2256 15.722 11.3477 15.722ZM6.47047 10.8772C5.56005 10.8772 4.84472 11.5926 4.84472 12.503C4.84472 13.4134 5.56005 14.1287 6.47047 14.1287C7.38089 14.1287 8.09622 13.4134 8.09622 12.503C8.09622 11.5926 7.38089 10.8772 6.47047 10.8772ZM6.47047 20.5992C5.56005 20.5992 4.84472 21.3145 4.84472 22.225C4.84472 23.1354 5.56005 23.8507 6.47047 23.8507C7.38089 23.8507 8.09622 23.1354 8.09622 22.225C8.09622 21.3145 7.38089 20.5992 6.47047 20.5992ZM6.47047 15.722C5.56005 15.722 4.84472 16.4373 4.84472 17.3477C4.84472 18.2581 5.56005 18.9735 6.47047 18.9735C7.38089 18.9735 8.09622 18.2581 8.09622 17.3477C8.09622 16.4373 7.38089 15.722 6.47047 15.722ZM1.62575 15.722C0.715328 15.722 0 16.4373 0 17.3477C0 18.2581 0.715328 18.9735 1.62575 18.9735C2.53616 18.9735 3.25149 18.2581 3.25149 17.3477C3.25149 16.4373 2.50365 15.722 1.62575 15.722ZM144.269 23.8182H147V6.2276H144.269V23.8182ZM114.388 23.8182H117.086V10.8772H114.388V23.8182ZM115.721 6C114.81 6 114.095 6.71533 114.095 7.62575C114.095 8.53616 114.81 9.25149 115.721 9.25149C116.631 9.25149 117.346 8.53616 117.346 7.62575C117.346 6.71533 116.631 6 115.721 6ZM139.196 18.9409C139.196 20.9894 138.026 22.2575 136.14 22.2575C134.612 22.2575 133.799 21.4446 133.799 20.1765C133.799 18.7459 134.774 17.9005 136.953 17.9005H139.229V18.9409H139.196ZM136.595 10.4871C134.449 10.4871 132.954 11.2349 131.816 12.2104V14.2588C132.921 13.0232 134.287 12.438 135.847 12.438C137.896 12.438 139.196 13.576 139.196 15.8845V16.4048H136.758C132.921 16.4048 131.035 17.998 131.035 20.3066C131.035 22.5176 132.758 24.2084 135.197 24.2084C137.18 24.2084 138.514 23.2004 139.196 21.7697V23.8832H141.895V15.7545C141.928 12.4054 139.977 10.4871 136.595 10.4871ZM88.6357 15.722C88.9608 13.6735 90.1314 12.2429 92.0823 12.2429C93.8706 12.2429 95.1062 13.4134 95.1712 15.722H88.6357ZM92.1798 10.4871C88.2455 10.4871 85.6768 13.2833 85.6768 17.2502C85.6768 21.4446 88.5707 24.2084 92.6675 24.2084C94.716 24.2084 96.4393 23.493 97.4472 22.4526V20.7943C96.4718 21.7372 94.9111 22.29 93.3829 22.29C90.5866 22.29 88.6357 20.5992 88.5056 17.2827H97.8699V16.4373C97.8699 12.6656 95.6264 10.4871 92.1798 10.4871ZM126.125 22.29C123.232 22.29 121.671 20.1115 121.671 17.3152C121.671 14.4214 123.362 12.438 126.06 12.438C127.491 12.438 128.727 12.9907 129.767 14.2263V12.1778C128.824 11.1374 127.361 10.4545 125.508 10.4545C121.573 10.4545 118.777 13.4459 118.777 17.3152C118.777 21.1845 121.573 24.1758 125.475 24.1758C127.133 24.1758 128.629 23.6231 129.93 22.3225V20.5342C128.987 21.6397 127.556 22.29 126.125 22.29ZM105.543 22.225C103.365 22.225 101.967 20.3066 101.967 17.4127C101.967 14.4539 103.397 12.438 105.641 12.438C107.917 12.438 109.283 14.4214 109.283 17.2827C109.315 20.1765 107.787 22.225 105.543 22.225ZM109.25 13.2833C108.437 11.495 106.974 10.4871 104.991 10.4871C101.674 10.4871 99.0405 13.4784 99.0405 17.4778C99.0405 21.3796 101.479 24.2409 104.731 24.2409C106.974 24.2409 108.535 22.9403 109.25 21.1845V23.8507H111.949V6.2276H109.25V13.2833ZM39.4081 10.4871C37.2621 10.4871 35.864 11.6576 35.1486 13.4459V10.8772H32.4499V23.8182H35.1486V16.6974C35.1486 14.2913 36.3517 12.7306 38.4652 12.7306C40.3835 12.7306 41.2289 13.9011 41.2289 16.3072V23.8182H43.9277V15.722C43.9277 12.4054 42.1393 10.4871 39.4081 10.4871ZM24.2887 22.42C22.0776 22.42 20.7445 20.4366 20.7445 17.3802C20.7445 14.2913 22.0776 12.3079 24.2887 12.3079C26.5647 12.3079 27.8978 14.2913 27.8978 17.3802C27.8978 20.4366 26.5322 22.42 24.2887 22.42ZM24.2887 10.4871C20.5494 10.4871 17.8182 13.4784 17.8182 17.3477C17.8182 21.2495 20.5494 24.2084 24.2887 24.2084C28.0604 24.2084 30.7916 21.2495 30.7916 17.3477C30.7916 13.4784 28.0604 10.4871 24.2887 10.4871ZM48.5123 15.722C48.8374 13.6735 50.008 12.2429 51.9914 12.2429C53.7797 12.2429 55.0153 13.4134 55.0478 15.722H48.5123ZM52.0564 10.4871C48.1221 10.4871 45.5859 13.2833 45.5859 17.2502C45.5859 21.4446 48.4472 24.2084 52.5766 24.2084C54.6251 24.2084 56.3484 23.493 57.3889 22.4526V20.7943C56.3809 21.7372 54.8527 22.29 53.3245 22.29C50.5282 22.29 48.5448 20.5992 48.4472 17.2827H57.779V16.4373C57.7465 12.6656 55.503 10.4871 52.0564 10.4871ZM80.0192 10.4871C78.2309 10.4871 76.8653 11.5275 76.1175 13.2508C75.5647 11.495 74.1666 10.4871 72.4433 10.4871C70.6875 10.4871 69.4844 11.5275 68.8341 13.1858V10.8772H66.1029V23.8182H68.8341V16.0796C68.8341 14.0962 69.8421 12.6981 71.4678 12.6981C72.996 12.6981 73.7439 13.7386 73.7439 15.722V23.8507H76.4426V15.852C76.4426 13.9987 77.4506 12.6981 79.1088 12.6981C80.637 12.6981 81.3524 13.7386 81.3524 15.787V23.8182H84.0511V15.2993C84.0511 12.2754 82.4904 10.4871 80.0192 10.4871Z" fill="currentColor" style="fill:currentColor;fill-opacity:1;"/>
</g>
<defs>
<clipPath id="clip0_275_60331">
<rect width="147" height="18.2084" fill="currentColor" style="fill:currentColor;fill-opacity:1;" transform="translate(0 6)"/>
</clipPath>
</defs>
</svg>
