<svg width="97" height="30" viewBox="0 0 97 30" fill="none" xmlns="http://www.w3.org/2000/svg">
<path fill-rule="evenodd" clip-rule="evenodd" d="M35.9318 15.0577C35.9318 17.5276 33.9225 19.5369 31.4527 19.5369C28.983 19.5369 26.9736 17.5276 26.9736 15.0577C26.9736 12.588 28.983 10.5787 31.4527 10.5787C33.9225 10.5787 35.9318 12.588 35.9318 15.0577ZM31.4527 8.45658C29.7777 8.45658 28.1981 9.07839 26.9736 10.2136V8.56283V8.44141H26.8521H24.973H24.8516V8.56283V26.0677V26.1891H24.973H26.8521H26.9736V26.0677V19.9019C28.1981 21.0371 29.7777 21.6589 31.4527 21.6589C35.0926 21.6589 38.0538 18.6976 38.0538 15.0577C38.0538 11.4178 35.0926 8.45658 31.4527 8.45658Z" fill="currentColor" style="fill:currentColor;fill-opacity:1;"/>
<path fill-rule="evenodd" clip-rule="evenodd" d="M41.9364 13.9816C42.4213 11.9921 44.2279 10.5635 46.2885 10.5635C48.3224 10.5635 50.0262 11.9616 50.4802 13.9816H41.9364ZM46.2885 8.44141C42.6486 8.44141 39.6875 11.4027 39.6875 15.0426C39.6875 18.6825 42.6486 21.6437 46.2885 21.6437C48.327 21.6437 50.1981 20.8806 51.4221 19.5499L52.0582 18.8584L52.1404 18.769L52.051 18.6868L50.668 17.4147L50.5787 17.3325L50.4965 17.4218L49.8603 18.1135C49.0491 18.9952 47.7138 19.5217 46.2885 19.5217C44.228 19.5217 42.4213 18.0931 41.9364 16.1036H52.5974H52.7189V15.9821V15.0426C52.7189 11.341 49.8943 8.44141 46.2885 8.44141Z" fill="currentColor" style="fill:currentColor;fill-opacity:1;"/>
<path fill-rule="evenodd" clip-rule="evenodd" d="M60.7392 8.44141C59.2243 8.44141 57.7813 9.01416 56.6454 10.0602V8.56283V8.44141H56.524H54.6449H54.5234V8.56283V14.9571V15.8967V21.626V21.7474H54.6449H56.524H56.6454V21.626V15.8967V14.9571C56.6454 12.5345 58.4818 10.5634 60.7392 10.5634C62.9967 10.5634 64.8332 12.5345 64.8332 14.9571V21.626V21.7474H64.9546H66.8338H66.9552V21.626V14.9571C66.9552 11.3643 64.1667 8.44141 60.7392 8.44141Z" fill="currentColor" style="fill:currentColor;fill-opacity:1;"/>
<path fill-rule="evenodd" clip-rule="evenodd" d="M79.8302 15.1313C79.8302 17.6011 77.8209 19.6104 75.3512 19.6104C72.8813 19.6104 70.872 17.6011 70.872 15.1313C70.872 12.6615 72.8813 10.6522 75.3512 10.6522C77.8209 10.6522 79.8302 12.6615 79.8302 15.1313ZM79.9516 4H79.8302V4.12142V10.2872C78.6057 9.15186 77.0262 8.53017 75.3512 8.53017C71.7113 8.53017 68.75 11.4914 68.75 15.1313C68.75 18.7712 71.7113 21.7325 75.3512 21.7325C77.0262 21.7325 78.6057 21.1107 79.8302 19.9755V21.6262V21.7477H79.9516H81.8308H81.9522V21.6262V4.12142V4H81.8308H79.9516Z" fill="currentColor" style="fill:currentColor;fill-opacity:1;"/>
<path fill-rule="evenodd" clip-rule="evenodd" d="M94.8771 15.1305C94.8771 17.6002 92.8678 19.6095 90.3979 19.6095C87.9282 19.6095 85.9189 17.6002 85.9189 15.1305C85.9189 12.6606 87.9282 10.6513 90.3979 10.6513C92.8678 10.6513 94.8771 12.6606 94.8771 15.1305ZM90.3979 8.5293C86.7581 8.5293 83.7969 11.4906 83.7969 15.1305C83.7969 18.7704 86.7581 21.7316 90.3979 21.7316C94.0378 21.7316 96.9991 18.7704 96.9991 15.1305C96.9991 11.4906 94.0378 8.5293 90.3979 8.5293Z" fill="currentColor" style="fill:currentColor;fill-opacity:1;"/>
<path fill-rule="evenodd" clip-rule="evenodd" d="M9.96421 6.37695L0 16.3412H9.96421V26.3055L19.9284 16.3412V6.37695H9.96421Z" fill="currentColor" style="fill:currentColor;fill-opacity:1;"/>
</svg>
