<svg width="90" height="30" viewBox="0 0 90 30" fill="none" xmlns="http://www.w3.org/2000/svg">
<path d="M38.3211 23.0963H35.041L27.8738 15.7699H26.5382V23.0952H24.1075V6H32.247C35.6735 6 37.7142 7.83133 37.7142 10.885C37.7142 13.9375 35.6735 15.7699 32.247 15.7699H31.0321L38.3211 23.0963ZM35.2846 10.8839C35.2846 9.15087 34.3123 8.076 32.247 8.076H26.5371V13.6939H32.247C34.3123 13.6939 35.2846 12.6191 35.2846 10.8839ZM44.5427 23.4628C40.6546 23.4628 38.2249 20.5566 38.2249 16.7465C38.2249 12.9364 40.6546 10.0291 44.4209 10.0291C47.4585 10.0291 49.2802 11.7387 50.0826 14.2794C50.3743 15.2314 50.495 16.2817 50.495 17.3566V17.6013H40.5584C40.6311 19.6527 42.1365 21.6304 44.5427 21.6304C46.608 21.6304 47.5557 20.4337 47.7502 19.5544H50.2525C49.6691 21.6304 47.7256 23.4628 44.5427 23.4628ZM40.5574 15.7699H48.1626C48.0408 13.5711 46.8751 11.8615 44.4209 11.8615C41.9667 11.8615 40.6311 13.6929 40.5574 15.7689V15.7699ZM50.6158 12.3498V10.3967H53.6523V7.46592H55.9848V10.3967H59.2649V12.3498H55.9848V20.0427C55.9848 20.8985 56.2284 21.1913 57.0789 21.1913H59.2649V23.0963H56.5927C54.381 23.0963 53.6523 21.9979 53.6523 20.0437V12.3509L50.6158 12.3498ZM65.9716 10.0291C69.8597 10.0291 72.4101 12.9353 72.4101 16.7465C72.4101 20.5566 69.8597 23.4628 65.9716 23.4628C62.0835 23.4628 59.5331 20.5566 59.5331 16.7465C59.5331 12.9364 62.0835 10.0291 65.9716 10.0291ZM65.9716 11.9844C63.3229 11.9844 61.8655 14.1811 61.8655 16.7465C61.8655 19.3108 63.3229 21.5086 65.9716 21.5086C68.6203 21.5086 70.0776 19.3108 70.0776 16.7465C70.0776 14.1822 68.6203 11.9844 65.9716 11.9844ZM79.8796 10.0291C83.7666 10.0291 86.3181 12.9353 86.3181 16.7465C86.3181 20.5566 83.7666 23.4628 79.8796 23.4628C75.9915 23.4628 73.4401 20.5566 73.4401 16.7465C73.4401 12.9364 75.9915 10.0291 79.8796 10.0291ZM79.8796 11.9844C77.2299 11.9844 75.7725 14.1811 75.7725 16.7465C75.7725 19.3108 77.2309 21.5086 79.8796 21.5086C82.5272 21.5086 83.9857 19.3108 83.9857 16.7465C83.9857 14.1822 82.5272 11.9844 79.8796 11.9844ZM90 6V23.0963H87.6676V6H90ZM10.6845 6.80134C10.6845 6.58881 10.6001 6.38499 10.4498 6.23471C10.2995 6.08443 10.0957 6 9.88318 6H0.801339C0.588811 6 0.384987 6.08443 0.234707 6.23471C0.0844265 6.38499 0 6.58881 0 6.80134L0 10.5409C0 10.9833 0.359 11.3423 0.801339 11.3423H9.88318C10.0957 11.3423 10.2995 11.4267 10.4498 11.577C10.6001 11.7272 10.6845 11.9311 10.6845 12.1436V13.2121C10.6845 13.4246 10.6001 13.6284 10.4498 13.7787C10.2995 13.929 10.0957 14.0134 9.88318 14.0134H4.0067C3.79417 14.0134 3.59034 14.0978 3.44006 14.2481C3.28978 14.3984 3.20536 14.6022 3.20536 14.8147V18.5543C3.20536 18.9967 3.56436 19.3557 4.0067 19.3557H9.88318C10.0957 19.3557 10.2995 19.4401 10.4498 19.5904C10.6001 19.7406 10.6845 19.9445 10.6845 20.157V22.2939C10.6845 22.7373 11.0435 23.0952 11.4859 23.0952H15.2254C15.438 23.0952 15.6418 23.0108 15.7921 22.8605C15.9424 22.7102 16.0268 22.5064 16.0268 22.2939V18.5543C16.0268 18.3418 15.9424 18.138 15.7921 17.9877C15.6418 17.8374 15.438 17.753 15.2254 17.753H11.4859C11.2733 17.753 11.0695 17.6685 10.9192 17.5183C10.7689 17.368 10.6845 17.1642 10.6845 16.9516V15.8832C10.6845 15.6707 10.7689 15.4668 10.9192 15.3166C11.0695 15.1663 11.2733 15.0818 11.4859 15.0818H15.2254C15.438 15.0818 15.6418 14.9974 15.7921 14.8471C15.9424 14.6969 16.0268 14.493 16.0268 14.2805V10.5409C16.0268 10.3284 15.9424 10.1246 15.7921 9.97429C15.6418 9.82401 15.438 9.73958 15.2254 9.73958H11.4859C11.2733 9.73958 11.0695 9.65516 10.9192 9.50488C10.7689 9.3546 10.6845 9.15077 10.6845 8.93824V6.80134Z" fill="currentColor" style="fill:currentColor;fill-opacity:1;"/>
</svg>
