<svg width="116" height="30" viewBox="0 0 116 30" fill="none" xmlns="http://www.w3.org/2000/svg">
<path d="M2.62872 11.5945C2.62872 9.77141 1.7126 8.2651 0 7H3.98053C4.68222 7.53874 5.25076 8.23382 5.64167 9.03087C6.03258 9.82797 6.23525 10.7054 6.23385 11.5945C6.23525 12.4836 6.03258 13.361 5.64167 14.1581C5.25076 14.9552 4.68222 15.6502 3.98053 16.189C5.27296 16.7322 6.00825 18.058 6.00825 19.9557V23.5714H2.40402V19.9557C2.40402 18.1483 1.54819 16.8832 0.000912992 16.1899C1.71351 14.9239 2.62964 13.4184 2.62964 11.5954L2.62872 11.5945ZM10.44 11.5945C10.44 9.77141 9.52386 8.2651 7.81127 7H11.7927C12.4942 7.53884 13.0626 8.23395 13.4534 9.03101C13.8441 9.82808 14.0466 10.7054 14.0451 11.5945C14.0466 12.4836 13.8441 13.3609 13.4534 14.158C13.0626 14.9549 12.4942 15.6502 11.7927 16.189C13.0842 16.7322 13.8205 18.058 13.8205 19.9557V23.5714H10.2153V19.9557C10.2153 18.1483 9.35853 16.8832 7.81127 16.1899C9.52386 14.9239 10.44 13.4176 10.44 11.5945ZM18.253 11.5945C18.253 9.77141 17.3369 8.2651 15.6244 7H19.6049C20.3066 7.53874 20.8751 8.23382 21.266 9.03087C21.657 9.82797 21.8596 10.7054 21.8582 11.5945C21.8596 12.4836 21.657 13.361 21.266 14.1581C20.8751 14.9552 20.3066 15.6502 19.6049 16.189C20.8973 16.7322 21.6326 18.058 21.6326 19.9557V23.5714H18.0275V19.9557C18.0275 18.1483 17.1717 16.8832 15.6244 16.1899C17.3369 14.9239 18.253 13.4176 18.253 11.5945ZM32.838 20.5606H30.1052V10.0127H36.8203C40.0501 10.0127 41.6421 11.2189 41.6421 13.192C41.6421 14.5326 40.8612 15.5417 39.4043 16.0545C40.9059 16.2801 41.5818 17.0784 41.5818 18.5102V20.5587H38.8179V18.6307C38.8179 17.4245 38.2169 16.9431 36.6395 16.9431H32.8399V20.5606H32.838ZM36.6687 11.5494H32.838V15.4072H36.6386C38.0205 15.4072 38.8764 14.6384 38.8764 13.4331C38.8764 12.2426 38.0818 11.5494 36.6687 11.5494ZM46.388 10.0127H43.6543V20.5606H46.388V10.0127ZM54.7702 17.1235H51.4354V20.5587H48.7007V10.0127H54.8296C58.0592 10.0127 59.7573 11.3689 59.7573 13.5391C59.7573 15.783 58.0301 17.1235 54.7702 17.1235ZM54.7099 11.5494H51.4354V15.5868H54.6798C56.0918 15.5868 56.9632 14.864 56.9632 13.5538C56.9632 12.273 56.0918 11.5494 54.7099 11.5494ZM67.4489 17.1235H64.1141V20.5587H61.3794V10.0127H67.5083C70.7379 10.0127 72.4359 11.3689 72.4359 13.5391C72.4359 15.783 70.7078 17.1235 67.4489 17.1235ZM67.3886 11.5494H64.1141V15.5868H67.3584C68.7705 15.5868 69.6419 14.864 69.6419 13.5538C69.6419 12.273 68.7705 11.5494 67.3886 11.5494ZM76.7919 10.0127V18.9916H83.6122V20.5606H74.0581V10.0127H76.7919ZM88.0567 10.0127H85.3229V20.5606H88.0567V10.0127ZM92.1733 13.5382V20.5606H90.3702V10.0127H92.4153L99.8658 17.0332V10.0127H101.669V20.5606H99.6256L92.1733 13.5382ZM110.593 11.2483C107.993 11.2483 106.296 12.9056 106.296 15.376C106.296 17.8159 107.918 19.3232 110.442 19.3232H110.622C111.479 19.3232 112.44 19.1418 113.327 18.8563V16.0084H108.91V14.5022H116V19.4585C114.528 20.2273 112.304 20.8304 110.502 20.8304H110.262C106.115 20.8304 103.442 18.6298 103.442 15.4357C103.442 12.2721 106.191 9.74191 110.412 9.74191H110.652C112.41 9.74191 114.423 10.299 115.91 11.1728L115.129 12.4526C113.793 11.7151 112.199 11.2483 110.773 11.2483H110.593Z" fill="currentColor" style="fill:currentColor;fill-opacity:1;"/>
</svg>
