<svg fill="none" height="30" viewBox="0 0 90 30" width="90" xmlns="http://www.w3.org/2000/svg"><path d="m44.9545 10.0074c-3.4462 0-5.9352 2.2533-5.9352 5.6259s2.7983 5.6259 6.2445 5.6259c2.0913 0 3.9175-.8247 5.0663-2.2091l-2.3859-1.3844c-.6333.6922-1.5906 1.0898-2.6657 1.0898-1.5022 0-2.7687-.7805-3.24-2.0324h8.7629c.0736-.3534.1031-.7069.1031-1.0898-.0148-3.3873-2.489-5.6259-5.95-5.6259zm-2.9602 4.5213c.3976-1.2518 1.458-2.0324 2.9602-2.0324s2.5626.7806 2.9603 2.0324zm36.6127-4.5213c-3.4463 0-5.9352 2.2533-5.9352 5.6259s2.7982 5.6259 6.2444 5.6259c2.0914 0 3.9176-.8247 5.0663-2.2091l-2.3858-1.3844c-.6333.6922-1.5906 1.0898-2.6657 1.0898-1.5022 0-2.7688-.7805-3.2401-2.0324h8.7629c.0736-.3534.1031-.7069.1031-1.0898 0-3.3873-2.489-5.6259-5.9499-5.6259zm-2.9455 4.5213c.3976-1.2518 1.458-2.0324 2.9602-2.0324s2.5626.7806 2.9602 2.0324zm-12.1944 1.1046c0 1.8704 1.2223 3.1222 3.1222 3.1222 1.2813 0 2.2533-.5891 2.754-1.5316l2.4006 1.3843c-.9867 1.6495-2.8571 2.651-5.1546 2.651-3.461 0-5.9352-2.2533-5.9352-5.6259s2.4889-5.6259 5.9352-5.6259c2.2975 0 4.1532 1.0014 5.1546 2.6509l-2.4006 1.3844c-.5007-.9573-1.458-1.5317-2.754-1.5317-1.8999-.0147-3.1222 1.2372-3.1222 3.1223zm25.7731-9.07218v14.37408h-2.8129v-14.37408zm-76.8188-1.56112 11.5464 20h-23.0928zm28.8807 1.56112-8.6598 15.00738-8.6598-15.00738h3.2548l5.4197 9.38148 5.4198-9.38148zm18.4094 3.75548v3.0339c-.3092-.0883-.648-.1473-1.0014-.1473-1.8115 0-3.1223 1.2519-3.1223 3.1223v4.6244h-2.8129v-10.6333h2.8129v2.8719c0-1.5906 1.841-2.8719 4.1237-2.8719z" fill="currentColor"/></svg>