<svg width="17" height="18" viewBox="0 0 17 18" fill="none" xmlns="http://www.w3.org/2000/svg">
<path fill-rule="evenodd" clip-rule="evenodd" d="M17 9C17 13.6944 13.1944 17.5 8.5 17.5C3.80558 17.5 0 13.6944 0 9C0 4.30558 3.80558 0.5 8.5 0.5C13.1944 0.5 17 4.30558 17 9ZM8.47559 4C9.09691 4 9.60059 4.53812 9.60059 5.20192V9.04808C9.60059 9.71188 9.09691 10.25 8.47559 10.25C7.85427 10.25 7.35059 9.71188 7.35059 9.04808V5.20192C7.35059 4.53812 7.85427 4 8.47559 4ZM7.35059 12.625C7.35059 12.0037 7.85182 11.5 8.47013 11.5H8.48104C9.09935 11.5 9.60059 12.0037 9.60059 12.625C9.60059 13.2463 9.09935 13.75 8.48104 13.75H8.47013C7.85182 13.75 7.35059 13.2463 7.35059 12.625Z" fill="white"/>
</svg>
