<svg width="26" height="26" viewBox="0 0 26 26" fill="none" xmlns="http://www.w3.org/2000/svg">
<path d="M23.4408 12.7439C23.4408 11.8446 23.3664 11.1884 23.2052 10.5078H12.7266V14.5668H18.8773C18.7533 15.5755 18.0837 17.0946 16.5956 18.1154L16.5747 18.2513L19.8879 20.7666L20.1174 20.7891C22.2255 18.8811 23.4408 16.0737 23.4408 12.7439" fill="#4285F4"/>
<path d="M12.7202 23.4385C15.7336 23.4385 18.2633 22.4662 20.1111 20.7891L16.5892 18.1154C15.6468 18.7595 14.3819 19.2092 12.7202 19.2092C9.76887 19.2092 7.26394 17.3012 6.371 14.6641L6.24011 14.675L2.79505 17.2878L2.75 17.4106C4.58529 20.9835 8.35513 23.4385 12.7202 23.4385Z" fill="#34A853"/>
<path d="M6.37395 14.6652C6.13834 13.9847 6.00199 13.2555 6.00199 12.502C6.00199 11.7485 6.13834 11.0194 6.36156 10.3388L6.35532 10.1939L2.86708 7.53906L2.75295 7.59226C1.99653 9.07492 1.5625 10.7399 1.5625 12.502C1.5625 14.2642 1.99653 15.9291 2.75295 17.4117L6.37395 14.6652" fill="#FBBC05"/>
<path d="M12.7203 5.79164C14.816 5.79164 16.2297 6.67879 17.0357 7.42016L20.1855 4.40625C18.2511 2.6441 15.7336 1.5625 12.7203 1.5625C8.35516 1.5625 4.5853 4.01734 2.75 7.59023L6.35862 10.3368C7.26396 7.69965 9.76891 5.79164 12.7203 5.79164" fill="#EB4335"/>
</svg>
