<svg width="78" height="25" viewBox="0 0 78 25" fill="none" xmlns="http://www.w3.org/2000/svg">
<path fill-rule="evenodd" clip-rule="evenodd" d="M22.8795 12.5V17.8379L22.8781 18.1138C22.8594 20.0347 22.6398 20.7725 22.2428 21.5159C21.8274 22.2939 21.2177 22.9045 20.4409 23.3206L20.3373 23.375C19.593 23.756 18.7992 23.9583 16.7689 23.9583H11.4395V12.5H22.8795Z" fill="url(#paint0_linear_946_20745)"/>
<path fill-rule="evenodd" clip-rule="evenodd" d="M20.4409 1.67675C21.2177 2.09285 21.8274 2.70345 22.2428 3.48149L22.297 3.58531C22.6774 4.3308 22.8795 5.12584 22.8795 7.15945V12.4974H11.4395V1.03906H16.7689C18.8936 1.03906 19.6641 1.26065 20.4409 1.67675Z" fill="url(#paint1_linear_946_20745)"/>
<path fill-rule="evenodd" clip-rule="evenodd" d="M11.44 1.03906V23.9557H6.11059L5.8352 23.9544C3.91731 23.9356 3.18078 23.7156 2.43852 23.318C1.66173 22.9019 1.0521 22.2913 0.636666 21.5133L0.582429 21.4095C0.202006 20.664 0 19.8689 0 17.8353V7.15945C0 5.03126 0.221234 4.25952 0.636666 3.48149C1.0521 2.70345 1.66173 2.09285 2.43852 1.67675L2.54217 1.62242C3.28647 1.24139 4.08024 1.03906 6.11059 1.03906H11.44Z" fill="url(#paint2_linear_946_20745)"/>
<path fill-rule="evenodd" clip-rule="evenodd" d="M39.0142 9.66821C38.7751 9.3431 38.4633 9.10568 38.0789 8.95596C37.6945 8.80624 37.3187 8.73138 36.9514 8.73138C36.4816 8.73138 36.0545 8.81693 35.6701 8.98804C35.2857 9.15915 34.9547 9.39443 34.6771 9.69387C34.3995 9.99332 34.1859 10.3441 34.0365 10.7462C33.887 11.1483 33.8122 11.5846 33.8122 12.0552C33.8122 12.5514 33.8848 13.0049 34.03 13.4155C34.1753 13.8262 34.3824 14.1791 34.6515 14.4743C34.9205 14.7695 35.243 14.9983 35.6188 15.1609C35.9947 15.3234 36.4175 15.4047 36.8873 15.4047C37.3742 15.4047 37.8055 15.3085 38.1814 15.116C38.5572 14.9235 38.8605 14.6689 39.0911 14.3524L40.3852 15.2635C39.9837 15.7683 39.4926 16.1597 38.9117 16.4378C38.3309 16.7158 37.6518 16.8549 36.8745 16.8549C36.1655 16.8549 35.5142 16.7372 34.9205 16.502C34.3269 16.2667 33.8165 15.9373 33.3894 15.5138C32.9623 15.0903 32.6292 14.5855 32.39 13.9995C32.1508 13.4134 32.0312 12.7653 32.0312 12.0552C32.0312 11.328 32.1572 10.6713 32.4092 10.0853C32.6612 9.49923 33.0072 9.00088 33.4471 8.59021C33.887 8.17954 34.4059 7.86299 35.0038 7.64054C35.6018 7.4181 36.2509 7.30687 36.9514 7.30687C37.2418 7.30687 37.545 7.33468 37.8611 7.39029C38.1771 7.4459 38.4804 7.53146 38.7708 7.64696C39.0612 7.76246 39.3345 7.90576 39.5908 8.07687C39.8471 8.24799 40.0649 8.45332 40.2443 8.69287L39.0142 9.66821ZM41.3333 6.92188H42.8709V16.6239H41.3333V6.92188ZM48.6147 12.9279C48.6147 12.7311 48.5869 12.5429 48.5314 12.3632C48.4759 12.1835 48.3883 12.0253 48.2687 11.8884C48.1491 11.7515 47.9975 11.6424 47.8139 11.5611C47.6302 11.4798 47.4145 11.4392 47.1668 11.4392C46.7056 11.4392 46.3148 11.5782 45.9944 11.8563C45.6741 12.1343 45.4969 12.4915 45.4627 12.9279H48.6147ZM50.1522 13.6209V13.8262C50.1522 13.8947 50.1479 13.9631 50.1394 14.0315H45.4627C45.4798 14.254 45.5375 14.4572 45.6357 14.6411C45.7339 14.8251 45.8642 14.9833 46.0265 15.116C46.1888 15.2486 46.3724 15.3534 46.5774 15.4304C46.7824 15.5074 46.996 15.5459 47.2181 15.5459C47.6025 15.5459 47.927 15.4753 48.1918 15.3341C48.4566 15.193 48.6745 14.9983 48.8453 14.7502L49.8703 15.5715C49.2638 16.3929 48.384 16.8035 47.2309 16.8035C46.7525 16.8035 46.3126 16.7287 45.9112 16.579C45.5097 16.4292 45.1616 16.2175 44.8669 15.9437C44.5722 15.6699 44.3416 15.3341 44.175 14.9363C44.0085 14.5385 43.9252 14.0872 43.9252 13.5824C43.9252 13.0861 44.0085 12.6348 44.175 12.2285C44.3416 11.8221 44.5701 11.4756 44.8605 11.189C45.1509 10.9023 45.4947 10.6799 45.8919 10.5216C46.2891 10.3633 46.7184 10.2842 47.1796 10.2842C47.6067 10.2842 48.0018 10.3548 48.3648 10.496C48.7278 10.6371 49.0418 10.8467 49.3066 11.1248C49.5714 11.4028 49.7785 11.7493 49.928 12.1643C50.0775 12.5792 50.1522 13.0648 50.1522 13.6209ZM55.3798 15.841H55.3414C55.1876 16.1148 54.9399 16.3394 54.5982 16.5148C54.2566 16.6902 53.8679 16.7779 53.4323 16.7779C53.1846 16.7779 52.9262 16.7458 52.6571 16.6816C52.388 16.6175 52.1403 16.5105 51.914 16.3608C51.6876 16.2111 51.4997 16.0143 51.3502 15.7705C51.2007 15.5266 51.126 15.225 51.126 14.8657C51.126 14.4037 51.2562 14.0358 51.5168 13.762C51.7773 13.4883 52.1126 13.2787 52.5226 13.1332C52.9326 12.9878 53.3874 12.8915 53.8871 12.8445C54.3868 12.7974 54.8759 12.7739 55.3542 12.7739V12.6199C55.3542 12.2349 55.2154 11.9504 54.9378 11.7665C54.6602 11.5825 54.3292 11.4905 53.9448 11.4905C53.6202 11.4905 53.3084 11.559 53.0095 11.6959C52.7105 11.8328 52.4628 11.9996 52.2663 12.1964L51.4719 11.2595C51.8221 10.9344 52.2257 10.6906 52.6827 10.528C53.1397 10.3655 53.6031 10.2842 54.0729 10.2842C54.6196 10.2842 55.0702 10.3612 55.4247 10.5152C55.7792 10.6692 56.0589 10.8703 56.2639 11.1184C56.4689 11.3665 56.612 11.6445 56.6931 11.9525C56.7743 12.2605 56.8149 12.5685 56.8149 12.8765V16.6239H55.3798V15.841ZM55.3542 13.8134H55.0082C54.7605 13.8134 54.5 13.8241 54.2267 13.8455C53.9533 13.8668 53.7013 13.9139 53.4707 13.9866C53.2401 14.0593 53.0479 14.162 52.8941 14.2946C52.7404 14.4272 52.6635 14.609 52.6635 14.84C52.6635 14.9855 52.6955 15.1074 52.7596 15.2058C52.8237 15.3042 52.907 15.3833 53.0095 15.4432C53.112 15.5031 53.2273 15.5459 53.3554 15.5715C53.4835 15.5972 53.6117 15.61 53.7398 15.61C54.2694 15.61 54.6708 15.4689 54.9442 15.1865C55.2175 14.9042 55.3542 14.5192 55.3542 14.0315V13.8134ZM58.151 10.4639H59.6245V11.4905H59.6501C59.821 11.1312 60.0601 10.8403 60.3677 10.6179C60.6752 10.3954 61.0339 10.2842 61.4439 10.2842C61.5037 10.2842 61.5678 10.2863 61.6361 10.2906C61.7045 10.2949 61.7643 10.3056 61.8155 10.3227V11.7344C61.713 11.7087 61.6255 11.6916 61.5528 11.683C61.4802 11.6745 61.4098 11.6702 61.3414 11.6702C60.9912 11.6702 60.7093 11.7344 60.4958 11.8627C60.2822 11.991 60.1157 12.145 59.9961 12.3247C59.8765 12.5044 59.7954 12.6883 59.7526 12.8765C59.7099 13.0648 59.6886 13.2145 59.6886 13.3257V16.6239H58.151V10.4639ZM64.3781 6.92188V11.2467H64.4165C64.4934 11.144 64.5916 11.0371 64.7112 10.9259C64.8308 10.8147 64.9739 10.712 65.1404 10.6179C65.307 10.5238 65.5013 10.4446 65.7234 10.3805C65.9455 10.3163 66.1975 10.2842 66.4794 10.2842C66.915 10.2842 67.3165 10.3676 67.6838 10.5345C68.0511 10.7013 68.3671 10.9302 68.6319 11.221C68.8967 11.5119 69.1017 11.8541 69.2469 12.2477C69.3921 12.6413 69.4647 13.0648 69.4647 13.5182C69.4647 13.9717 69.3943 14.3973 69.2533 14.7951C69.1124 15.193 68.9117 15.5395 68.6511 15.8346C68.3906 16.1298 68.0746 16.3651 67.703 16.5405C67.3314 16.7158 66.9107 16.8035 66.4409 16.8035C66.0053 16.8035 65.5974 16.7094 65.2173 16.5212C64.8372 16.333 64.5404 16.0592 64.3268 15.6999H64.3012V16.6239H62.8405V6.92188H64.3781ZM67.9016 13.5182C67.9016 13.2787 67.8653 13.0412 67.7927 12.806C67.7201 12.5707 67.6112 12.3589 67.466 12.1707C67.3207 11.9825 67.1371 11.8306 66.915 11.7151C66.6929 11.5996 66.4324 11.5419 66.1334 11.5419C65.8515 11.5419 65.5995 11.6018 65.3775 11.7215C65.1554 11.8413 64.9653 11.9953 64.8073 12.1835C64.6493 12.3718 64.5297 12.5857 64.4485 12.8252C64.3674 13.0648 64.3268 13.3043 64.3268 13.5439C64.3268 13.7834 64.3674 14.0208 64.4485 14.2561C64.5297 14.4914 64.6493 14.7032 64.8073 14.8914C64.9653 15.0796 65.1554 15.2315 65.3775 15.347C65.5995 15.4625 65.8515 15.5202 66.1334 15.5202C66.4324 15.5202 66.6929 15.4603 66.915 15.3405C67.1371 15.2208 67.3207 15.0668 67.466 14.8785C67.6112 14.6903 67.7201 14.4764 67.7927 14.2369C67.8653 13.9973 67.9016 13.7578 67.9016 13.5182ZM70.5191 10.4639H72.0566V16.6239H70.5191V10.4639ZM70.3012 8.37204C70.3012 8.12393 70.3931 7.9079 70.5767 7.72396C70.7604 7.54001 70.9931 7.44804 71.275 7.44804C71.5569 7.44804 71.7939 7.53574 71.9861 7.71112C72.1783 7.88651 72.2744 8.10682 72.2744 8.37204C72.2744 8.63727 72.1783 8.85757 71.9861 9.03296C71.7939 9.20835 71.5569 9.29604 71.275 9.29604C70.9931 9.29604 70.7604 9.20407 70.5767 9.02012C70.3931 8.83618 70.3012 8.62015 70.3012 8.37204ZM73.0432 11.6959V10.4639H74.1194V8.68004H75.6314V10.4639H77.1689V11.6959H75.6314V14.5577C75.6314 14.8315 75.6805 15.0582 75.7787 15.2379C75.8769 15.4175 76.0969 15.5074 76.4386 15.5074C76.5411 15.5074 76.6521 15.4967 76.7717 15.4753C76.8913 15.4539 76.9981 15.4218 77.092 15.379L77.1433 16.5854C77.0066 16.6367 76.8443 16.6773 76.6564 16.7073C76.4685 16.7372 76.2891 16.7522 76.1182 16.7522C75.7082 16.7522 75.3751 16.6945 75.1188 16.579C74.8626 16.4635 74.6597 16.3052 74.5102 16.1041C74.3608 15.9031 74.2583 15.6721 74.2027 15.4111C74.1472 15.1502 74.1194 14.87 74.1194 14.5705V11.6959H73.0432Z" fill="#27282A"/>
<defs>
<linearGradient id="paint0_linear_946_20745" x1="17.1595" y1="12.5" x2="22.8941" y2="23.951" gradientUnits="userSpaceOnUse">
<stop stop-color="#DEF2FE"/>
<stop offset="1" stop-color="#DBF1FE"/>
</linearGradient>
<linearGradient id="paint1_linear_946_20745" x1="11.4395" y1="1.03906" x2="17.1741" y2="12.49" gradientUnits="userSpaceOnUse">
<stop stop-color="#57BCFD"/>
<stop offset="1" stop-color="#51B5FD"/>
</linearGradient>
<linearGradient id="paint2_linear_946_20745" x1="4.29" y1="1.03906" x2="14.0389" y2="20.5057" gradientUnits="userSpaceOnUse">
<stop stop-color="#1CA7FD"/>
<stop offset="1" stop-color="#148CFC"/>
</linearGradient>
</defs>
</svg>
