<svg width="59" height="25" viewBox="0 0 59 25" fill="none" xmlns="http://www.w3.org/2000/svg">
<g clip-path="url(#clip0_946_16017)">
<path fill-rule="evenodd" clip-rule="evenodd" d="M58.488 13.0998C58.488 8.95313 56.4734 5.68113 52.623 5.68113C48.7563 5.68113 46.4167 8.95313 46.4167 13.0674C46.4167 17.943 49.1787 20.4052 53.1429 20.4052C55.0762 20.4052 56.5384 19.9678 57.6432 19.3523V16.1127C56.5384 16.6634 55.2712 17.0036 53.6627 17.0036C52.0868 17.0036 50.6896 16.4528 50.5109 14.5415H58.4555C58.4555 14.3309 58.488 13.4886 58.488 13.0998ZM50.4622 11.561C50.4622 9.73064 51.5832 8.96933 52.6067 8.96933C53.5978 8.96933 54.6538 9.73064 54.6538 11.561H50.4622Z" fill="#635BFF"/>
<path fill-rule="evenodd" clip-rule="evenodd" d="M40.1454 5.68112C38.5532 5.68112 37.5297 6.42623 36.9611 6.94456L36.7499 5.94028H33.1756V24.8272L37.2373 23.9687L37.2535 19.3847C37.8384 19.8058 38.6995 20.4051 40.1292 20.4051C43.0373 20.4051 45.6855 18.0726 45.6855 12.9378C45.6693 8.24041 42.9886 5.68112 40.1454 5.68112ZM39.1706 16.8416C38.2121 16.8416 37.6434 16.5014 37.2535 16.0803L37.2373 10.0708C37.6597 9.60104 38.2446 9.27708 39.1706 9.27708C40.6491 9.27708 41.6726 10.9293 41.6726 13.0512C41.6726 15.2218 40.6653 16.8416 39.1706 16.8416Z" fill="#635BFF"/>
<path fill-rule="evenodd" clip-rule="evenodd" d="M27.5867 4.7254L31.6646 3.8507V0.5625L27.5867 1.421V4.7254Z" fill="#635BFF"/>
<path d="M31.6646 5.95646H27.5867V20.1298H31.6646V5.95646Z" fill="#635BFF"/>
<path fill-rule="evenodd" clip-rule="evenodd" d="M23.2162 7.15511L22.9562 5.95646H19.4469V20.1297H23.5086V10.5243C24.4672 9.27705 26.0918 9.50383 26.5955 9.68201V5.95646C26.0756 5.76208 24.1747 5.40572 23.2162 7.15511Z" fill="#635BFF"/>
<path fill-rule="evenodd" clip-rule="evenodd" d="M15.093 2.44146L11.1288 3.28376L11.1125 16.2584C11.1125 18.6557 12.9159 20.4213 15.3204 20.4213C16.6526 20.4213 17.6274 20.1783 18.1636 19.8868V16.5985C17.6437 16.8091 15.0767 17.5542 15.0767 15.1569V9.40662H18.1636V5.95643H15.0767L15.093 2.44146Z" fill="#635BFF"/>
<path fill-rule="evenodd" clip-rule="evenodd" d="M4.1104 10.0708C4.1104 9.43907 4.63029 9.1961 5.49137 9.1961C6.72611 9.1961 8.28579 9.56866 9.52053 10.2328V6.42624C8.17206 5.8917 6.83984 5.68113 5.49137 5.68113C2.1933 5.68113 0 7.39812 0 10.2652C0 14.7358 6.17372 14.0231 6.17372 15.9507C6.17372 16.6958 5.52386 16.9388 4.61405 16.9388C3.26558 16.9388 1.54343 16.388 0.178713 15.6429V19.4981C1.68965 20.146 3.21684 20.4214 4.61405 20.4214C7.99335 20.4214 10.3166 18.7529 10.3166 15.8535C10.3004 11.0265 4.1104 11.885 4.1104 10.0708Z" fill="#635BFF"/>
</g>
<defs>
<clipPath id="clip0_946_16017">
<rect width="59" height="25" fill="white"/>
</clipPath>
</defs>
</svg>
