<svg fill="none" height="16" viewBox="0 0 16 16" width="16" xmlns="http://www.w3.org/2000/svg"><path d="m2.25 6.81563c0-.36792 0-.55188.0473-.72129.04189-.15006.11074-.29121.20316-.4165.10434-.14144.24916-.25438.53882-.48026l4.33314-3.37912c.22445-.17503.33668-.26255.46061-.2962.10934-.02968.2246-.02968.33394 0 .12393.03365.23616.12117.46061.2962l4.33312 3.37912c.2897.22588.4345.33882.5388.48026.0925.12529.1613.26644.2032.4165.0473.16941.0473.35337.0473.72129v4.63457c0 .7175 0 1.0762-.1393 1.3503-.1225.241-.3179.437-.5584.5599-.2733.1396-.6311.1396-1.3467.1396h-7.41116c-.71562 0-1.07343 0-1.34676-.1396-.24043-.1229-.43591-.3189-.55841-.5599-.13927-.2741-.13927-.6328-.13927-1.3503z" fill="#dfb3ff" stroke="#9e39e5" stroke-linecap="round" stroke-linejoin="round" stroke-width="1.5"/></svg>