<svg fill="none" height="25" viewBox="0 0 25 25" width="25" xmlns="http://www.w3.org/2000/svg"><path d="m3.5 11.4164c0-.5825 0-.8738.07403-1.142.06557-.2376.17334-.46111.318-.65948.16331-.22395.38999-.40277.84336-.76041l6.78231-5.35027c.3513-.27715.527-.41572.721-.46899.1711-.047.3515-.047.5226 0 .194.05327.3697.19184.721.46899l6.7823 5.35027c.4534.35764.6801.53646.8434.76041.1446.19837.2524.42188.318.65948.074.2682.074.5595.074 1.142v7.338c0 1.1361 0 1.7041-.218 2.138-.1917.3817-.4977.692-.874.8865-.4278.2211-.9879.2211-2.108.2211h-11.6c-1.12011 0-1.68016 0-2.10798-.2211-.37633-.1945-.68229-.5048-.87403-.8865-.21799-.4339-.21799-1.0019-.21799-2.138z" fill="#dfb2ff" stroke="#9e39e5" stroke-linecap="round" stroke-linejoin="round" stroke-width="2"/></svg>