<svg width="444" height="362" viewBox="0 0 444 362" fill="none" xmlns="http://www.w3.org/2000/svg">
<path opacity="0.3" d="M214.932 5.85563L202.938 50.2238C118.976 26.2409 53.0063 88.5963 48.2085 186.926C127.372 148.553 199.339 196.519 199.339 267.268C199.339 322.428 157.359 362 104.583 362C42.2112 362 0.230449 309.238 0.230449 213.307C-0.969 63.4143 90.1893 -24.1229 214.932 5.85563ZM443.219 5.85563L431.224 50.2238C347.263 26.2409 281.293 88.5963 276.495 186.926C355.659 148.553 427.626 196.519 427.626 267.268C427.626 322.428 385.645 362 332.869 362C270.498 362 228.517 309.238 228.517 213.307C227.317 63.4143 318.476 -24.1229 443.219 5.85563Z" fill="#DFB3FF"/>
</svg>
