<svg fill="none" height="36" viewBox="0 0 37 36" width="37" xmlns="http://www.w3.org/2000/svg" xmlns:xlink="http://www.w3.org/1999/xlink"><linearGradient id="a" gradientUnits="userSpaceOnUse" x1="18.5" x2="18.5" y1="15.0425" y2="29.4311"><stop offset="0" stop-color="#00d924"/><stop offset="1" stop-color="#00cb1b"/></linearGradient><linearGradient id="b" gradientUnits="userSpaceOnUse" x1="27.5" x2="27.5" y1="6.04263" y2="18.8503"><stop offset=".1562" stop-color="#009c00"/><stop offset="1" stop-color="#00be20"/></linearGradient><linearGradient id="c" gradientUnits="userSpaceOnUse" x1="9.5" x2="9.5" y1="19.4065" y2="5.48525"><stop offset="0" stop-color="#ffe37d"/><stop offset="1" stop-color="#ffc900"/></linearGradient><clipPath id="d"><path d="m.5 0h36v36h-36z"/></clipPath><g clip-path="url(#d)"><path d="m.5 12.1729h36c0 9.9449-8.055 17.9999-18 17.9999s-18-8.055-18-17.9999z" fill="url(#a)"/><path d="m36.5 12.1726c0 2.4863-1.6763 5.2313-6.0863 5.2313-3.8475 0-8.1787-2.6663-11.9137-5.2313 3.96-2.73371 8.3137-6.3337 11.9137-6.3337 3.6788-.01125 6.0863 3.35249 6.0863 6.3337z" fill="url(#b)"/><path d="m.5 12.1721c0 2.4863 1.67625 5.2313 6.08625 5.2313 3.84755 0 8.17875-2.6663 11.91375-5.2313-3.96-2.7337-8.3138-6.34495-11.91375-6.34495-3.67875 0-6.08625 3.36375-6.08625 6.34495z" fill="url(#c)"/></g></svg>