<svg fill="none" height="65" viewBox="0 0 57 65" width="57" xmlns="http://www.w3.org/2000/svg"><path d="m25.7841 55.6953h-2.5503c-.2572 0-.3468.3418-.1225.4679l2.5501 1.4343c.1667.0937.3726-.0267.3726-.2179l.0001-1.4343c0-.138-.1119-.25-.25-.25z" fill="#fff"/><path d="m.942454 0h21.803146v20.7938c9.7313 8.2927 29.3418 25.2495 29.9331 26.7348.7391 1.8566 1.4782 2.9705 2.9563 4.0845 1.4782 1.1139-.739 1.4852-1.4781 2.2279-.7391.7426-1.1087 3.7132-1.4782 5.5697-.3696 1.8566 2.5868 2.9706 1.4782 3.3419-1.1087.3713-10.7168 1.4853-13.3036 1.8566-2.5869.3713-1.4782-.3713-2.9564-4.0845s-8.4995-5.9411-10.7168-7.4264c-2.2173-1.4852-7.3909.7427-7.7604-2.2279-.3696-2.9705-1.8477-5.5697-4.4346-7.7976-2.5868-2.2279-1.4781-4.4558-1.4781-7.055 0-2.5993-3.3259-2.5993-4.43457-5.9411-1.10864-3.3419-5.91272-7.7977-5.91272-10.7682s-2.217256-5.9411-2.956345-7.7977c-.591272-1.4852.246363-4.332.739089-5.56973.886906-1.48526.369546-4.57957 0-5.94107z" fill="#fff"/><path d="m26 21.1953c0-1.3807 1.1193-2.5 2.5-2.5h22c1.3807 0 2.5 1.1193 2.5 2.5v17c0 1.3807-1.1193 2.5-2.5 2.5h-22c-1.3807 0-2.5-1.1193-2.5-2.5z" fill="#3d0566"/><rect fill="#f7c325" height="14" rx="2" width="20" x="30" y="22.6953"/><rect height="15" rx="4.5" stroke="#f7c325" stroke-width="3" width="9" x="35.5" y="14.1953"/><path clip-rule="evenodd" d="m37.5505 33.3983-2.337-2.0702c-.3927-.348-.4471-.9419-.124-1.3549.3526-.452 1.0128-.5123 1.4417-.1322l1.6095 1.4258 4.2197-5.2028c.3419-.4218.9581-.4918 1.3855-.1575.4389.3431.511.9788.1604 1.4113l-4.8738 6.0095c-.3417.4209-.9579.4909-1.3855.1575-.0345-.0272-.0666-.0564-.0965-.0865z" fill="#3d0566" fill-rule="evenodd"/></svg>