<svg width="625" height="625" viewBox="0 0 625 625" fill="none" xmlns="http://www.w3.org/2000/svg">
<path fill-rule="evenodd" clip-rule="evenodd" d="M77.3604 330.687C72.8731 323.739 69.2508 317.722 66.5185 313C69.2508 308.278 72.8731 302.261 77.3604 295.313C88.8859 277.467 105.954 253.735 128.113 230.099C172.888 182.339 235.488 138 313 138C390.512 138 453.112 182.339 497.887 230.099C520.046 253.735 537.114 277.467 548.64 295.313C553.127 302.261 556.749 308.278 559.481 313C556.749 317.722 553.127 323.739 548.64 330.687C537.114 348.533 520.046 372.265 497.887 395.901C453.112 443.661 390.512 488 313 488C235.488 488 172.888 443.661 128.113 395.901C105.954 372.265 88.8859 348.533 77.3604 330.687ZM610.352 301.802C610.356 301.811 610.361 301.82 588 313C610.361 324.18 610.356 324.189 610.352 324.198L610.341 324.22L610.312 324.278L610.258 324.384L610.225 324.449C610.189 324.521 610.145 324.606 610.095 324.705C610.05 324.794 609.998 324.894 609.942 325.004C609.703 325.468 609.366 326.117 608.931 326.939C608.062 328.583 606.799 330.919 605.151 333.85C601.855 339.709 597.004 347.962 590.642 357.813C577.948 377.467 559.079 403.735 534.363 430.099C485.388 482.339 410.488 538 313 538C215.512 538 140.612 482.339 91.6366 430.099C66.9209 403.735 48.0516 377.467 35.3584 357.813C28.9963 347.962 24.1448 339.709 20.8493 333.85C19.2006 330.919 17.9385 328.583 17.0688 326.939C16.6339 326.117 16.2969 325.468 16.0584 325.004C15.9392 324.772 15.8446 324.587 15.7748 324.449L15.6885 324.278L15.6481 324.198C15.6435 324.189 15.6393 324.18 37.9985 313.001L15.6393 324.18C12.1202 317.142 12.1202 308.858 15.6393 301.82L37.9985 312.999C15.6393 301.82 15.6435 301.811 15.6481 301.802L15.6885 301.722L15.7748 301.551C15.8446 301.413 15.9392 301.228 16.0584 300.996C16.2969 300.532 16.6339 299.883 17.0688 299.061C17.9385 297.417 19.2006 295.081 20.8493 292.15C24.1448 286.291 28.9963 278.038 35.3584 268.187C48.0516 248.533 66.9209 222.265 91.6366 195.901C140.612 143.661 215.512 88 313 88C410.488 88 485.388 143.661 534.363 195.901C559.079 222.265 577.948 248.533 590.642 268.187C597.004 278.038 601.855 286.291 605.151 292.15C606.799 295.081 608.062 297.417 608.931 299.061C609.366 299.883 609.703 300.532 609.942 300.996C610.061 301.228 610.155 301.413 610.225 301.551C610.26 301.62 610.289 301.677 610.312 301.722L610.341 301.78L610.352 301.802ZM588 313L610.361 301.82C613.88 308.858 613.88 317.142 610.361 324.18L588 313ZM263 313C263 285.386 285.386 263 313 263C340.614 263 363 285.386 363 313C363 340.614 340.614 363 313 363C285.386 363 263 340.614 263 313ZM313 213C257.772 213 213 257.772 213 313C213 368.228 257.772 413 313 413C368.228 413 413 368.228 413 313C413 257.772 368.228 213 313 213Z" fill="#FBFAFC" style="fill:#FBFAFC;fill:color(display-p3 0.9843 0.9804 0.9882);fill-opacity:1;"/>
</svg>
