<svg fill="none" height="45" viewBox="0 0 45 45" width="45" xmlns="http://www.w3.org/2000/svg"><g stroke="#fff" stroke-width="2"><g stroke-linecap="round"><path d="m21.4992 22.5h-7.9992c-1.1046 0-2-.8954-2-2v-1"/><path d="m21.4992 31h-7.9992c-1.1046 0-2-.8954-2-2v-10"/><path d="m21.4998 30.9998-2.4998 2.5001"/></g><path clip-rule="evenodd" d="m24.5 29.5c0-.5523.4477-1 1-1h6c.5523 0 1 .4477 1 1v3c0 .5523-.4477 1-1 1h-6c-.5523 0-1-.4477-1-1z" fill-rule="evenodd"/><path d="m21.5 31-2.5-2.5" stroke-linecap="round"/><path d="m21.4999 22.4999-2.5002 2.5004" stroke-linecap="round"/><path clip-rule="evenodd" d="m24.5 21c0-.5523.4477-1 1-1h6c.5523 0 1 .4477 1 1v3c0 .5523-.4477 1-1 1h-6c-.5523 0-1-.4477-1-1z" fill-rule="evenodd"/><path d="m21.5 22.5-2.5-2.5" stroke-linecap="round"/><path clip-rule="evenodd" d="m10.5 12c0-.5523.4477-1 1-1h21c.5523 0 1 .4477 1 1v3c0 .5523-.4477 1-1 1h-21c-.5523 0-1-.4477-1-1z" fill-rule="evenodd"/></g></svg>