<svg fill="none" height="71" viewBox="0 0 72 71" width="72" xmlns="http://www.w3.org/2000/svg"><g fill="#f7c325"><path d="m35.3871.217148c.1179-.2895312.5279-.2895305.6458.000001l1.0344 2.539821c.05.1228.1654.20661.2976.21623l2.7352.19891c.3118.02268.4385.41259.1996.61421l-2.0959 1.76861c-.1013.08551-.1454.22111-.1137.34986l.6561 2.66276c.0747.30355-.2569.54452-.5225.3796l-2.3297-1.44676c-.1127-.06995-.2553-.06995-.3679 0l-2.3297 1.44676c-.2656.16492-.5973-.07605-.5225-.3796l.6561-2.66276c.0317-.12875-.0124-.26435-.1137-.34986l-2.0959-1.76861c-.2389-.20162-.1122-.59153.1996-.61421l2.7351-.19891c.1323-.00962.2476-.09343.2976-.21623z"/><path d="m35.3871 62.2171c.1179-.2895.5279-.2895.6458 0l1.0344 2.5399c.05.1228.1654.2066.2976.2162l2.7352.1989c.3118.0227.4385.4126.1996.6142l-2.0959 1.7686c-.1013.0855-.1454.2211-.1137.3499l.6561 2.6628c.0747.3035-.2569.5445-.5225.3795l-2.3297-1.4467c-.1127-.07-.2553-.07-.3679 0l-2.3297 1.4467c-.2656.165-.5973-.076-.5225-.3795l.6561-2.6628c.0317-.1288-.0124-.2644-.1137-.3499l-2.0959-1.7686c-.2389-.2016-.1122-.5915.1996-.6142l2.7351-.1989c.1323-.0096.2476-.0934.2976-.2162z"/><path d="m4.39104 31.2171c.11792-.2895.52789-.2895.64581 0l1.03439 2.5399c.05001.1228.16536.2066.29761.2162l2.73516.1989c.3118.0227.43849.4126.19956.6142l-2.09586 1.7686c-.10134.0855-.1454.2211-.11368.3499l.65603 2.6628c.07478.3035-.25689.5445-.52247.3795l-2.32971-1.4467c-.11265-.07-.25523-.07-.36787 0l-2.32971 1.4467c-.26558.165-.59726-.076-.52247-.3795l.65603-2.6628c.03172-.1288-.01234-.2644-.11368-.3499l-2.09587-1.7686c-.238923-.2016-.1122327-.5915.199567-.6142l2.735153-.1989c.13225-.0096.2476-.0934.29762-.2162z"/><path d="m66.391 31.2171c.118-.2895.5279-.2895.6458 0l1.0344 2.5399c.0501.1228.1654.2066.2977.2162l2.7351.1989c.3118.0227.4385.4126.1996.6142l-2.0959 1.7686c-.1013.0855-.1454.2211-.1137.3499l.6561 2.6628c.0747.3035-.2569.5445-.5225.3795l-2.3297-1.4467c-.1127-.07-.2552-.07-.3679 0l-2.3297 1.4467c-.2656.165-.5973-.076-.5225-.3795l.6561-2.6628c.0317-.1288-.0124-.2644-.1137-.3499l-2.0959-1.7686c-.2389-.2016-.1122-.5915.1996-.6142l2.7351-.1989c.1323-.0096.2476-.0934.2976-.2162z"/><path d="m63.391 16.2171c.118-.2895.5279-.2895.6458 0l1.0344 2.5399c.0501.1228.1654.2066.2977.2162l2.7351.1989c.3118.0227.4385.4126.1996.6142l-2.0959 1.7686c-.1013.0855-.1454.2211-.1137.3499l.6561 2.6628c.0747.3035-.2569.5445-.5225.3795l-2.3297-1.4467c-.1127-.07-.2552-.07-.3679 0l-2.3297 1.4467c-.2656.165-.5973-.076-.5225-.3795l.6561-2.6628c.0317-.1288-.0124-.2644-.1137-.3499l-2.0959-1.7686c-.2389-.2016-.1122-.5915.1996-.6142l2.7351-.1989c.1323-.0096.2476-.0934.2976-.2162z"/><path d="m51.391 6.21715c.118-.28953.5279-.28953.6458 0l1.0344 2.53982c.0501.1228.1654.20661.2977.21623l2.7351.19891c.3118.02268.4385.41259.1996.61421l-2.0959 1.76858c-.1013.0855-.1454.2211-.1137.3499l.6561 2.6628c.0747.3035-.2569.5445-.5225.3795l-2.3297-1.4467c-.1127-.07-.2552-.07-.3679 0l-2.3297 1.4467c-.2656.165-.5973-.076-.5225-.3795l.6561-2.6628c.0317-.1288-.0124-.2644-.1137-.3499l-2.0959-1.76858c-.2389-.20162-.1122-.59153.1996-.61421l2.7351-.19891c.1323-.00962.2476-.09343.2976-.21623z"/><path d="m19.391 6.21715c.118-.28953.5279-.28953.6458 0l1.0344 2.53982c.0501.1228.1654.20661.2977.21623l2.7351.19891c.3118.02268.4385.41259.1996.61421l-2.0959 1.76858c-.1013.0855-.1454.2211-.1137.3499l.6561 2.6628c.0747.3035-.2569.5445-.5225.3795l-2.3297-1.4467c-.1127-.07-.2552-.07-.3679 0l-2.3297 1.4467c-.2656.165-.5973-.076-.5225-.3795l.6561-2.6628c.0317-.1288-.0124-.2644-.1137-.3499l-2.0959-1.76858c-.2389-.20162-.1122-.59153.1996-.61421l2.7351-.19891c.1323-.00962.2476-.09343.2976-.21623z"/><path d="m8.39104 16.2171c.11792-.2895.52789-.2895.64581 0l1.03435 2.5399c.0501.1228.1654.2066.2977.2162l2.7351.1989c.3118.0227.4385.4126.1996.6142l-2.0959 1.7686c-.1013.0855-.1454.2211-.1137.3499l.6561 2.6628c.0747.3035-.2569.5445-.5225.3795l-2.32972-1.4467c-.11265-.07-.25523-.07-.36787 0l-2.32971 1.4467c-.26558.165-.59726-.076-.52247-.3795l.65603-2.6628c.03172-.1288-.01234-.2644-.11368-.3499l-2.09587-1.7686c-.23892-.2016-.11223-.5915.19957-.6142l2.73515-.1989c.13225-.0096.2476-.0934.29762-.2162z"/><path d="m7.39104 47.2171c.11792-.2895.52789-.2895.64581 0l1.03439 2.5399c.05001.1228.16536.2066.29761.2162l2.73515.1989c.3118.0227.4385.4126.1996.6142l-2.0959 1.7686c-.1013.0855-.1454.2211-.1137.3499l.6561 2.6628c.0747.3035-.2569.5445-.5225.3795l-2.32972-1.4467c-.11265-.07-.25523-.07-.36787 0l-2.32971 1.4467c-.26558.165-.59726-.076-.52247-.3795l.65603-2.6628c.03172-.1288-.01234-.2644-.11368-.3499l-2.09587-1.7686c-.23892-.2016-.11223-.5915.19957-.6142l2.73515-.1989c.13225-.0096.2476-.0934.29762-.2162z"/><path d="m17.391 60.2171c.118-.2895.5279-.2895.6458 0l1.0344 2.5399c.0501.1228.1654.2066.2977.2162l2.7351.1989c.3118.0227.4385.4126.1996.6142l-2.0959 1.7686c-.1013.0855-.1454.2211-.1137.3499l.6561 2.6628c.0747.3035-.2569.5445-.5225.3795l-2.3297-1.4467c-.1127-.07-.2552-.07-.3679 0l-2.3297 1.4467c-.2656.165-.5973-.076-.5225-.3795l.6561-2.6628c.0317-.1288-.0124-.2644-.1137-.3499l-2.0959-1.7686c-.2389-.2016-.1122-.5915.1996-.6142l2.7351-.1989c.1323-.0096.2476-.0934.2976-.2162z"/><path d="m63.391 46.2171c.118-.2895.5279-.2895.6458 0l1.0344 2.5399c.0501.1228.1654.2066.2977.2162l2.7351.1989c.3118.0227.4385.4126.1996.6142l-2.0959 1.7686c-.1013.0855-.1454.2211-.1137.3499l.6561 2.6628c.0747.3035-.2569.5445-.5225.3795l-2.3297-1.4467c-.1127-.07-.2552-.07-.3679 0l-2.3297 1.4467c-.2656.165-.5973-.076-.5225-.3795l.6561-2.6628c.0317-.1288-.0124-.2644-.1137-.3499l-2.0959-1.7686c-.2389-.2016-.1122-.5915.1996-.6142l2.7351-.1989c.1323-.0096.2476-.0934.2976-.2162z"/><path d="m53.391 59.2171c.118-.2895.5279-.2895.6458 0l1.0344 2.5399c.0501.1228.1654.2066.2977.2162l2.7351.1989c.3118.0227.4385.4126.1996.6142l-2.0959 1.7686c-.1013.0855-.1454.2211-.1137.3499l.6561 2.6628c.0747.3035-.2569.5445-.5225.3795l-2.3297-1.4467c-.1127-.07-.2552-.07-.3679 0l-2.3297 1.4467c-.2656.165-.5973-.076-.5225-.3795l.6561-2.6628c.0317-.1288-.0124-.2644-.1137-.3499l-2.0959-1.7686c-.2389-.2016-.1122-.5915.1996-.6142l2.7351-.1989c.1323-.0096.2476-.0934.2976-.2162z"/></g><rect fill="#fff" height="14" rx="2" width="20" x="25.6797" y="34"/><rect height="15" rx="4.5" stroke="#fff" stroke-width="3" width="9" x="31.1797" y="25.5"/><path clip-rule="evenodd" d="m34.2302 44.703-2.337-2.0703c-.3927-.3479-.4471-.9418-.124-1.3549.3526-.4519 1.0128-.5122 1.4417-.1321l1.6095 1.4258 4.2197-5.2028c.3419-.4218.9581-.4918 1.3855-.1575.4388.3431.511.9788.1604 1.4113l-4.8738 6.0095c-.3417.4209-.9579.4909-1.3855.1575-.0345-.0272-.0666-.0564-.0965-.0865z" fill="#3d0566" fill-rule="evenodd"/></svg>