<svg width="112" height="112" viewBox="0 0 112 112" fill="none" xmlns="http://www.w3.org/2000/svg">
<path fill-rule="evenodd" clip-rule="evenodd" d="M56.0004 0C25.0602 0 0 25.0598 0 55.9996C0 80.7794 16.0301 101.709 38.2903 109.129C41.0903 109.619 42.1403 107.939 42.1403 106.469C42.1403 105.139 42.0703 100.729 42.0703 96.0392C28.0002 98.6292 24.3602 92.6093 23.2402 89.4593C22.6102 87.8493 19.8802 82.8793 17.5001 81.5493C15.5401 80.4994 12.7401 77.9094 17.4301 77.8394C21.8402 77.7694 24.9902 81.8993 26.0402 83.5793C31.0802 92.0493 39.1303 89.6693 42.3503 88.1993C42.8403 84.5593 44.3103 82.1093 45.9204 80.7094C33.4603 79.3094 20.4402 74.4794 20.4402 53.0596C20.4402 46.9696 22.6102 41.9297 26.1802 38.0097C25.6202 36.6097 23.6602 30.8698 26.7402 23.1698C26.7402 23.1698 31.4302 21.6998 42.1403 28.9098C46.6204 27.6498 51.3804 27.0198 56.1404 27.0198C60.9005 27.0198 65.6605 27.6498 70.1406 28.9098C80.8506 21.6298 85.5407 23.1698 85.5407 23.1698C88.6207 30.8698 86.6607 36.6097 86.1007 38.0097C89.6707 41.9297 91.8407 46.8996 91.8407 53.0596C91.8407 74.5494 78.7506 79.3094 66.2905 80.7094C68.3205 82.4593 70.0706 85.8193 70.0706 91.0693C70.0706 98.5592 70.0006 104.579 70.0006 106.469C70.0006 107.939 71.0506 109.689 73.8506 109.129C95.9708 101.709 112.001 80.7094 112.001 55.9996C112.001 25.0598 86.9407 0 56.0004 0Z" fill="#1B1F23" style="fill:#1B1F23;fill:color(display-p3 0.1059 0.1216 0.1373);fill-opacity:1;"/>
</svg>
