<svg width="625" height="625" viewBox="0 0 625 625" fill="none" xmlns="http://www.w3.org/2000/svg">
<path fill-rule="evenodd" clip-rule="evenodd" d="M88.8732 287.5H188.752C194.357 218.42 217.478 152.111 255.643 94.7457C166.72 117.899 99.2002 194.081 88.8732 287.5ZM312.5 101.27C270.758 155.048 245.22 219.671 238.94 287.5H386.06C379.78 219.671 354.242 155.048 312.5 101.27ZM386.06 337.5C379.78 405.329 354.242 469.952 312.5 523.73C270.758 469.952 245.22 405.329 238.94 337.5H386.06ZM188.752 337.5H88.8732C99.2002 430.919 166.72 507.101 255.643 530.254C217.478 472.889 194.357 406.58 188.752 337.5ZM369.357 530.254C407.522 472.889 430.643 406.58 436.248 337.5H536.127C525.8 430.919 458.28 507.101 369.357 530.254ZM536.127 287.5H436.248C430.643 218.42 407.522 152.111 369.357 94.7457C458.28 117.899 525.8 194.081 536.127 287.5ZM37.5 312.5C37.5 160.622 160.622 37.5 312.5 37.5C464.378 37.5 587.5 160.622 587.5 312.5C587.5 464.378 464.378 587.5 312.5 587.5C160.622 587.5 37.5 464.378 37.5 312.5Z" fill="#FBFAFC" style="fill:#FBFAFC;fill:color(display-p3 0.9843 0.9804 0.9882);fill-opacity:1;"/>
</svg>
