<svg width="625" height="625" viewBox="0 0 625 625" fill="none" xmlns="http://www.w3.org/2000/svg">
<path fill-rule="evenodd" clip-rule="evenodd" d="M451.402 55.9178C427.474 28.0723 388.291 14.9333 349.212 33.6512C303.819 55.3932 284.059 107.526 303.261 153.258C312.939 176.308 339.13 218.361 356.408 245.304L356.809 245.93C359.726 250.481 362.666 255.066 365.531 258.818C368.775 263.066 372.911 267.61 378.781 271.277C387.081 276.461 397.103 279.159 406.889 278.834C413.815 278.604 419.674 276.74 424.609 274.685C428.965 272.871 433.799 270.373 438.591 267.897L439.253 267.555C467.634 252.894 511.278 229.613 531.153 214.5C570.356 184.689 580.258 129.416 550.803 87.6132C525.983 52.3876 485.985 43.8009 451.402 55.9178ZM420.212 98.8597C410.141 77.7067 389.609 69.7416 370.81 78.7454C349.296 89.0504 340.551 112.918 349.362 133.902C356.997 152.085 380.407 190.103 398.497 218.314C401.982 223.749 403.805 226.555 405.268 228.471C405.289 228.498 405.31 228.525 405.33 228.551C405.35 228.543 405.371 228.534 405.392 228.525C407.607 227.603 410.577 226.091 416.305 223.132C446.029 207.777 485.23 186.607 500.888 174.7C519.182 160.789 523.521 135.701 509.93 116.413C497.426 98.6666 475.892 95.6661 456.965 108.702C450.935 112.854 443.389 114.155 436.317 112.261C429.246 110.368 423.36 105.47 420.212 98.8597ZM102.201 299.172H123.799C130.107 299.171 136.255 299.17 141.463 299.597C147.185 300.067 153.939 301.174 160.733 304.648C170.148 309.463 177.786 317.138 182.567 326.556C184.543 330.447 185.747 334.324 186.502 338.003L226.283 321.306C226.353 321.274 226.432 321.239 226.52 321.199C226.9 321.028 227.439 320.786 228.121 320.485C229.482 319.884 231.42 319.041 233.808 318.037C238.567 316.037 245.199 313.361 252.681 310.669C266.503 305.697 287.177 299.172 304.079 299.172C316.065 299.172 327.989 300.604 339.628 303.438L399.264 317.994C399.269 317.995 399.275 317.997 399.28 317.998C426.676 324.673 446.762 348.342 448.123 376.545L485.164 349.422C510.661 330.761 546.257 333.171 568.912 355.29C594.352 380.128 594.376 420.656 568.903 445.491C568.901 445.493 568.899 445.495 568.897 445.497L514.974 498.145C496.926 515.765 473.981 527.724 449.122 532.584L449.116 532.586L372.87 547.474C354.222 551.109 334.983 550.674 316.499 546.157C316.494 546.156 316.489 546.155 316.485 546.153L247.547 529.339L247.489 529.325C241.219 527.78 234.772 527.003 228.257 527.003H187.677C187.647 527.462 187.613 527.915 187.577 528.361C187.111 534.084 186.013 540.829 182.567 547.616C177.786 557.034 170.148 564.708 160.733 569.523C153.939 572.998 147.185 574.105 141.463 574.574C136.256 575.002 130.107 575.001 123.8 575H102.201C95.8928 575.001 89.7446 575.002 84.5369 574.574C78.8148 574.105 72.0612 572.998 65.2675 569.523C55.852 564.708 48.2141 557.034 43.433 547.616C39.9873 540.829 38.889 534.084 38.4232 528.361C37.9986 523.146 37.9993 516.986 38.0001 510.649V363.522C37.9993 357.186 37.9986 351.026 38.4232 345.81C38.889 340.087 39.9873 333.343 43.433 326.556C48.2141 317.138 55.852 309.463 65.2675 304.648C72.0612 301.174 78.8148 300.066 84.5369 299.597C89.7447 299.17 95.8928 299.171 102.201 299.172ZM188 477.003H228.257C238.749 477.003 249.205 478.255 259.422 480.77C259.432 480.772 259.442 480.775 259.451 480.777L328.36 497.584C339.794 500.38 351.722 500.655 363.304 498.398L439.527 483.514C454.946 480.499 469.053 473.1 480.044 462.369L533.998 409.691C539.326 404.498 539.348 396.304 533.983 391.066C528.902 386.106 520.58 385.466 514.699 389.767C514.697 389.768 514.695 389.769 514.693 389.77L451.854 435.785C451.852 435.787 451.85 435.788 451.848 435.79C438.5 445.58 422.353 450.79 405.841 450.79H345.138C331.331 450.79 320.138 439.598 320.138 425.791C320.137 411.984 331.33 400.791 345.137 400.79L383.777 400.788C392.316 400.788 398.197 394.197 398.197 387.301V379.604C398.197 373.835 394.126 368.203 387.44 366.576L387.424 366.572L327.802 352.019L327.798 352.018C320.027 350.127 312.074 349.172 304.079 349.172C296.86 349.172 283.643 352.668 269.605 357.718C263.156 360.038 257.366 362.372 253.185 364.13C251.102 365.006 249.441 365.729 248.321 366.223C247.761 366.47 247.338 366.66 247.068 366.782C246.986 366.819 246.918 366.85 246.864 366.874L246.728 366.936L246.724 366.938C246.726 366.937 188 391.6 188 391.6M188 391.6V477.003ZM188 391.6L245.973 367.267C246.224 367.162 246.473 367.053 246.72 366.939L246.721 366.939L246.724 366.938M138 375.559V509.853C138 517.29 137.981 521.37 137.742 524.305C137.73 524.45 137.718 524.586 137.706 524.713C137.603 524.723 137.493 524.732 137.377 524.742C134.467 524.98 130.415 525 123 525H103C95.5854 525 91.5335 524.98 88.6234 524.742C88.5074 524.732 88.3977 524.723 88.2941 524.713C88.2822 524.586 88.2702 524.45 88.2583 524.305C88.0194 521.37 88.0001 517.29 88.0001 509.853V364.319C88.0001 356.882 88.0194 352.802 88.2583 349.867C88.2702 349.721 88.2822 349.585 88.2941 349.459C88.3978 349.449 88.5075 349.439 88.6234 349.43C91.5335 349.191 95.5854 349.172 103 349.172H123C130.415 349.172 134.467 349.191 137.377 349.43C137.493 349.44 137.602 349.449 137.706 349.459C137.718 349.585 137.73 349.721 137.742 349.867C137.981 352.802 138 356.882 138 364.319V374.423C137.992 374.801 137.991 375.179 138 375.559Z" fill="#FBFAFC" style="fill:#FBFAFC;fill:color(display-p3 0.9843 0.9804 0.9882);fill-opacity:1;"/>
</svg>
