<svg fill="none" height="64" viewBox="0 0 64 64" width="64" xmlns="http://www.w3.org/2000/svg"><path d="m41.1487 33.4448c0 .234-.0896.4584-.2491.6239-.1596.1654-.376.2584-.6016.2584-.2257 0-.4421-.093-.6017-.2584-.1595-.1655-.2492-.3899-.2492-.6239v-7.8823c0-.234.0897-.4584.2492-.6238.1596-.1655.376-.2585.6017-.2585.2256 0 .442.093.6016.2585.1595.1654.2491.3898.2491.6238zm-.2953 5.4614c-.1125.1167-3.2766 2.8511-9.0774 2.8511-5.8009 0-8.9439-2.7198-9.0775-2.8365-.0842-.0736-.1535-.1637-.2041-.2652-.0505-.1015-.0812-.2123-.0904-.3261-.0091-.1138.0035-.2284.0371-.3371s.0877-.2095.1589-.2966c.1469-.1762.3549-.285.5789-.3028.2239-.0178.4455.057.6165.208.0492.0365 2.8758 2.4135 7.9735 2.4135s7.9454-2.3916 7.9736-2.4135c.1728-.1496.3952-.2234.6197-.2057s.4336.1255.5826.3005c.1435.1736.2151.3988.1993.6269-.0158.228-.1177.4403-.2836.5908zm-18.4573-13.3437c.0127-.2347.1146-.4547.2832-.6118.1687-.1571.3904-.2386.6169-.2267.2099.0123.4079.1049.5559.2597.148.1549.2355.361.2456.5788v7.8677c0 .234-.0896.4584-.2492.6239-.1595.1655-.3759.2584-.6016.2584-.2256 0-.442-.0929-.6016-.2584-.1595-.1655-.2492-.3899-.2492-.6239zm4.2681-1.7499c.0127-.2348.1145-.4548.2831-.6119.1687-.1571.3905-.2386.6169-.2267.2099.0123.4079.1049.556.2597.148.1549.2355.3611.2455.5789v11.6666c0 .2339-.0896.4584-.2491.6238-.1596.1655-.376.2584-.6016.2584-.2257 0-.4421-.0929-.6016-.2584-.1596-.1654-.2492-.3899-.2492-.6238zm4.2891-.4375c0-.2341.0896-.4585.2492-.6239.1595-.1655.3759-.2585.6016-.2585.2256 0 .442.093.6016.2585.1595.1654.2492.3898.2492.6239v12.6874c0 .234-.0897.4584-.2492.6238-.1596.1655-.376.2585-.6016.2585-.2257 0-.4421-.093-.6016-.2585-.1596-.1654-.2492-.3898-.2492-.6238zm4.2188.4375c0-.2341.0896-.4585.2492-.6239.1596-.1655.376-.2585.6016-.2585s.4421.093.6016.2585c.1595.1654.2492.3898.2492.6239v11.6666c0 .2339-.0897.4584-.2492.6238-.1595.1655-.376.2584-.6016.2584s-.442-.0929-.6016-.2584c-.1596-.1654-.2492-.3899-.2492-.6238zm6.2087-4.8125h-19.1815c-.418-.0029-.8324.0797-1.2195.2432-.3871.1634-.7393.4044-1.0365.7092s-.5335.6673-.6953 1.067c-.1619.3996-.2461.8284-.248 1.2618v19.6874c.0019.4334.0861.8623.248 1.2618.1618.3997.3981.7622.6953 1.0671.2972.3047.6494.5457 1.0365.7092.3871.1634.8015.2459 1.2195.2431h19.1815c.4174.0028.8312-.0795 1.2178-.2424.3867-.163.7386-.4034 1.0357-.7074s.5335-.6657.6958-1.0645c.1622-.3988.2472-.8268.2499-1.2596v-19.6947c-.0018-.4328-.0858-.861-.2473-1.2602-.1614-.3991-.397-.7613-.6935-1.0661-.2964-.3046-.6478-.5458-1.0341-.7096-.3863-.1639-.7999-.2473-1.2173-.2453" fill="#fff"/></svg>