<svg fill="none" height="22" viewBox="0 0 110 22" width="110" xmlns="http://www.w3.org/2000/svg" xmlns:xlink="http://www.w3.org/1999/xlink"><filter id="a" color-interpolation-filters="sRGB" filterUnits="userSpaceOnUse" height="26.4865" width="26.4084" x="5.06338" y="-2.24326"><feFlood flood-opacity="0" result="BackgroundImageFix"/><feColorMatrix in="SourceAlpha" result="hardAlpha" type="matrix" values="0 0 0 0 0 0 0 0 0 0 0 0 0 0 0 0 0 0 127 0"/><feOffset/><feGaussianBlur stdDeviation="1.52788"/><feColorMatrix type="matrix" values="0 0 0 0 0 0 0 0 0 0 0 0 0 0 0 0 0 0 0.3 0"/><feBlend in2="BackgroundImageFix" mode="normal" result="effect1_dropShadow_1255_21270"/><feBlend in="SourceGraphic" in2="effect1_dropShadow_1255_21270" mode="normal" result="shape"/></filter><mask id="b" height="22" maskUnits="userSpaceOnUse" width="21" x="0" y="0"><path clip-rule="evenodd" d="m11.033 3.78467c-.2089-.20968-.5477-.20968-.7566 0l-6.80915 6.83393c-.20892.2097-.20892.5497 0 .7594l6.80915 6.8339c.2089.2097.5477.2097.7566 0l6.8091-6.8339c.209-.2097.209-.5497 0-.7594zm.3783-2.65765c-.4179-.419362-1.0953-.419361-1.51318 0l-9.078878 9.11198c-.417843.4193-.417844 1.0993 0 1.5186l9.078878 9.112c.41788.4193 1.09528.4193 1.51318 0l9.0788-9.112c.4179-.4193.4179-1.0993 0-1.5186z" fill="#220a33" fill-rule="evenodd"/></mask><path clip-rule="evenodd" d="m11.031 3.78467c-.2089-.20968-.5476-.20968-.7565 0l-6.80921 6.83393c-.20892.2097-.20892.5497 0 .7594l6.80921 6.8339c.2089.2097.5476.2097.7565 0l6.8092-6.8339c.2089-.2097.2089-.5497 0-.7594zm.3783-2.65765c-.4178-.419362-1.0953-.419361-1.51313 0l-9.078881 9.11198c-.417844.4193-.417844 1.0993 0 1.5186l9.078881 9.112c.41783.4193 1.09533.4193 1.51313 0l9.0789-9.112c.4178-.4193.4178-1.0993 0-1.5186z" fill="#fff" fill-rule="evenodd"/><g mask="url(#b)"><g filter="url(#a)"><path d="m17.5114 1.12702c.4178-.419361 1.0953-.419362 1.5131 0l9.0789 9.11198c.4179.4193.4179 1.0993 0 1.5186l-9.0789 9.112c-.4178.4193-1.0953.4193-1.5131 0l-9.07888-9.112c-.41784-.4193-.41784-1.0993 0-1.5186z" fill="#000"/></g></g><g fill="#fff"><path d="m17.5094 1.12702c.4179-.419361 1.0954-.419361 1.5132 0l9.0789 9.11198c.4178.4193.4178 1.0993 0 1.5186l-9.0789 9.112c-.4178.4193-1.0953.4193-1.5132 0l-9.07883-9.112c-.41784-.4193-.41784-1.0993 0-1.5186z"/><path d="m109.986 16.4887c0 .1229-.099.2224-.222.2224h-2.005c-.123 0-.223-.0995-.223-.2224v-11.4357c0-.12282.1-.22238.223-.22238h2.005c.123 0 .222.09956.222.22238z"/><path clip-rule="evenodd" d="m100.97 16.9513c-1.7129 0-2.7074-.9287-2.7074-2.3377s.9945-2.4337 3.4444-2.6899l1.585-.1921c.384-.0321.64-.2562.64-.5925 0-.7045-.608-1.1688-1.489-1.1688-.897 0-1.546.5757-1.721 1.2896-.031.1239-.146.2151-.272.1956l-1.9484-.3007c-.1155-.0178-.1985-.1225-.1803-.238.2504-1.58989 1.8007-2.72377 4.0577-2.72377 2.402 0 3.955 1.2649 3.955 3.31437v4.9813c0 .1229-.099.2224-.222.2224h-1.579c-.1 0-.187-.066-.214-.1616l-.352-1.2388c-.002-.0051-.006-.0086-.011-.0086s-.009.0024-.011.0062c-.529.9734-1.601 1.643-2.975 1.643zm.929-1.6812c1.153 0 1.985-.8006 1.985-1.9054v-.0875c0-.1326-.115-.2358-.247-.221l-1.322.1484c-1.361.1601-1.825.5924-1.825 1.1208 0 .5604.592.9447 1.409.9447z" fill-rule="evenodd"/><path d="m89.1067 12.6122c0 2.6259 1.7773 4.4192 4.4192 4.4192 2.2582 0 3.9785-1.3448 4.2949-3.3414.0188-.1184-.0659-.2264-.1846-.2432l-1.8348-.2584c-.1239-.0174-.2367.0711-.262.1937-.2051.9971-.979 1.6638-1.9334 1.6638-1.1849 0-2.0495-.9767-2.0655-2.4337 0-1.4571.8005-2.4338 1.9053-2.4338.7686 0 1.4417.4913 1.6792 1.4107.0327.1266.1592.2103.2858.1775l1.7877-.463c.1136-.0295.1855-.1425.157-.2564-.4286-1.71257-1.9862-2.85417-3.9737-2.85417-2.5458 0-4.2751 1.79328-4.2751 4.41917z"/><path d="m88.1124 16.4887c0 .1229-.0995.2224-.2223.2224h-1.989c-.1228 0-.2224-.0995-.2224-.2224v-7.75306c0-.12282.0996-.22238.2224-.22238h1.989c.1228 0 .2223.09956.2223.22238z"/><path d="m76.7498 14.376c.2253 1.6921 1.8754 2.6233 3.9984 2.6233 2.3537 0 3.9869-1.0887 3.9869-2.786 0-1.3609-.8806-2.0975-2.9461-2.4657l-1.2169-.2082c-.9767-.1761-1.393-.4323-1.393-.8486.016-.4963.5924-.89663 1.361-.89663.7804 0 1.3848.35203 1.5568.92253.0368.1221.1505.2148.2767.1963l1.6295-.2381c.1213-.0178.2065-.131.1778-.2502-.3171-1.32063-1.7228-2.19966-3.5608-2.19966-2.0975 0-3.5225 1.02474-3.5225 2.68996 0 1.3449.7686 2.0334 2.5779 2.3216l1.2168.1922c1.1529.1921 1.6492.4803 1.6492.9767 0 .5604-.7365.9607-1.6492.9607-1.008 0-1.8028-.4666-1.995-1.2172-.031-.1208-.1403-.2124-.2642-.1984l-1.6937.191c-.1177.0133-.2053.117-.1896.2344z"/><path d="m65.1348 16.4887c0 .1229-.0996.2224-.2224.2224h-2.005c-.1228 0-.2224-.0995-.2224-.2224v-7.75307c0-.12281.0996-.22238.2224-.22238h1.5729c.1023 0 .1914.06973.2159.16899l.3244 1.3117c.0012.00492.0056.00836.0107.00836.0045 0 .0085-.00271.0102-.00683.4501-1.08462 1.5369-1.72239 2.7992-1.72239 1.2778 0 2.1254.62142 2.4792 1.78482.0015.005.0061.0085.0114.0085.0044 0 .0085-.0026.0105-.0065.625-1.21245 1.7121-1.78682 2.9588-1.78682 1.6172 0 2.5779 1.08878 2.5779 2.94612v5.2695c0 .1229-.0996.2224-.2224.2224h-2.005c-.1228 0-.2224-.0995-.2224-.2224v-4.7251c0-.8967-.4964-1.425-1.3129-1.425-1.0248 0-1.6172.7525-1.6172 1.8733v4.2768c0 .1229-.0996.2224-.2224.2224h-1.989c-.1228 0-.2223-.0995-.2223-.2224v-4.7251c0-.8967-.4964-1.425-1.329-1.425-1.0087 0-1.6011.7525-1.6011 1.8733z"/><path d="m60.9737 16.7111c.1229 0 .2224-.0995.2224-.2224v-7.75306c0-.12282-.0995-.22238-.2224-.22238h-1.9889c-.1229 0-.2224.09956-.2224.22238v7.75306c0 .1229.0995.2224.2224.2224z"/><path d="m51.72 16.4887c0 .1229-.0996.2224-.2224.2224h-2.005c-.1228 0-.2224-.0995-.2224-.2224v-11.00873c0-.12282.0996-.22239.2224-.22239h2.005c.1228 0 .2224.09957.2224.22239v4.51234c0 .00553.0045.00999.01.00999.0037 0 .0071-.002.0088-.00528.5929-1.10149 1.6004-1.72394 2.8953-1.72394 1.6812 0 2.7059 1.04075 2.7059 2.78602v5.4296c0 .1229-.0996.2224-.2224.2224h-2.005c-.1228 0-.2223-.0995-.2223-.2224v-4.6771c0-.9286-.5284-1.5051-1.377-1.5051-1.0568 0-1.7933.7526-1.7933 1.8734z"/><path d="m37.3163 16.7111c.1022 0 .1912-.0696.2158-.1687l2.1318-8.57404c.0022-.00911.0104-.01551.0198-.01551s.0176.00643.0199.01558l2.1002 8.57327c.0243.0995.1135.1694.216.1694h3.1964c.0992 0 .1865-.0657.2138-.1611l3.1389-10.95541c.0407-.1421-.066-.28364-.2138-.28364h-2.3176c-.1019 0-.1908.06926-.2157.16808l-2.1793 8.65477c-.0023.0091-.0105.0155-.0199.0155-.0095 0-.0177-.0064-.02-.0155l-2.1793-8.65477c-.0249-.09882-.1138-.16808-.2157-.16808h-3.0792c-.1022 0-.1912.06964-.2158.16882l-2.1478 8.65393c-.0023.0091-.0105.0156-.02.0156-.0093 0-.0175-.0064-.0199-.0155l-2.2267-8.65587c-.0253-.09828-.1139-.16698-.2153-.16698h-2.3026c-.1478 0-.2545.14154-.2137.28364l3.1389 10.95541c.0273.0954.1145.1611.2137.1611z"/><path d="m59.6609 4.21621c.1737-.1737.4553-.1737.629 0l1.258 1.25798c.1737.17369.1737.4553 0 .62899l-1.258 1.25798c-.1737.17369-.4553.17369-.629 0l-1.2579-1.25798c-.1737-.17369-.1737-.4553 0-.62899z"/><path d="m86.5375 4.21621c.1737-.17369.4553-.17369.629 0l1.258 1.25798c.1737.17369.1737.4553 0 .62899l-1.258 1.25798c-.1737.17369-.4553.17369-.629 0l-1.258-1.25798c-.1737-.17369-.1737-.4553 0-.62899z"/></g></svg>