<svg width="112" height="112" viewBox="0 0 112 112" fill="none" xmlns="http://www.w3.org/2000/svg">
<path d="M112 50.1379H77.8812L107.428 33.0768L101.569 22.9223L72.0181 39.9834L89.0738 10.4345L78.9225 4.57326L61.8631 34.1147V0L50.1369 0V34.1184L33.0775 4.57326L22.9225 10.4345L39.9781 39.9759L10.4349 22.9223L4.57181 33.0768L34.1188 50.1379H0L0 61.8641H34.115L4.57181 78.9251L10.4312 89.0797L39.9819 72.0186L22.9225 101.567L33.0738 107.429L50.1369 77.8836V111.998H61.8631V77.1518L79.236 107.242L88.7565 101.747L71.3799 71.649L101.561 89.0759L107.424 78.9214L77.8812 61.8603H111.996V50.1379H112V50.1379ZM56 71.9402C53.9068 71.9404 51.834 71.5283 49.9 70.7272C47.966 69.9261 46.2087 68.7518 44.7283 67.2714C43.248 65.7909 42.0737 64.0333 41.2724 62.0989C40.4712 60.1645 40.0586 58.0911 40.0584 55.9972C40.0581 53.9033 40.4702 51.8299 41.271 49.8953C42.0718 47.9607 43.2457 46.2028 44.7257 44.722C46.2057 43.2412 47.9627 42.0665 49.8965 41.265C51.8303 40.4635 53.903 40.0508 55.9963 40.0506C60.2238 40.0501 64.2783 41.7295 67.2679 44.7194C70.2576 47.7093 71.9374 51.7647 71.9379 55.9935C71.9384 60.2223 70.2595 64.2782 67.2706 67.2687C64.2816 70.2593 60.2275 71.9397 56 71.9402V71.9402Z" fill="#625DF5" style="fill:#625DF5;fill:color(display-p3 0.3843 0.3647 0.9608);fill-opacity:1;"/>
</svg>
