<svg fill="none" height="45" viewBox="0 0 45 45" width="45" xmlns="http://www.w3.org/2000/svg"><path d="m34 28.5h-2.3431c-1.0609 0-2.0783-.4214-2.8285-1.1716l-2.8284-2.8284" stroke="#fff" stroke-linecap="round" stroke-width="2"/><path d="m34.58 21.5h-8.3903c-.3809 0-.6897.4477-.6897 1s.3088 1 .6897 1h8.3903c.5081 0 .92-.4119.92-.92v-.16c0-.5081-.4119-.92-.92-.92z" fill="#fff"/><path d="m26 19.5v6c0 1.1046-.8954 2-2 2h-12c-1.1046 0-2-.8954-2-2v-6c0-1.1046.8954-2 2-2h12c1.1046 0 2 .8954 2 2z" stroke="#fff" stroke-width="2"/><rect fill="#fff" height="2" rx="1" width="8" x="14" y="21.5"/><path d="m34 16.5h-2.3431c-1.0609 0-2.0783.4214-2.8285 1.1716l-2.8284 2.8284" stroke="#fff" stroke-linecap="round" stroke-width="2"/></svg>