<svg width="112" height="112" viewBox="0 0 112 112" fill="none" xmlns="http://www.w3.org/2000/svg">
<path fill-rule="evenodd" clip-rule="evenodd" d="M71.5106 0.254617L9.53747 4.83167C4.53856 5.26473 2.79883 8.53139 2.79883 12.4476V80.3866C2.79883 83.4367 3.88149 86.0463 6.49482 89.5332L21.0622 108.476C23.4553 111.526 25.6318 112.18 30.2014 111.963L102.169 107.606C108.254 107.173 109.997 104.34 109.997 99.5497V23.1175C109.997 20.6423 109.019 19.9292 106.141 17.8162C105.975 17.6968 105.81 17.5774 105.644 17.4578L85.8652 3.52127C81.0791 0.0418177 79.1228 -0.398714 71.5106 0.254617V0.254617ZM31.8291 21.8668C25.9529 22.2625 24.6201 22.3521 21.2825 19.638L12.7967 12.8882C11.9343 12.0146 12.3673 10.9244 14.5401 10.7079L74.1164 6.35486C79.1191 5.91806 81.725 7.66152 83.6812 9.18472L93.8993 16.5879C94.3361 16.8082 95.4225 18.1111 94.1158 18.1111L32.5907 21.8145L31.8291 21.8668V21.8668ZM24.9785 98.8964V34.0113C24.9785 31.1777 25.8483 29.871 28.4542 29.6508L99.1185 25.5143C101.515 25.2977 102.598 26.8209 102.598 29.6508V94.1028C102.598 96.9364 102.161 99.3332 98.2486 99.5497L30.627 103.47C26.7145 103.686 24.9785 102.383 24.9785 98.8964V98.8964ZM91.7302 37.4907C92.1633 39.4507 91.7302 41.4107 89.7703 41.6347L86.5111 42.2806V90.1865C83.6812 91.7097 81.0754 92.5796 78.8988 92.5796C75.4194 92.5796 74.5495 91.4895 71.9437 88.2266L50.6301 54.6939V87.1364L57.3725 88.6634C57.3725 88.6634 57.3725 92.5833 51.9331 92.5833L36.9363 93.4532C36.4995 92.5796 36.9363 90.4031 38.4558 89.97L42.372 88.8836V45.9878L36.9363 45.5472C36.4995 43.5873 37.5859 40.7574 40.6323 40.5371L56.7229 39.4545L78.8988 73.4202V43.3707L73.2466 42.7211C72.8098 40.3206 74.5495 38.5771 76.7223 38.3643L91.7302 37.4907V37.4907Z" fill="black" style="fill:black;fill-opacity:1;"/>
</svg>
