<svg width="625" height="625" viewBox="0 0 625 625" fill="none" xmlns="http://www.w3.org/2000/svg">
<path fill-rule="evenodd" clip-rule="evenodd" d="M505.373 244.889L512.574 252.09L552.219 212.445L412.574 72.8008L372.929 112.445L380.13 119.646C380.171 119.687 380.212 119.727 380.252 119.767L505.252 244.767L505.31 244.826L505.373 244.889ZM505.248 301.554C520.361 303.78 536.298 299.077 547.929 287.445L587.574 247.801C607.1 228.275 607.1 196.616 587.574 177.09L447.929 37.4454C428.403 17.9192 396.745 17.9192 377.219 37.4454L337.574 77.0901C325.942 88.7218 321.24 104.659 323.466 119.772L201.478 144.169C172.842 149.896 150.133 171.726 143.281 200.115L63.3821 531.125C63.0063 532.568 62.762 534.039 62.6484 535.518C62.5852 536.335 62.5624 537.151 62.5793 537.963C62.7075 544.188 65.1464 550.373 69.8963 555.123C74.3817 559.609 80.1475 562.033 86.0171 562.397C86.8914 562.452 87.7707 562.46 88.6517 562.422C90.4176 562.347 92.1771 562.085 93.898 561.637L424.905 481.738C453.294 474.886 475.123 452.178 480.85 423.541L505.248 301.554ZM191.885 211.847L132.725 456.939L244.883 344.781C240.198 334.99 237.574 324.024 237.574 312.446C237.574 271.024 271.153 237.446 312.574 237.446C353.995 237.446 387.574 271.024 387.574 312.446C387.574 353.867 353.995 387.446 312.574 387.446C300.995 387.446 290.029 384.822 280.239 380.136L168.08 492.295L413.173 433.134C422.636 430.85 429.912 423.281 431.821 413.735L460.436 270.663L354.357 164.584L211.284 193.198C201.739 195.107 194.169 202.384 191.885 211.847ZM294.902 330.118C295.005 330.221 295.108 330.326 295.209 330.431C299.706 334.774 305.828 337.446 312.574 337.446C326.381 337.446 337.574 326.253 337.574 312.446C337.574 298.638 326.381 287.446 312.574 287.446C298.767 287.446 287.574 298.638 287.574 312.446C287.574 319.191 290.246 325.313 294.589 329.81C294.694 329.912 294.798 330.014 294.902 330.118Z" fill="#FBFAFC" style="fill:#FBFAFC;fill:color(display-p3 0.9843 0.9804 0.9882);fill-opacity:1;"/>
</svg>
