<svg height="24" viewBox="0 0 16 16" width="24" xmlns="http://www.w3.org/2000/svg"><g fill="#730fc3"><g clip-rule="evenodd" fill-rule="evenodd"><path d="m2 3v7h12v-7zm-1-2c-.552285 0-1 .44772-1 1v9c0 .5523.447716 1 1 1h14c.5523 0 1-.4477 1-1v-9c0-.55228-.4477-1-1-1z"/><path d="m9.55279 10.1056c.49401-.24702 1.09461-.0468 1.34161.4472l2 3c.247.494.0468 1.0946-.4472 1.3416s-1.0946.0468-1.3416-.4472l-2.00003-3c-.24699-.494-.04676-1.0946.44722-1.3416z"/><path d="m6.44721 10.1056c-.49397-.24702-1.09465-.0468-1.34164.4472l-2 3c-.24699.494-.04676 1.0946.44722 1.3416s1.09465.0468 1.34164-.4472l2-3c.24699-.494.04676-1.0946-.44722-1.3416z"/><path d="m8 10c.55228 0 1 .4477 1 1v2c0 .5523-.44772 1-1 1s-1-.4477-1-1v-2c0-.5523.44772-1 1-1z"/></g><path d="m3 4.49951c0-.27614.22386-.5.5-.5h1c.27614 0 .5.22386.5.5v1c0 .27614-.22386.5-.5.5h-1c-.27614 0-.5-.22386-.5-.5z"/><path d="m3 7.49951c0-.27614.22386-.5.5-.5h1c.27614 0 .5.22386.5.5v1c0 .27614-.22386.5-.5.5h-1c-.27614 0-.5-.22386-.5-.5z"/><path d="m6 4.49951c0-.27614.22386-.5.5-.5h1c.27614 0 .5.22386.5.5v1c0 .27614-.22386.5-.5.5h-1c-.27614 0-.5-.22386-.5-.5z"/></g></svg>