<svg fill="none" height="64" viewBox="0 0 64 64" width="64" xmlns="http://www.w3.org/2000/svg"><g fill="#fff"><path d="m22 23.7992c0-.9943.8049-1.7992 1.7992-1.7992h7.1494c.9943 0 1.7992.8049 1.7992 1.7992v1.4204c0 .5208-.4261.8996-.8996.8996h-8.9486c-.4735.0473-.8996-.3788-.8996-.8996z"/><path d="m22 29.5246c0-.4735.4261-.8996.8996-.8996h17.1396c.9943 0 1.7993.8049 1.7993 1.7992v4.7347c0 .5208-.4262.8996-.8997.8996h-17.1396c-.9943.0474-1.7992-.8049-1.7992-1.7992z"/><path d="m31.0898 39.4699c0-.5208.4261-.8996.8997-.8996h8.9485c.5208 0 .8996.4261.8996.8996v.5682c0 .9942-.8049 1.7991-1.7991 1.7991h-7.1021c-.9943 0-1.7992-.8049-1.7992-1.7991v-.5682z"/></g></svg>