<svg fill="none" height="24" viewBox="0 0 121 24" width="121" xmlns="http://www.w3.org/2000/svg" xmlns:xlink="http://www.w3.org/1999/xlink"><linearGradient id="a" gradientUnits="userSpaceOnUse" x1="98.5" x2="108.5" y1="12" y2="12"><stop offset="0" stop-color="#f2d024"/><stop offset=".990908" stop-color="#f2d024"/><stop offset="1" stop-color="#ebe4f0"/></linearGradient><g stroke="#f2d024" stroke-linecap="round" stroke-linejoin="round" stroke-width="2"><g fill="#f2d024"><path d="m12.5 2 3.09 6.26 6.91 1.01-5 4.87 1.18 6.88-6.18-3.25-6.18 3.25 1.18-6.88-5-4.87 6.91-1.01z"/><path d="m36.5 2 3.09 6.26 6.91 1.01-5 4.87 1.18 6.88-6.18-3.25-6.18 3.25 1.18-6.88-5-4.87 6.91-1.01z"/><path d="m60.5 2 3.09 6.26 6.91 1.01-5 4.87 1.18 6.88-6.18-3.25-6.18 3.25 1.18-6.88-5-4.87 6.91-1.01z"/><path d="m84.5 2 3.09 6.26 6.91 1.01-5 4.87 1.18 6.88-6.18-3.25-6.18 3.25 1.18-6.88-5-4.87 6.91-1.01z"/></g><path d="m108.5 2 3.09 6.26 6.91 1.01-5 4.87 1.18 6.88-6.18-3.25-6.18 3.25 1.18-6.88-5-4.87 6.91-1.01z" fill="url(#a)"/></g></svg>