<svg width="112" height="112" viewBox="0 0 112 112" fill="none" xmlns="http://www.w3.org/2000/svg">
<path d="M23.531 70.7811C23.531 77.2567 18.2411 82.5466 11.7655 82.5466C5.28991 82.5466 0 77.2567 0 70.7811C0 64.3055 5.28991 59.0156 11.7655 59.0156H23.531V70.7811Z" fill="#E01E5A" style="fill:#E01E5A;fill:color(display-p3 0.8784 0.1176 0.3529);fill-opacity:1;"/>
<path d="M29.459 70.7811C29.459 64.3055 34.7489 59.0156 41.2245 59.0156C47.7 59.0156 52.9899 64.3055 52.9899 70.7811V100.24C52.9899 106.716 47.7 112.006 41.2245 112.006C34.7489 112.006 29.459 106.716 29.459 100.24V70.7811Z" fill="#E01E5A" style="fill:#E01E5A;fill:color(display-p3 0.8784 0.1176 0.3529);fill-opacity:1;"/>
<path d="M41.2245 23.5309C34.7489 23.5309 29.459 18.241 29.459 11.7655C29.459 5.2899 34.7489 0 41.2245 0C47.7 0 52.9899 5.2899 52.9899 11.7655V23.5309H41.2245Z" fill="#36C5F0" style="fill:#36C5F0;fill:color(display-p3 0.2118 0.7725 0.9412);fill-opacity:1;"/>
<path d="M41.2248 29.4531C47.7004 29.4531 52.9903 34.743 52.9903 41.2186C52.9903 47.6942 47.7004 52.9841 41.2248 52.9841H11.7655C5.28991 52.9841 0 47.6942 0 41.2186C0 34.743 5.28991 29.4531 11.7655 29.4531H41.2248Z" fill="#36C5F0" style="fill:#36C5F0;fill:color(display-p3 0.2118 0.7725 0.9412);fill-opacity:1;"/>
<path d="M88.4707 41.2186C88.4707 34.743 93.7606 29.4531 100.236 29.4531C106.712 29.4531 112.002 34.743 112.002 41.2186C112.002 47.6942 106.712 52.9841 100.236 52.9841H88.4707V41.2186Z" fill="#2EB67D" style="fill:#2EB67D;fill:color(display-p3 0.1804 0.7137 0.4902);fill-opacity:1;"/>
<path d="M82.5427 41.2248C82.5427 47.7003 77.2528 52.9902 70.7772 52.9902C64.3016 52.9902 59.0117 47.7003 59.0117 41.2248V11.7655C59.0117 5.2899 64.3016 0 70.7772 0C77.2528 0 82.5427 5.2899 82.5427 11.7655V41.2248Z" fill="#2EB67D" style="fill:#2EB67D;fill:color(display-p3 0.1804 0.7137 0.4902);fill-opacity:1;"/>
<path d="M70.7772 88.4688C77.2528 88.4688 82.5427 93.7586 82.5427 100.234C82.5427 106.71 77.2528 112 70.7772 112C64.3016 112 59.0117 106.71 59.0117 100.234V88.4688H70.7772Z" fill="#ECB22E" style="fill:#ECB22E;fill:color(display-p3 0.9255 0.6980 0.1804);fill-opacity:1;"/>
<path d="M70.7772 82.5466C64.3016 82.5466 59.0117 77.2567 59.0117 70.7811C59.0117 64.3055 64.3016 59.0156 70.7772 59.0156H100.237C106.712 59.0156 112.002 64.3055 112.002 70.7811C112.002 77.2567 106.712 82.5466 100.237 82.5466H70.7772Z" fill="#ECB22E" style="fill:#ECB22E;fill:color(display-p3 0.9255 0.6980 0.1804);fill-opacity:1;"/>
</svg>
