<svg width="625" height="625" viewBox="0 0 625 625" fill="none" xmlns="http://www.w3.org/2000/svg">
<path fill-rule="evenodd" clip-rule="evenodd" d="M449 225.28C444.868 214.101 438.348 203.83 429.759 195.241C421.17 186.652 410.899 180.132 399.72 176C396.222 174.707 392.634 173.648 388.981 172.833C383.069 171.514 376.986 170.833 370.833 170.833C365.308 170.833 360.009 168.638 356.102 164.731C352.195 160.824 350 155.525 350 150C350 144.475 352.195 139.176 356.102 135.269C360.009 131.362 365.308 129.167 370.833 129.167C376.986 129.167 383.069 128.486 388.981 127.167C392.634 126.352 396.222 125.293 399.72 124C410.899 119.868 421.17 113.348 429.759 104.759C438.348 96.1699 444.868 85.8991 449 74.7205C450.293 71.2218 451.352 67.6341 452.167 63.9813C453.486 58.0692 454.167 51.9864 454.167 45.8333C454.167 40.3079 456.362 35.009 460.269 31.1019C464.176 27.195 469.475 25 475 25C480.525 25 485.824 27.195 489.731 31.1019C493.638 35.009 495.833 40.3079 495.833 45.8333C495.833 51.9864 496.514 58.0692 497.833 63.9813C498.648 67.6341 499.707 71.2218 501 74.7205C505.132 85.8991 511.652 96.1699 520.241 104.759C528.83 113.348 539.101 119.868 550.28 124C553.778 125.293 557.366 126.352 561.019 127.167C566.931 128.486 573.014 129.167 579.167 129.167C584.692 129.167 589.991 131.362 593.898 135.269C597.805 139.176 600 144.475 600 150C600 155.525 597.805 160.824 593.898 164.731C589.991 168.638 584.692 170.833 579.167 170.833C573.014 170.833 566.931 171.514 561.019 172.833C557.366 173.648 553.778 174.707 550.28 176C539.101 180.132 528.83 186.652 520.241 195.241C511.652 203.83 505.132 214.101 501 225.28C499.707 228.778 498.648 232.366 497.833 236.019C496.514 241.931 495.833 248.014 495.833 254.167C495.833 259.692 493.638 264.991 489.731 268.898C485.824 272.805 480.525 275 475 275C469.475 275 464.176 272.805 460.269 268.898C456.362 264.991 454.167 259.692 454.167 254.167C454.167 248.014 453.486 241.931 452.167 236.019C451.352 232.366 450.293 228.778 449 225.28ZM465.115 140.114C468.629 136.6 471.927 132.909 475 129.063C478.073 132.909 481.371 136.6 484.886 140.115C488.4 143.629 492.091 146.927 495.937 150C492.091 153.073 488.4 156.371 484.885 159.886C481.371 163.4 478.073 167.091 475 170.937C471.927 167.091 468.629 163.4 465.114 159.885C461.6 156.371 457.909 153.073 454.063 150C457.909 146.927 461.6 143.629 465.115 140.114ZM212.5 562.5C212.5 522.717 196.696 484.564 168.566 456.434C140.435 428.304 102.283 412.5 62.5 412.5C52.5543 412.5 43.0161 408.549 35.9834 401.517C28.951 394.484 25 384.946 25 375C25 365.054 28.951 355.516 35.9834 348.483C43.0161 341.451 52.5543 337.5 62.5 337.5C102.283 337.5 140.435 321.696 168.566 293.566C196.696 265.435 212.5 227.283 212.5 187.5C212.5 177.554 216.451 168.016 223.483 160.983C230.516 153.951 240.054 150 250 150C259.946 150 269.484 153.951 276.517 160.983C283.549 168.016 287.5 177.554 287.5 187.5C287.5 227.283 303.304 265.435 331.434 293.566C359.564 321.696 397.717 337.5 437.5 337.5C447.446 337.5 456.984 341.451 464.017 348.483C471.049 355.516 475 365.054 475 375C475 384.946 471.049 394.484 464.017 401.517C456.984 408.549 447.446 412.5 437.5 412.5C397.717 412.5 359.564 428.304 331.434 456.434C303.304 484.564 287.5 522.717 287.5 562.5C287.5 572.446 283.549 581.984 276.517 589.017C269.484 596.049 259.946 600 250 600C240.054 600 230.516 596.049 223.483 589.017C216.451 581.984 212.5 572.446 212.5 562.5ZM203.922 421.079C224.466 441.624 240.08 466.178 250 492.903C259.92 466.178 275.534 441.624 296.078 421.079L296.079 421.078C316.624 400.534 341.178 384.92 367.903 375C341.178 365.08 316.624 349.466 296.079 328.922L296.078 328.921C275.534 308.376 259.92 283.822 250 257.097C240.08 283.822 224.466 308.376 203.922 328.921L203.921 328.922C183.376 349.466 158.822 365.08 132.097 375C158.822 384.92 183.376 400.534 203.921 421.078L203.922 421.079Z" fill="#FBFAFC" style="fill:#FBFAFC;fill:color(display-p3 0.9843 0.9804 0.9882);fill-opacity:1;"/>
</svg>
