<svg fill="none" height="64" viewBox="0 0 64 64" width="64" xmlns="http://www.w3.org/2000/svg" xmlns:xlink="http://www.w3.org/1999/xlink"><filter id="a" color-interpolation-filters="sRGB" filterUnits="userSpaceOnUse" height="26" width="25.9258" x="22.7734" y="19"><feFlood flood-opacity="0" result="BackgroundImageFix"/><feColorMatrix in="SourceAlpha" result="hardAlpha" type="matrix" values="0 0 0 0 0 0 0 0 0 0 0 0 0 0 0 0 0 0 127 0"/><feOffset/><feGaussianBlur stdDeviation="1.5"/><feColorMatrix type="matrix" values="0 0 0 0 0 0 0 0 0 0 0 0 0 0 0 0 0 0 0.3 0"/><feBlend in2="BackgroundImageFix" mode="normal" result="effect1_dropShadow_685_17817"/><feBlend in="SourceGraphic" in2="effect1_dropShadow_685_17817" mode="normal" result="shape"/></filter><mask id="b" height="20" maskUnits="userSpaceOnUse" width="21" x="18" y="22"><path clip-rule="evenodd" d="m28.6358 24.9179c-.2051-.2058-.5377-.2058-.7428 0l-6.6849 6.7093c-.2051.2058-.2051.5396 0 .7455l6.6849 6.7092c.2051.2059.5377.2059.7428 0l6.6849-6.7092c.2051-.2059.2051-.5397 0-.7455zm.3714-2.6091c-.4102-.4117-1.0753-.4117-1.4855 0l-8.9133 8.9457c-.4102.4117-.4102 1.0792 0 1.4909l8.9133 8.9457c.4102.4117 1.0753.4117 1.4855 0l8.9132-8.9457c.4102-.4117.4102-1.0792 0-1.4909z" fill="#220a33" fill-rule="evenodd"/></mask><path clip-rule="evenodd" d="m28.6358 24.9179c-.2051-.2058-.5377-.2058-.7428 0l-6.6849 6.7093c-.2051.2058-.2051.5396 0 .7455l6.6849 6.7092c.2051.2059.5377.2059.7428 0l6.6849-6.7092c.2051-.2059.2051-.5397 0-.7455zm.3714-2.6091c-.4102-.4117-1.0753-.4117-1.4855 0l-8.9133 8.9457c-.4102.4117-.4102 1.0792 0 1.4909l8.9133 8.9457c.4102.4117 1.0753.4117 1.4855 0l8.9132-8.9457c.4102-.4117.4102-1.0792 0-1.4909z" fill="#fff" fill-rule="evenodd"/><g mask="url(#b)"><g filter="url(#a)"><path d="m34.9943 22.3088c.4102-.4117 1.0753-.4117 1.4855 0l8.9132 8.9457c.4103.4117.4103 1.0792 0 1.4909l-8.9132 8.9457c-.4102.4117-1.0753.4117-1.4855 0l-8.9132-8.9457c-.4102-.4117-.4102-1.0792 0-1.4909z" fill="#000"/></g></g><path d="m34.9943 22.3088c.4102-.4117 1.0753-.4117 1.4855 0l8.9132 8.9457c.4103.4117.4103 1.0792 0 1.4909l-8.9132 8.9457c-.4102.4117-1.0753.4117-1.4855 0l-8.9132-8.9457c-.4102-.4117-.4102-1.0792 0-1.4909z" fill="#fff"/></svg>